<svg xmlns="http://www.w3.org/2000/svg" xmlns:xlink="http://www.w3.org/1999/xlink" contentStyleType="text/css" height="500px" preserveAspectRatio="none" style="width:605px;height:500px;background:#FFFFFF;" version="1.1" viewBox="0 0 605 500" width="605px" zoomAndPan="magnify"><title>Domain Model : Figure List</title><defs/><g><text fill="#000000" font-family="sans-serif" font-size="14" font-weight="bold" lengthAdjust="spacing" textLength="179.6689" x="206.1382" y="25.1074">Domain Model : Figure List</text><!--cluster Figure --><g id="cluster_Figure "><path d="M11,45.6348 L53.6689,45.6348 A7.5,7.5 0 0 1 58.6689,50.6348 L65.6689,70.2559 L590,70.2559 A5,5 0 0 1 595,75.2559 L595,488.6348 A5,5 0 0 1 590,493.6348 L11,493.6348 A5,5 0 0 1 6,488.6348 L6,50.6348 A5,5 0 0 1 11,45.6348 " fill="#B0C4DE" style="stroke:#000080;stroke-width:1.5;"/><line style="stroke:#000080;stroke-width:1.5;" x1="6" x2="65.6689" y1="70.2559" y2="70.2559"/><text fill="#000000" font-family="sans-serif" font-size="14" font-weight="bold" lengthAdjust="spacing" textLength="42.7793" x="10" y="62.7422">Figure</text></g><!--class Figure--><g id="elem_Figure"><rect codeLine="27" fill="#AFEEEE" height="48" id="Figure" rx="5" ry="5" style="stroke:#000080;stroke-width:1.0;" width="92.3525" x="264" y="82.6348"/><ellipse cx="279" cy="98.6348" fill="#ADD1B2" rx="11" ry="11" style="stroke:#181818;stroke-width:1.0;"/><path d="M281.7656,94.5098 Q281.9219,94.291 282.1094,94.1816 Q282.2969,94.0723 282.5156,94.0723 Q282.8906,94.0723 283.125,94.3379 Q283.3594,94.5879 283.3594,95.1973 L283.3594,96.6504 Q283.3594,97.2598 283.125,97.5254 Q282.8906,97.791 282.5156,97.791 Q282.1719,97.791 281.9688,97.5879 Q281.7656,97.4004 281.6563,96.8848 Q281.6094,96.5254 281.4219,96.3379 Q281.0938,95.9629 280.4844,95.7441 Q279.875,95.5254 279.25,95.5254 Q278.4844,95.5254 277.8438,95.8535 Q277.2188,96.1816 276.7188,96.9316 Q276.2344,97.6816 276.2344,98.7129 L276.2344,99.8066 Q276.2344,101.041 277.125,101.8691 Q278.0156,102.6816 279.6094,102.6816 Q280.5469,102.6816 281.2031,102.4316 Q281.5938,102.2754 282.0156,101.8379 Q282.2813,101.5723 282.4219,101.4941 Q282.5781,101.416 282.7813,101.416 Q283.1094,101.416 283.3594,101.6816 Q283.625,101.9316 283.625,102.2754 Q283.625,102.6191 283.2813,103.0254 Q282.7813,103.6035 281.9844,103.9316 Q280.9063,104.3848 279.6094,104.3848 Q278.0938,104.3848 276.8906,103.7598 Q275.9063,103.2598 275.2188,102.1973 Q274.5313,101.1191 274.5313,99.8379 L274.5313,98.6816 Q274.5313,97.3535 275.1406,96.2129 Q275.7656,95.0566 276.8594,94.4473 Q277.9531,93.8223 279.1875,93.8223 Q279.9219,93.8223 280.5625,93.9941 Q281.2188,94.1504 281.7656,94.5098 Z " fill="#000000"/><text fill="#000000" font-family="sans-serif" font-size="14" lengthAdjust="spacing" textLength="39.6826" x="293" y="104.4316">Figure</text><rect fill="#FFFFFF" height="17.9609" style="stroke:#000080;stroke-width:1.0;stroke-dasharray:2.0,2.0;" width="18.6699" x="340.6826" y="79.6348"/><text fill="#000000" font-family="sans-serif" font-size="12" font-style="italic" lengthAdjust="spacing" textLength="16.6699" x="341.6826" y="93.584">ER</text><line style="stroke:#000080;stroke-width:1.0;" x1="265" x2="355.3525" y1="114.6348" y2="114.6348"/><line style="stroke:#000080;stroke-width:1.0;" x1="265" x2="355.3525" y1="122.6348" y2="122.6348"/></g><!--class Category--><g id="elem_Category"><rect codeLine="29" fill="#AFEEEE" height="66.6211" id="Category" rx="5" ry="5" style="stroke:#000080;stroke-width:1.0;" width="117.0479" x="22.5" y="218.6348"/><ellipse cx="40.6065" cy="234.6348" fill="#ADD1B2" rx="11" ry="11" style="stroke:#181818;stroke-width:1.0;"/><path d="M43.3721,230.5098 Q43.5284,230.291 43.7159,230.1816 Q43.9034,230.0723 44.1221,230.0723 Q44.4971,230.0723 44.7315,230.3379 Q44.9659,230.5879 44.9659,231.1973 L44.9659,232.6504 Q44.9659,233.2598 44.7315,233.5254 Q44.4971,233.791 44.1221,233.791 Q43.7784,233.791 43.5752,233.5879 Q43.3721,233.4004 43.2627,232.8848 Q43.2159,232.5254 43.0284,232.3379 Q42.7002,231.9629 42.0909,231.7441 Q41.4815,231.5254 40.8565,231.5254 Q40.0909,231.5254 39.4502,231.8535 Q38.8252,232.1816 38.3252,232.9316 Q37.8409,233.6816 37.8409,234.7129 L37.8409,235.8066 Q37.8409,237.041 38.7315,237.8691 Q39.6221,238.6816 41.2159,238.6816 Q42.1534,238.6816 42.8096,238.4316 Q43.2002,238.2754 43.6221,237.8379 Q43.8877,237.5723 44.0284,237.4941 Q44.1846,237.416 44.3877,237.416 Q44.7159,237.416 44.9659,237.6816 Q45.2315,237.9316 45.2315,238.2754 Q45.2315,238.6191 44.8877,239.0254 Q44.3877,239.6035 43.5909,239.9316 Q42.5127,240.3848 41.2159,240.3848 Q39.7002,240.3848 38.4971,239.7598 Q37.5127,239.2598 36.8252,238.1973 Q36.1377,237.1191 36.1377,235.8379 L36.1377,234.6816 Q36.1377,233.3535 36.7471,232.2129 Q37.3721,231.0566 38.4659,230.4473 Q39.5596,229.8223 40.794,229.8223 Q41.5284,229.8223 42.169,229.9941 Q42.8252,230.1504 43.3721,230.5098 Z " fill="#000000"/><text fill="#000000" font-family="sans-serif" font-size="14" lengthAdjust="spacing" textLength="56.8066" x="55.2968" y="240.4316">Category</text><rect fill="#FFFFFF" height="17.9609" style="stroke:#000080;stroke-width:1.0;stroke-dasharray:2.0,2.0;" width="19.3379" x="123.21" y="215.6348"/><text fill="#000000" font-family="sans-serif" font-size="12" font-style="italic" lengthAdjust="spacing" textLength="17.3379" x="124.21" y="229.584">VO</text><line style="stroke:#000080;stroke-width:1.0;" x1="23.5" x2="138.5479" y1="250.6348" y2="250.6348"/><text fill="#000000" font-family="sans-serif" font-size="14" lengthAdjust="spacing" textLength="105.0479" x="28.5" y="269.7422">Category : String</text><line style="stroke:#000080;stroke-width:1.0;" x1="23.5" x2="138.5479" y1="277.2559" y2="277.2559"/></g><!--class Description--><g id="elem_Description"><rect codeLine="32" fill="#AFEEEE" height="66.6211" id="Description" rx="5" ry="5" style="stroke:#000080;stroke-width:1.0;" width="130.2686" x="175" y="218.6348"/><ellipse cx="193.1065" cy="234.6348" fill="#ADD1B2" rx="11" ry="11" style="stroke:#181818;stroke-width:1.0;"/><path d="M195.8721,230.5098 Q196.0284,230.291 196.2159,230.1816 Q196.4034,230.0723 196.6221,230.0723 Q196.9971,230.0723 197.2315,230.3379 Q197.4659,230.5879 197.4659,231.1973 L197.4659,232.6504 Q197.4659,233.2598 197.2315,233.5254 Q196.9971,233.791 196.6221,233.791 Q196.2784,233.791 196.0752,233.5879 Q195.8721,233.4004 195.7627,232.8848 Q195.7159,232.5254 195.5284,232.3379 Q195.2002,231.9629 194.5909,231.7441 Q193.9815,231.5254 193.3565,231.5254 Q192.5909,231.5254 191.9502,231.8535 Q191.3252,232.1816 190.8252,232.9316 Q190.3409,233.6816 190.3409,234.7129 L190.3409,235.8066 Q190.3409,237.041 191.2315,237.8691 Q192.1221,238.6816 193.7159,238.6816 Q194.6534,238.6816 195.3096,238.4316 Q195.7002,238.2754 196.1221,237.8379 Q196.3877,237.5723 196.5284,237.4941 Q196.6846,237.416 196.8877,237.416 Q197.2159,237.416 197.4659,237.6816 Q197.7315,237.9316 197.7315,238.2754 Q197.7315,238.6191 197.3877,239.0254 Q196.8877,239.6035 196.0909,239.9316 Q195.0127,240.3848 193.7159,240.3848 Q192.2002,240.3848 190.9971,239.7598 Q190.0127,239.2598 189.3252,238.1973 Q188.6377,237.1191 188.6377,235.8379 L188.6377,234.6816 Q188.6377,233.3535 189.2471,232.2129 Q189.8721,231.0566 190.9659,230.4473 Q192.0596,229.8223 193.294,229.8223 Q194.0284,229.8223 194.669,229.9941 Q195.3252,230.1504 195.8721,230.5098 Z " fill="#000000"/><text fill="#000000" font-family="sans-serif" font-size="14" lengthAdjust="spacing" textLength="70.0273" x="207.7968" y="240.4316">Description</text><rect fill="#FFFFFF" height="17.9609" style="stroke:#000080;stroke-width:1.0;stroke-dasharray:2.0,2.0;" width="19.3379" x="288.9307" y="215.6348"/><text fill="#000000" font-family="sans-serif" font-size="12" font-style="italic" lengthAdjust="spacing" textLength="17.3379" x="289.9307" y="229.584">VO</text><line style="stroke:#000080;stroke-width:1.0;" x1="176" x2="304.2686" y1="250.6348" y2="250.6348"/><text fill="#000000" font-family="sans-serif" font-size="14" lengthAdjust="spacing" textLength="118.2686" x="181" y="269.7422">Description : String</text><line style="stroke:#000080;stroke-width:1.0;" x1="176" x2="304.2686" y1="277.2559" y2="277.2559"/></g><!--class Type--><g id="elem_Type"><rect codeLine="35" fill="#AFEEEE" height="85.2422" id="Type" rx="5" ry="5" style="stroke:#000080;stroke-width:1.0;" width="84.4619" x="340" y="209.6348"/><ellipse cx="355" cy="225.6348" fill="#EB937F" rx="11" ry="11" style="stroke:#181818;stroke-width:1.0;"/><path d="M353.8594,226.4316 L353.8594,228.9316 L358.1875,228.9316 L358.1875,228.0098 Q358.1875,227.4004 358.4219,227.1348 Q358.6719,226.8691 359.0469,226.8691 Q359.4219,226.8691 359.6563,227.1348 Q359.8906,227.4004 359.8906,228.0098 L359.8906,230.6348 L351.8906,230.6348 Q351.2656,230.6348 351,230.4004 Q350.75,230.166 350.75,229.7754 Q350.75,229.4004 351.0156,229.166 Q351.2813,228.9316 351.8906,228.9316 L352.1563,228.9316 L352.1563,222.2754 L351.8906,222.2754 Q351.2656,222.2754 351,222.041 Q350.75,221.8066 350.75,221.416 Q350.75,221.041 351,220.8066 Q351.2656,220.5723 351.8906,220.5723 L359.5156,220.5723 L359.5156,223.166 Q359.5156,223.7754 359.2813,224.041 Q359.0625,224.291 358.6719,224.291 Q358.2969,224.291 358.0625,224.041 Q357.8281,223.7754 357.8281,223.166 L357.8281,222.2754 L353.8594,222.2754 L353.8594,224.7285 L355.3438,224.7285 Q355.3438,224.0723 355.4688,223.8848 Q355.7344,223.4785 356.2031,223.4785 Q356.5781,223.4785 356.8125,223.7441 Q357.0469,223.9941 357.0469,224.6035 L357.0469,226.5723 Q357.0469,227.1191 356.9219,227.3066 Q356.6563,227.6973 356.2031,227.6973 Q355.7344,227.6973 355.4688,227.291 Q355.3438,227.1035 355.3438,226.4316 L353.8594,226.4316 Z " fill="#000000"/><text fill="#000000" font-family="sans-serif" font-size="14" lengthAdjust="spacing" textLength="31.124" x="369" y="231.4316">Type</text><rect fill="#FFFFFF" height="17.9609" style="stroke:#000080;stroke-width:1.0;stroke-dasharray:2.0,2.0;" width="19.3379" x="408.124" y="206.6348"/><text fill="#000000" font-family="sans-serif" font-size="12" font-style="italic" lengthAdjust="spacing" textLength="17.3379" x="409.124" y="220.584">VO</text><line style="stroke:#000080;stroke-width:1.0;" x1="341" x2="423.4619" y1="241.6348" y2="241.6348"/><text fill="#000000" font-family="sans-serif" font-size="14" lengthAdjust="spacing" textLength="49.7793" x="346" y="260.7422">STATIC</text><text fill="#000000" font-family="sans-serif" font-size="14" lengthAdjust="spacing" textLength="64.5586" x="346" y="279.3633">DYNAMIC</text><line style="stroke:#000080;stroke-width:1.0;" x1="341" x2="423.4619" y1="286.877" y2="286.877"/></g><!--class Exclusivity--><g id="elem_Exclusivity"><rect codeLine="39" fill="#AFEEEE" height="48" id="Exclusivity" rx="5" ry="5" style="stroke:#000080;stroke-width:1.0;" width="118.6826" x="459.5" y="228.1348"/><ellipse cx="474.5" cy="244.1348" fill="#ADD1B2" rx="11" ry="11" style="stroke:#181818;stroke-width:1.0;"/><path d="M477.2656,240.0098 Q477.4219,239.791 477.6094,239.6816 Q477.7969,239.5723 478.0156,239.5723 Q478.3906,239.5723 478.625,239.8379 Q478.8594,240.0879 478.8594,240.6973 L478.8594,242.1504 Q478.8594,242.7598 478.625,243.0254 Q478.3906,243.291 478.0156,243.291 Q477.6719,243.291 477.4688,243.0879 Q477.2656,242.9004 477.1563,242.3848 Q477.1094,242.0254 476.9219,241.8379 Q476.5938,241.4629 475.9844,241.2441 Q475.375,241.0254 474.75,241.0254 Q473.9844,241.0254 473.3438,241.3535 Q472.7188,241.6816 472.2188,242.4316 Q471.7344,243.1816 471.7344,244.2129 L471.7344,245.3066 Q471.7344,246.541 472.625,247.3691 Q473.5156,248.1816 475.1094,248.1816 Q476.0469,248.1816 476.7031,247.9316 Q477.0938,247.7754 477.5156,247.3379 Q477.7813,247.0723 477.9219,246.9941 Q478.0781,246.916 478.2813,246.916 Q478.6094,246.916 478.8594,247.1816 Q479.125,247.4316 479.125,247.7754 Q479.125,248.1191 478.7813,248.5254 Q478.2813,249.1035 477.4844,249.4316 Q476.4063,249.8848 475.1094,249.8848 Q473.5938,249.8848 472.3906,249.2598 Q471.4063,248.7598 470.7188,247.6973 Q470.0313,246.6191 470.0313,245.3379 L470.0313,244.1816 Q470.0313,242.8535 470.6406,241.7129 Q471.2656,240.5566 472.3594,239.9473 Q473.4531,239.3223 474.6875,239.3223 Q475.4219,239.3223 476.0625,239.4941 Q476.7188,239.6504 477.2656,240.0098 Z " fill="#000000"/><text fill="#000000" font-family="sans-serif" font-size="14" lengthAdjust="spacing" textLength="65.3447" x="488.5" y="249.9316">Exclusivity</text><rect fill="#FFFFFF" height="17.9609" style="stroke:#000080;stroke-width:1.0;stroke-dasharray:2.0,2.0;" width="19.3379" x="561.8447" y="225.1348"/><text fill="#000000" font-family="sans-serif" font-size="12" font-style="italic" lengthAdjust="spacing" textLength="17.3379" x="562.8447" y="239.084">VO</text><line style="stroke:#000080;stroke-width:1.0;" x1="460.5" x2="577.1826" y1="260.1348" y2="260.1348"/><line style="stroke:#000080;stroke-width:1.0;" x1="460.5" x2="577.1826" y1="268.1348" y2="268.1348"/></g><!--class Period--><g id="elem_Period"><rect codeLine="42" fill="#AFEEEE" height="103.8633" id="Period" rx="5" ry="5" style="stroke:#000080;stroke-width:1.0;" width="174.6475" x="396.5" y="373.6348"/><ellipse cx="448.6704" cy="389.6348" fill="#ADD1B2" rx="11" ry="11" style="stroke:#181818;stroke-width:1.0;"/><path d="M451.436,385.5098 Q451.5923,385.291 451.7798,385.1816 Q451.9673,385.0723 452.186,385.0723 Q452.561,385.0723 452.7954,385.3379 Q453.0298,385.5879 453.0298,386.1973 L453.0298,387.6504 Q453.0298,388.2598 452.7954,388.5254 Q452.561,388.791 452.186,388.791 Q451.8423,388.791 451.6392,388.5879 Q451.436,388.4004 451.3267,387.8848 Q451.2798,387.5254 451.0923,387.3379 Q450.7642,386.9629 450.1548,386.7441 Q449.5454,386.5254 448.9204,386.5254 Q448.1548,386.5254 447.5142,386.8535 Q446.8892,387.1816 446.3892,387.9316 Q445.9048,388.6816 445.9048,389.7129 L445.9048,390.8066 Q445.9048,392.041 446.7954,392.8691 Q447.686,393.6816 449.2798,393.6816 Q450.2173,393.6816 450.8735,393.4316 Q451.2642,393.2754 451.686,392.8379 Q451.9517,392.5723 452.0923,392.4941 Q452.2485,392.416 452.4517,392.416 Q452.7798,392.416 453.0298,392.6816 Q453.2954,392.9316 453.2954,393.2754 Q453.2954,393.6191 452.9517,394.0254 Q452.4517,394.6035 451.6548,394.9316 Q450.5767,395.3848 449.2798,395.3848 Q447.7642,395.3848 446.561,394.7598 Q445.5767,394.2598 444.8892,393.1973 Q444.2017,392.1191 444.2017,390.8379 L444.2017,389.6816 Q444.2017,388.3535 444.811,387.2129 Q445.436,386.0566 446.5298,385.4473 Q447.6235,384.8223 448.8579,384.8223 Q449.5923,384.8223 450.2329,384.9941 Q450.8892,385.1504 451.436,385.5098 Z " fill="#000000"/><text fill="#000000" font-family="sans-serif" font-size="14" lengthAdjust="spacing" textLength="40.4688" x="469.1704" y="395.4316">Period</text><rect fill="#FFFFFF" height="17.9609" style="stroke:#000080;stroke-width:1.0;stroke-dasharray:2.0,2.0;" width="19.3379" x="554.8096" y="370.6348"/><text fill="#000000" font-family="sans-serif" font-size="12" font-style="italic" lengthAdjust="spacing" textLength="17.3379" x="555.8096" y="384.584">VO</text><line style="stroke:#000080;stroke-width:1.0;" x1="397.5" x2="570.1475" y1="405.6348" y2="405.6348"/><text fill="#000000" font-family="sans-serif" font-size="14" lengthAdjust="spacing" textLength="107.3789" x="402.5" y="424.7422">StartDate : String</text><text fill="#000000" font-family="sans-serif" font-size="14" lengthAdjust="spacing" textLength="102.7236" x="402.5" y="443.3633">EndDate : String</text><line style="stroke:#000080;stroke-width:1.0;" x1="397.5" x2="570.1475" y1="450.877" y2="450.877"/><ellipse cx="407.5" cy="465.6875" fill="#84BE84" rx="3" ry="3" style="stroke:#038048;stroke-width:1.0;"/><text fill="#000000" font-family="sans-serif" font-size="14" lengthAdjust="spacing" textLength="148.6475" x="416.5" y="469.9844">contains(Date): boolean</text></g><!--link Figure to Description--><g id="link_Figure_Description"><path codeLine="50" d="M263.3198,138.4557 C253.3098,146.5957 252.94,149.0648 247,160.6348 C237.93,178.2948 235.93,194.4969 236.41,212.4869 " fill="none" id="Figure-Description" style="stroke:#000080;stroke-width:1.0;"/><polygon fill="#000080" points="272.63,130.8848,265.4512,131.5668,263.3198,138.4557,270.4985,137.7737,272.63,130.8848" style="stroke:#000080;stroke-width:1.0;"/><polygon fill="#000080" points="236.57,218.4848,240.3285,209.3813,236.4366,213.4865,232.3314,209.5947,236.57,218.4848" style="stroke:#000080;stroke-width:1.0;"/><polygon fill="#000000" points="250.2919,174.9795,256.144,167.4826,250.6198,165.4745,250.2919,174.9795" style="stroke:#000000;stroke-width:1.0;"/><text fill="#000000" font-family="sans-serif" font-size="13" lengthAdjust="spacing" textLength="73.709" x="261" y="175.6631">described by</text><text fill="#000000" font-family="sans-serif" font-size="13" lengthAdjust="spacing" textLength="7.23" x="256.1646" y="152.5202">1</text><text fill="#000000" font-family="sans-serif" font-size="13" lengthAdjust="spacing" textLength="7.23" x="228.2019" y="207.2808">1</text></g><!--link Figure to Category--><g id="link_Figure_Category"><path codeLine="51" d="M252.212,119.8899 C220.462,127.8699 190.05,138.6748 158,160.6348 C135.71,175.9048 119.5883,194.3846 105.7183,213.5446 " fill="none" id="Figure-Category" style="stroke:#000080;stroke-width:1.0;"/><polygon fill="#000080" points="263.85,116.9648,257.056,114.548,252.212,119.8899,259.006,122.3067,263.85,116.9648" style="stroke:#000080;stroke-width:1.0;"/><polygon fill="#000080" points="102.2,218.4048,110.7176,213.46,105.1319,214.3546,104.2373,208.7689,102.2,218.4048" style="stroke:#000080;stroke-width:1.0;"/><polygon fill="#000000" points="158.7873,172.9735,167.9912,170.5776,164.8251,165.6253,158.7873,172.9735" style="stroke:#000000;stroke-width:1.0;"/><text fill="#000000" font-family="sans-serif" font-size="13" lengthAdjust="spacing" textLength="59.9917" x="172" y="175.6631">belongs to</text><text fill="#000000" font-family="sans-serif" font-size="13" lengthAdjust="spacing" textLength="7.23" x="248.6166" y="114.3203">1</text><text fill="#000000" font-family="sans-serif" font-size="13" lengthAdjust="spacing" textLength="7.23" x="98.5914" y="207.4468">1</text></g><!--link Figure to Type--><g id="link_Figure_Type"><path codeLine="52" d="M328.7974,141.2059 C333.9074,150.4459 333.94,150.7348 339,160.6348 C347.07,176.4348 352.9727,188.587 360.2427,204.017 " fill="none" id="Figure-Type" style="stroke:#000080;stroke-width:1.0;"/><polygon fill="#000080" points="322.99,130.7048,322.3933,137.8911,328.7974,141.2059,329.3941,134.0195,322.99,130.7048" style="stroke:#000080;stroke-width:1.0;"/><polygon fill="#000080" points="362.8,209.4448,362.5825,199.5983,360.6689,204.9217,355.3455,203.0081,362.8,209.4448" style="stroke:#000080;stroke-width:1.0;"/><polygon fill="#000000" points="354.2383,174.7513,352.8171,165.3475,347.5612,167.9788,354.2383,174.7513" style="stroke:#000000;stroke-width:1.0;"/><text fill="#000000" font-family="sans-serif" font-size="13" lengthAdjust="spacing" textLength="52.0254" x="361" y="175.6631">is of type</text><text fill="#000000" font-family="sans-serif" font-size="13" lengthAdjust="spacing" textLength="7.23" x="318.2883" y="152.7075">1</text><text fill="#000000" font-family="sans-serif" font-size="13" lengthAdjust="spacing" textLength="7.23" x="352.1637" y="198.3186">1</text></g><!--link Figure to Exclusivity--><g id="link_Figure_Exclusivity"><path codeLine="53" d="M367.154,130.4214 C388.074,139.5214 401.62,146.8048 422,160.6348 C450.77,180.1648 475.2265,203.7863 493.8265,223.4463 " fill="none" id="Figure-Exclusivity" style="stroke:#000080;stroke-width:1.0;"/><polygon fill="#000080" points="356.15,125.6348,360.0565,131.6961,367.154,130.4214,363.2475,124.3601,356.15,125.6348" style="stroke:#000080;stroke-width:1.0;"/><polygon fill="#000080" points="497.95,227.8048,494.6704,218.518,494.5137,224.1727,488.8591,224.016,497.95,227.8048" style="stroke:#000080;stroke-width:1.0;"/><polygon fill="#000000" points="454.03,173.2398,448.4792,165.5172,445.0001,170.2547,454.03,173.2398" style="stroke:#000000;stroke-width:1.0;"/><text fill="#000000" font-family="sans-serif" font-size="13" lengthAdjust="spacing" textLength="20.96" x="459" y="175.6631">has</text><text fill="#000000" font-family="sans-serif" font-size="13" lengthAdjust="spacing" textLength="7.23" x="364.3631" y="124.4262">1</text><text fill="#000000" font-family="sans-serif" font-size="13" lengthAdjust="spacing" textLength="19.5127" x="471.6046" y="216.8662">0..*</text></g><!--link Exclusivity to Period--><g id="link_Exclusivity_Period"><path codeLine="54" d="M511.8792,288.0221 C506.8192,312.8021 502.2402,335.276 495.6502,367.556 " fill="none" id="Exclusivity-Period" style="stroke:#000080;stroke-width:1.0;"/><polygon fill="#000080" points="514.28,276.2648,509.1605,281.3432,511.8792,288.0221,516.9987,282.9437,514.28,276.2648" style="stroke:#000080;stroke-width:1.0;"/><polygon fill="#000080" points="494.45,373.4348,500.1694,365.4168,495.4501,368.5358,492.3311,363.8165,494.45,373.4348" style="stroke:#000080;stroke-width:1.0;"/><polygon fill="#000000" points="507.0003,339.1793,511.6883,330.9044,505.9292,329.7293,507.0003,339.1793" style="stroke:#000000;stroke-width:1.0;"/><text fill="#000000" font-family="sans-serif" font-size="13" lengthAdjust="spacing" textLength="80.9453" x="517" y="339.6631">applies during</text><text fill="#000000" font-family="sans-serif" font-size="13" lengthAdjust="spacing" textLength="7.23" x="505.3431" y="298.2821">1</text><text fill="#000000" font-family="sans-serif" font-size="13" lengthAdjust="spacing" textLength="7.23" x="488.423" y="362.3353">1</text></g><!--SRC=[VLDBRzim3BxxLn2vRElWeha6WO4qZs90NqY20Zqg5ciBKKIFafiPG__xPCVPvDYTJXQ_5qtQJZcDiA23K0OUIAA62QnKLZB2lR8kYknUcKAmE40kZ3ooSWuDl0bjCS1iBYGTbSbw25DfP4fia65y4m2f5jR2xmZykHNfFckOSzB4y2mqRal-MPBoPZLZnap74_WetgkJYbWY3nQtkKht1dt0EFe8GWqv_2JpNcMvUqMjwTXplsDHTNmABnRPVwqs3b7VwX8_xtL5nWMbC01DUMZTX-tlI4iqJ39ekPFonC9ak4RfVQDplwDsjoEOJbUr0oT96tFQHujFb-laLFu8mBbmc15NC7rvQk7w_2rFOEFOVmGzuG9jogfmYio5DaG6vCqOjbM15xBDThRzCV_dyleuUsZlOUxoLwfBgzwLE_VSepmZAvANzawmM_ZNwlPKdwMHmy1tIFqw_NzalzQ4RnFO4MaKfetqM_W2SHp36hMetzVcgh1r9JelPJo2gpXEceVkO1AGpNs74dRLe23OGW8xr6Go2uu6kSr4QvwoG6_W_BNFkxc-lXfrHbWhSc6ZiDRnROTPyqHHQ8KMPDbCoPy_]--></g></svg>