<svg xmlns="http://www.w3.org/2000/svg" xmlns:xlink="http://www.w3.org/1999/xlink" contentStyleType="text/css" height="1022px" preserveAspectRatio="none" style="width:697px;height:1022px;background:#FFFFFF;" version="1.1" viewBox="0 0 697 1022" width="697px" zoomAndPan="magnify"><title>Class Diagram: US231 - List Public Figures</title><defs/><g><text fill="#000000" font-family="sans-serif" font-size="14" font-weight="bold" lengthAdjust="spacing" textLength="286.3096" x="198.6587" y="25.1074">Class Diagram: US231 - List Public Figures</text><!--class FigureListUI--><g id="elem_FigureListUI"><rect codeLine="26" fill="#D3D3D3" height="85.2422" id="FigureListUI" rx="2.5" ry="2.5" style="stroke:#000000;stroke-width:1.0;" width="204.1787" x="103" y="53.1211"/><ellipse cx="163.105" cy="69.1211" fill="#ADD1B2" rx="11" ry="11" style="stroke:#181818;stroke-width:1.0;"/><path d="M165.8706,64.9961 Q166.0269,64.7773 166.2144,64.668 Q166.4019,64.5586 166.6206,64.5586 Q166.9956,64.5586 167.23,64.8242 Q167.4644,65.0742 167.4644,65.6836 L167.4644,67.1367 Q167.4644,67.7461 167.23,68.0117 Q166.9956,68.2773 166.6206,68.2773 Q166.2769,68.2773 166.0737,68.0742 Q165.8706,67.8867 165.7612,67.3711 Q165.7144,67.0117 165.5269,66.8242 Q165.1987,66.4492 164.5894,66.2305 Q163.98,66.0117 163.355,66.0117 Q162.5894,66.0117 161.9487,66.3398 Q161.3237,66.668 160.8237,67.418 Q160.3394,68.168 160.3394,69.1992 L160.3394,70.293 Q160.3394,71.5273 161.23,72.3555 Q162.1206,73.168 163.7144,73.168 Q164.6519,73.168 165.3081,72.918 Q165.6987,72.7617 166.1206,72.3242 Q166.3862,72.0586 166.5269,71.9805 Q166.6831,71.9023 166.8862,71.9023 Q167.2144,71.9023 167.4644,72.168 Q167.73,72.418 167.73,72.7617 Q167.73,73.1055 167.3862,73.5117 Q166.8862,74.0898 166.0894,74.418 Q165.0112,74.8711 163.7144,74.8711 Q162.1987,74.8711 160.9956,74.2461 Q160.0112,73.7461 159.3237,72.6836 Q158.6362,71.6055 158.6362,70.3242 L158.6362,69.168 Q158.6362,67.8398 159.2456,66.6992 Q159.8706,65.543 160.9644,64.9336 Q162.0581,64.3086 163.2925,64.3086 Q164.0269,64.3086 164.6675,64.4805 Q165.3237,64.6367 165.8706,64.9961 Z " fill="#000000"/><text fill="#000000" font-family="sans-serif" font-size="14" lengthAdjust="spacing" textLength="75.4688" x="183.605" y="74.918">FigureListUI</text><line style="stroke:#000000;stroke-width:1.0;" x1="104" x2="306.1787" y1="85.1211" y2="85.1211"/><text fill="#000000" font-family="sans-serif" font-size="14" lengthAdjust="spacing" textLength="192.1787" x="109" y="104.2285">-controller: FigureListController</text><line style="stroke:#000000;stroke-width:1.0;" x1="104" x2="306.1787" y1="111.7422" y2="111.7422"/><text fill="#000000" font-family="sans-serif" font-size="14" lengthAdjust="spacing" textLength="183.2441" x="109" y="130.8496">+displayPublicFigures() : void</text></g><!--class FigureListController--><g id="elem_FigureListController"><rect codeLine="31" fill="#D3D3D3" height="97.8242" id="FigureListController" rx="2.5" ry="2.5" style="stroke:#000000;stroke-width:1.0;" width="270.7129" x="383.5" y="46.6211"/><ellipse cx="453.5273" cy="68.9121" fill="#ADD1B2" rx="11" ry="11" style="stroke:#181818;stroke-width:1.0;"/><path d="M456.293,64.7871 Q456.4492,64.5684 456.6367,64.459 Q456.8242,64.3496 457.043,64.3496 Q457.418,64.3496 457.6523,64.6152 Q457.8867,64.8652 457.8867,65.4746 L457.8867,66.9277 Q457.8867,67.5371 457.6523,67.8027 Q457.418,68.0684 457.043,68.0684 Q456.6992,68.0684 456.4961,67.8652 Q456.293,67.6777 456.1836,67.1621 Q456.1367,66.8027 455.9492,66.6152 Q455.6211,66.2402 455.0117,66.0215 Q454.4023,65.8027 453.7773,65.8027 Q453.0117,65.8027 452.3711,66.1309 Q451.7461,66.459 451.2461,67.209 Q450.7617,67.959 450.7617,68.9902 L450.7617,70.084 Q450.7617,71.3184 451.6523,72.1465 Q452.543,72.959 454.1367,72.959 Q455.0742,72.959 455.7305,72.709 Q456.1211,72.5527 456.543,72.1152 Q456.8086,71.8496 456.9492,71.7715 Q457.1055,71.6934 457.3086,71.6934 Q457.6367,71.6934 457.8867,71.959 Q458.1523,72.209 458.1523,72.5527 Q458.1523,72.8965 457.8086,73.3027 Q457.3086,73.8809 456.5117,74.209 Q455.4336,74.6621 454.1367,74.6621 Q452.6211,74.6621 451.418,74.0371 Q450.4336,73.5371 449.7461,72.4746 Q449.0586,71.3965 449.0586,70.1152 L449.0586,68.959 Q449.0586,67.6309 449.668,66.4902 Q450.293,65.334 451.3867,64.7246 Q452.4805,64.0996 453.7148,64.0996 Q454.4492,64.0996 455.0898,64.2715 Q455.7461,64.4277 456.293,64.7871 Z " fill="#000000"/><text fill="#000000" font-family="sans-serif" font-size="12" font-style="italic" lengthAdjust="spacing" textLength="65.3672" x="502.4229" y="64.5703">&#171;Controller&#187;</text><text fill="#000000" font-family="sans-serif" font-size="14" lengthAdjust="spacing" textLength="122.1582" x="474.0273" y="82.6895">FigureListController</text><line style="stroke:#000000;stroke-width:1.0;" x1="384.5" x2="653.2129" y1="91.2031" y2="91.2031"/><text fill="#000000" font-family="sans-serif" font-size="14" lengthAdjust="spacing" textLength="220.9785" x="389.5" y="110.3105">-figureRepository: FigureRepository</text><line style="stroke:#000000;stroke-width:1.0;" x1="384.5" x2="653.2129" y1="117.8242" y2="117.8242"/><text fill="#000000" font-family="sans-serif" font-size="14" lengthAdjust="spacing" textLength="258.7129" x="389.5" y="136.9316">+getPublicFigures(): List&lt;FigureListDTO&gt;</text></g><!--class FigureRepository--><g id="elem_FigureRepository"><rect codeLine="36" fill="#D3D3D3" height="79.2031" id="FigureRepository" rx="2.5" ry="2.5" style="stroke:#000000;stroke-width:1.0;" width="279.2988" x="241.5" y="223.6211"/><ellipse cx="323.5996" cy="245.9121" fill="#B4A7E5" rx="11" ry="11" style="stroke:#181818;stroke-width:1.0;"/><path d="M324.5527,242.5527 L324.5527,249.209 L326.2715,249.209 Q326.8809,249.209 327.1465,249.4434 Q327.4121,249.6777 327.4121,250.0684 Q327.4121,250.4434 327.1465,250.6777 Q326.8809,250.9121 326.2715,250.9121 L321.1309,250.9121 Q320.5215,250.9121 320.2559,250.6777 Q319.9902,250.4434 319.9902,250.0527 Q319.9902,249.6777 320.2559,249.4434 Q320.5215,249.209 321.1309,249.209 L322.8496,249.209 L322.8496,242.5527 L321.1309,242.5527 Q320.5215,242.5527 320.2559,242.3184 Q319.9902,242.084 319.9902,241.6934 Q319.9902,241.3184 320.2559,241.084 Q320.5215,240.8496 321.1309,240.8496 L326.2715,240.8496 Q326.8809,240.8496 327.1465,241.084 Q327.4121,241.3184 327.4121,241.6934 Q327.4121,242.084 327.1465,242.3184 Q326.8809,242.5527 326.2715,242.5527 L324.5527,242.5527 Z " fill="#000000"/><text fill="#000000" font-family="sans-serif" font-size="12" font-style="italic" lengthAdjust="spacing" textLength="70.7051" x="362.0469" y="241.5703">&#171;Repository&#187;</text><text fill="#000000" font-family="sans-serif" font-size="14" font-style="italic" lengthAdjust="spacing" textLength="106.5996" x="344.0996" y="259.6895">FigureRepository</text><line style="stroke:#000000;stroke-width:1.0;" x1="242.5" x2="519.7988" y1="268.2031" y2="268.2031"/><line style="stroke:#000000;stroke-width:1.0;" x1="242.5" x2="519.7988" y1="276.2031" y2="276.2031"/><text fill="#000000" font-family="sans-serif" font-size="14" lengthAdjust="spacing" textLength="267.2988" x="247.5" y="295.3105">+findAvailablePublicFigures(): List&lt;Figure&gt;</text></g><!--class Figure--><g id="elem_Figure"><rect codeLine="41" fill="#D3D3D3" height="261.4141" id="Figure" rx="2.5" ry="2.5" style="stroke:#000000;stroke-width:1.0;" width="224.7959" x="245.5" y="381.6211"/><ellipse cx="333.8066" cy="403.9121" fill="#ADD1B2" rx="11" ry="11" style="stroke:#181818;stroke-width:1.0;"/><path d="M336.5723,399.7871 Q336.7285,399.5684 336.916,399.459 Q337.1035,399.3496 337.3223,399.3496 Q337.6973,399.3496 337.9316,399.6152 Q338.166,399.8652 338.166,400.4746 L338.166,401.9277 Q338.166,402.5371 337.9316,402.8027 Q337.6973,403.0684 337.3223,403.0684 Q336.9785,403.0684 336.7754,402.8652 Q336.5723,402.6777 336.4629,402.1621 Q336.416,401.8027 336.2285,401.6152 Q335.9004,401.2402 335.291,401.0215 Q334.6816,400.8027 334.0566,400.8027 Q333.291,400.8027 332.6504,401.1309 Q332.0254,401.459 331.5254,402.209 Q331.041,402.959 331.041,403.9902 L331.041,405.084 Q331.041,406.3184 331.9316,407.1465 Q332.8223,407.959 334.416,407.959 Q335.3535,407.959 336.0098,407.709 Q336.4004,407.5527 336.8223,407.1152 Q337.0879,406.8496 337.2285,406.7715 Q337.3848,406.6934 337.5879,406.6934 Q337.916,406.6934 338.166,406.959 Q338.4316,407.209 338.4316,407.5527 Q338.4316,407.8965 338.0879,408.3027 Q337.5879,408.8809 336.791,409.209 Q335.7129,409.6621 334.416,409.6621 Q332.9004,409.6621 331.6973,409.0371 Q330.7129,408.5371 330.0254,407.4746 Q329.3379,406.3965 329.3379,405.1152 L329.3379,403.959 Q329.3379,402.6309 329.9473,401.4902 Q330.5723,400.334 331.666,399.7246 Q332.7598,399.0996 333.9941,399.0996 Q334.7285,399.0996 335.3691,399.2715 Q336.0254,399.4277 336.5723,399.7871 Z " fill="#000000"/><text fill="#000000" font-family="sans-serif" font-size="12" font-style="italic" lengthAdjust="spacing" textLength="30.0176" x="359.1392" y="399.5703">&#171;ER&#187;</text><text fill="#000000" font-family="sans-serif" font-size="14" lengthAdjust="spacing" textLength="39.6826" x="354.3066" y="417.6895">Figure</text><line style="stroke:#000000;stroke-width:1.0;" x1="246.5" x2="469.2959" y1="426.2031" y2="426.2031"/><text fill="#000000" font-family="sans-serif" font-size="14" lengthAdjust="spacing" textLength="165.7441" x="251.5" y="445.3105">-description: Description_3</text><text fill="#000000" font-family="sans-serif" font-size="14" lengthAdjust="spacing" textLength="122.9443" x="251.5" y="463.9316">-category: Category</text><text fill="#000000" font-family="sans-serif" font-size="14" lengthAdjust="spacing" textLength="70.0273" x="251.5" y="482.5527">-type: Type</text><text fill="#000000" font-family="sans-serif" font-size="14" lengthAdjust="spacing" textLength="178.9443" x="251.5" y="501.1738">-exclusivity: Set&lt;Exclusivity&gt;</text><text fill="#000000" font-family="sans-serif" font-size="14" lengthAdjust="spacing" textLength="200.3682" x="251.5" y="542.416">+getDescription(): Description_3</text><text fill="#000000" font-family="sans-serif" font-size="14" lengthAdjust="spacing" textLength="158.3545" x="251.5" y="561.0371">+getCategory(): Category</text><text fill="#000000" font-family="sans-serif" font-size="14" lengthAdjust="spacing" textLength="106.9893" x="251.5" y="579.6582">+getType(): Type</text><text fill="#000000" font-family="sans-serif" font-size="14" lengthAdjust="spacing" textLength="212.7959" x="251.5" y="598.2793">+getExclusivity(): Set&lt;Exclusivity&gt;</text><text fill="#000000" font-family="sans-serif" font-size="14" lengthAdjust="spacing" textLength="123.3477" x="251.5" y="616.9004">+isPublic(): boolean</text><text fill="#000000" font-family="sans-serif" font-size="14" lengthAdjust="spacing" textLength="123.3408" x="251.5" y="635.5215">+isActive(): boolean</text><line style="stroke:#000000;stroke-width:1.0;" x1="246.5" x2="331.0498" y1="517.998" y2="517.998"/><text fill="#000000" font-family="sans-serif" font-size="14" lengthAdjust="spacing" textLength="53.6963" x="331.0498" y="523.2949">Methods</text><line style="stroke:#000000;stroke-width:1.0;" x1="384.7461" x2="469.2959" y1="517.998" y2="517.998"/></g><!--class Category--><g id="elem_Category"><rect codeLine="55" fill="#D3D3D3" height="97.8242" id="Category" rx="2.5" ry="2.5" style="stroke:#000000;stroke-width:1.0;" width="154.0098" x="7" y="721.6211"/><ellipse cx="51.3516" cy="743.9121" fill="#ADD1B2" rx="11" ry="11" style="stroke:#181818;stroke-width:1.0;"/><path d="M54.1172,739.7871 Q54.2734,739.5684 54.4609,739.459 Q54.6484,739.3496 54.8672,739.3496 Q55.2422,739.3496 55.4766,739.6152 Q55.7109,739.8652 55.7109,740.4746 L55.7109,741.9277 Q55.7109,742.5371 55.4766,742.8027 Q55.2422,743.0684 54.8672,743.0684 Q54.5234,743.0684 54.3203,742.8652 Q54.1172,742.6777 54.0078,742.1621 Q53.9609,741.8027 53.7734,741.6152 Q53.4453,741.2402 52.8359,741.0215 Q52.2266,740.8027 51.6016,740.8027 Q50.8359,740.8027 50.1953,741.1309 Q49.5703,741.459 49.0703,742.209 Q48.5859,742.959 48.5859,743.9902 L48.5859,745.084 Q48.5859,746.3184 49.4766,747.1465 Q50.3672,747.959 51.9609,747.959 Q52.8984,747.959 53.5547,747.709 Q53.9453,747.5527 54.3672,747.1152 Q54.6328,746.8496 54.7734,746.7715 Q54.9297,746.6934 55.1328,746.6934 Q55.4609,746.6934 55.7109,746.959 Q55.9766,747.209 55.9766,747.5527 Q55.9766,747.8965 55.6328,748.3027 Q55.1328,748.8809 54.3359,749.209 Q53.2578,749.6621 51.9609,749.6621 Q50.4453,749.6621 49.2422,749.0371 Q48.2578,748.5371 47.5703,747.4746 Q46.8828,746.3965 46.8828,745.1152 L46.8828,743.959 Q46.8828,742.6309 47.4922,741.4902 Q48.1172,740.334 49.2109,739.7246 Q50.3047,739.0996 51.5391,739.0996 Q52.2734,739.0996 52.9141,739.2715 Q53.5703,739.4277 54.1172,739.7871 Z " fill="#000000"/><text fill="#000000" font-family="sans-serif" font-size="12" font-style="italic" lengthAdjust="spacing" textLength="30.6855" x="84.9121" y="739.5703">&#171;VO&#187;</text><text fill="#000000" font-family="sans-serif" font-size="14" lengthAdjust="spacing" textLength="56.8066" x="71.8516" y="757.6895">Category</text><line style="stroke:#000000;stroke-width:1.0;" x1="8" x2="160.0098" y1="766.2031" y2="766.2031"/><text fill="#000000" font-family="sans-serif" font-size="14" lengthAdjust="spacing" textLength="109.71" x="13" y="785.3105">-Category : String</text><line style="stroke:#000000;stroke-width:1.0;" x1="8" x2="160.0098" y1="792.8242" y2="792.8242"/><text fill="#000000" font-family="sans-serif" font-size="14" lengthAdjust="spacing" textLength="142.0098" x="13" y="811.9316">+getCategory() : String</text></g><!--class Description--><g id="elem_Description"><rect codeLine="60" fill="#D3D3D3" height="97.8242" id="Description" rx="2.5" ry="2.5" style="stroke:#000000;stroke-width:1.0;" width="167.2305" x="196.5" y="721.6211"/><ellipse cx="240.8516" cy="743.9121" fill="#ADD1B2" rx="11" ry="11" style="stroke:#181818;stroke-width:1.0;"/><path d="M243.6172,739.7871 Q243.7734,739.5684 243.9609,739.459 Q244.1484,739.3496 244.3672,739.3496 Q244.7422,739.3496 244.9766,739.6152 Q245.2109,739.8652 245.2109,740.4746 L245.2109,741.9277 Q245.2109,742.5371 244.9766,742.8027 Q244.7422,743.0684 244.3672,743.0684 Q244.0234,743.0684 243.8203,742.8652 Q243.6172,742.6777 243.5078,742.1621 Q243.4609,741.8027 243.2734,741.6152 Q242.9453,741.2402 242.3359,741.0215 Q241.7266,740.8027 241.1016,740.8027 Q240.3359,740.8027 239.6953,741.1309 Q239.0703,741.459 238.5703,742.209 Q238.0859,742.959 238.0859,743.9902 L238.0859,745.084 Q238.0859,746.3184 238.9766,747.1465 Q239.8672,747.959 241.4609,747.959 Q242.3984,747.959 243.0547,747.709 Q243.4453,747.5527 243.8672,747.1152 Q244.1328,746.8496 244.2734,746.7715 Q244.4297,746.6934 244.6328,746.6934 Q244.9609,746.6934 245.2109,746.959 Q245.4766,747.209 245.4766,747.5527 Q245.4766,747.8965 245.1328,748.3027 Q244.6328,748.8809 243.8359,749.209 Q242.7578,749.6621 241.4609,749.6621 Q239.9453,749.6621 238.7422,749.0371 Q237.7578,748.5371 237.0703,747.4746 Q236.3828,746.3965 236.3828,745.1152 L236.3828,743.959 Q236.3828,742.6309 236.9922,741.4902 Q237.6172,740.334 238.7109,739.7246 Q239.8047,739.0996 241.0391,739.0996 Q241.7734,739.0996 242.4141,739.2715 Q243.0703,739.4277 243.6172,739.7871 Z " fill="#000000"/><text fill="#000000" font-family="sans-serif" font-size="12" font-style="italic" lengthAdjust="spacing" textLength="30.6855" x="281.0225" y="739.5703">&#171;VO&#187;</text><text fill="#000000" font-family="sans-serif" font-size="14" lengthAdjust="spacing" textLength="70.0273" x="261.3516" y="757.6895">Description</text><line style="stroke:#000000;stroke-width:1.0;" x1="197.5" x2="362.7305" y1="766.2031" y2="766.2031"/><text fill="#000000" font-family="sans-serif" font-size="14" lengthAdjust="spacing" textLength="122.9307" x="202.5" y="785.3105">-Description : String</text><line style="stroke:#000000;stroke-width:1.0;" x1="197.5" x2="362.7305" y1="792.8242" y2="792.8242"/><text fill="#000000" font-family="sans-serif" font-size="14" lengthAdjust="spacing" textLength="155.2305" x="202.5" y="811.9316">+getDescription() : String</text></g><!--class Type--><g id="elem_Type"><rect codeLine="65" fill="#D3D3D3" height="97.8242" id="Type" rx="2.5" ry="2.5" style="stroke:#000000;stroke-width:1.0;" width="76.5586" x="398.5" y="721.6211"/><ellipse cx="419.5456" cy="743.9121" fill="#EB937F" rx="11" ry="11" style="stroke:#181818;stroke-width:1.0;"/><path d="M418.4049,744.709 L418.4049,747.209 L422.7331,747.209 L422.7331,746.2871 Q422.7331,745.6777 422.9674,745.4121 Q423.2174,745.1465 423.5924,745.1465 Q423.9674,745.1465 424.2018,745.4121 Q424.4362,745.6777 424.4362,746.2871 L424.4362,748.9121 L416.4362,748.9121 Q415.8112,748.9121 415.5456,748.6777 Q415.2956,748.4434 415.2956,748.0527 Q415.2956,747.6777 415.5612,747.4434 Q415.8268,747.209 416.4362,747.209 L416.7018,747.209 L416.7018,740.5527 L416.4362,740.5527 Q415.8112,740.5527 415.5456,740.3184 Q415.2956,740.084 415.2956,739.6934 Q415.2956,739.3184 415.5456,739.084 Q415.8112,738.8496 416.4362,738.8496 L424.0612,738.8496 L424.0612,741.4434 Q424.0612,742.0527 423.8268,742.3184 Q423.6081,742.5684 423.2174,742.5684 Q422.8424,742.5684 422.6081,742.3184 Q422.3737,742.0527 422.3737,741.4434 L422.3737,740.5527 L418.4049,740.5527 L418.4049,743.0059 L419.8893,743.0059 Q419.8893,742.3496 420.0143,742.1621 Q420.2799,741.7559 420.7487,741.7559 Q421.1237,741.7559 421.3581,742.0215 Q421.5924,742.2715 421.5924,742.8809 L421.5924,744.8496 Q421.5924,745.3965 421.4674,745.584 Q421.2018,745.9746 420.7487,745.9746 Q420.2799,745.9746 420.0143,745.5684 Q419.8893,745.3809 419.8893,744.709 L418.4049,744.709 Z " fill="#000000"/><text fill="#000000" font-family="sans-serif" font-size="12" font-style="italic" lengthAdjust="spacing" textLength="30.6855" x="435.1083" y="739.5703">&#171;VO&#187;</text><text fill="#000000" font-family="sans-serif" font-size="14" lengthAdjust="spacing" textLength="31.124" x="434.889" y="757.6895">Type</text><line style="stroke:#000000;stroke-width:1.0;" x1="399.5" x2="474.0586" y1="766.2031" y2="766.2031"/><text fill="#000000" font-family="sans-serif" font-size="14" lengthAdjust="spacing" textLength="49.7793" x="404.5" y="785.3105">STATIC</text><text fill="#000000" font-family="sans-serif" font-size="14" lengthAdjust="spacing" textLength="64.5586" x="404.5" y="803.9316">DYNAMIC</text><line style="stroke:#000000;stroke-width:1.0;" x1="399.5" x2="474.0586" y1="811.4453" y2="811.4453"/></g><!--class Exclusivity--><g id="elem_Exclusivity"><rect codeLine="70" fill="#D3D3D3" height="97.8242" id="Exclusivity" rx="2.5" ry="2.5" style="stroke:#000000;stroke-width:1.0;" width="135.3408" x="510.5" y="721.6211"/><ellipse cx="542.5982" cy="743.9121" fill="#ADD1B2" rx="11" ry="11" style="stroke:#181818;stroke-width:1.0;"/><path d="M545.3639,739.7871 Q545.5201,739.5684 545.7076,739.459 Q545.8951,739.3496 546.1139,739.3496 Q546.4889,739.3496 546.7232,739.6152 Q546.9576,739.8652 546.9576,740.4746 L546.9576,741.9277 Q546.9576,742.5371 546.7232,742.8027 Q546.4889,743.0684 546.1139,743.0684 Q545.7701,743.0684 545.567,742.8652 Q545.3639,742.6777 545.2545,742.1621 Q545.2076,741.8027 545.0201,741.6152 Q544.692,741.2402 544.0826,741.0215 Q543.4732,740.8027 542.8482,740.8027 Q542.0826,740.8027 541.442,741.1309 Q540.817,741.459 540.317,742.209 Q539.8326,742.959 539.8326,743.9902 L539.8326,745.084 Q539.8326,746.3184 540.7232,747.1465 Q541.6139,747.959 543.2076,747.959 Q544.1451,747.959 544.8014,747.709 Q545.192,747.5527 545.6139,747.1152 Q545.8795,746.8496 546.0201,746.7715 Q546.1764,746.6934 546.3795,746.6934 Q546.7076,746.6934 546.9576,746.959 Q547.2232,747.209 547.2232,747.5527 Q547.2232,747.8965 546.8795,748.3027 Q546.3795,748.8809 545.5826,749.209 Q544.5045,749.6621 543.2076,749.6621 Q541.692,749.6621 540.4889,749.0371 Q539.5045,748.5371 538.817,747.4746 Q538.1295,746.3965 538.1295,745.1152 L538.1295,743.959 Q538.1295,742.6309 538.7389,741.4902 Q539.3639,740.334 540.4576,739.7246 Q541.5514,739.0996 542.7857,739.0996 Q543.5201,739.0996 544.1607,739.2715 Q544.817,739.4277 545.3639,739.7871 Z " fill="#000000"/><text fill="#000000" font-family="sans-serif" font-size="12" font-style="italic" lengthAdjust="spacing" textLength="30.6855" x="577.7274" y="739.5703">&#171;VO&#187;</text><text fill="#000000" font-family="sans-serif" font-size="14" lengthAdjust="spacing" textLength="65.3447" x="560.3979" y="757.6895">Exclusivity</text><line style="stroke:#000000;stroke-width:1.0;" x1="511.5" x2="644.8408" y1="766.2031" y2="766.2031"/><text fill="#000000" font-family="sans-serif" font-size="14" lengthAdjust="spacing" textLength="91.8271" x="516.5" y="785.3105">-period: Period</text><line style="stroke:#000000;stroke-width:1.0;" x1="511.5" x2="644.8408" y1="792.8242" y2="792.8242"/><text fill="#000000" font-family="sans-serif" font-size="14" lengthAdjust="spacing" textLength="123.3408" x="516.5" y="811.9316">+isActive(): boolean</text></g><!--class Period--><g id="elem_Period"><rect codeLine="75" fill="#D3D3D3" height="116.4453" id="Period" rx="2.5" ry="2.5" style="stroke:#000000;stroke-width:1.0;" width="168.8232" x="493.5" y="898.6211"/><ellipse cx="553.4272" cy="920.9121" fill="#ADD1B2" rx="11" ry="11" style="stroke:#181818;stroke-width:1.0;"/><path d="M556.1929,916.7871 Q556.3491,916.5684 556.5366,916.459 Q556.7241,916.3496 556.9429,916.3496 Q557.3179,916.3496 557.5522,916.6152 Q557.7866,916.8652 557.7866,917.4746 L557.7866,918.9277 Q557.7866,919.5371 557.5522,919.8027 Q557.3179,920.0684 556.9429,920.0684 Q556.5991,920.0684 556.396,919.8652 Q556.1929,919.6777 556.0835,919.1621 Q556.0366,918.8027 555.8491,918.6152 Q555.521,918.2402 554.9116,918.0215 Q554.3022,917.8027 553.6772,917.8027 Q552.9116,917.8027 552.271,918.1309 Q551.646,918.459 551.146,919.209 Q550.6616,919.959 550.6616,920.9902 L550.6616,922.084 Q550.6616,923.3184 551.5522,924.1465 Q552.4429,924.959 554.0366,924.959 Q554.9741,924.959 555.6304,924.709 Q556.021,924.5527 556.4429,924.1152 Q556.7085,923.8496 556.8491,923.7715 Q557.0054,923.6934 557.2085,923.6934 Q557.5366,923.6934 557.7866,923.959 Q558.0522,924.209 558.0522,924.5527 Q558.0522,924.8965 557.7085,925.3027 Q557.2085,925.8809 556.4116,926.209 Q555.3335,926.6621 554.0366,926.6621 Q552.521,926.6621 551.3179,926.0371 Q550.3335,925.5371 549.646,924.4746 Q548.9585,923.3965 548.9585,922.1152 L548.9585,920.959 Q548.9585,919.6309 549.5679,918.4902 Q550.1929,917.334 551.2866,916.7246 Q552.3804,916.0996 553.6147,916.0996 Q554.3491,916.0996 554.9897,916.2715 Q555.646,916.4277 556.1929,916.7871 Z " fill="#000000"/><text fill="#000000" font-family="sans-serif" font-size="12" font-style="italic" lengthAdjust="spacing" textLength="30.6855" x="578.8188" y="916.5703">&#171;VO&#187;</text><text fill="#000000" font-family="sans-serif" font-size="14" lengthAdjust="spacing" textLength="40.4688" x="573.9272" y="934.6895">Period</text><line style="stroke:#000000;stroke-width:1.0;" x1="494.5" x2="661.3232" y1="943.2031" y2="943.2031"/><text fill="#000000" font-family="sans-serif" font-size="14" lengthAdjust="spacing" textLength="112.041" x="499.5" y="962.3105">-StartDate : String</text><text fill="#000000" font-family="sans-serif" font-size="14" lengthAdjust="spacing" textLength="107.3857" x="499.5" y="980.9316">-EndDate : String</text><line style="stroke:#000000;stroke-width:1.0;" x1="494.5" x2="661.3232" y1="988.4453" y2="988.4453"/><text fill="#000000" font-family="sans-serif" font-size="14" lengthAdjust="spacing" textLength="156.8232" x="499.5" y="1007.5527">+contains(Date): boolean</text></g><!--class FigureListDTO--><g id="elem_FigureListDTO"><rect codeLine="81" fill="#D3D3D3" height="135.0664" id="FigureListDTO" rx="2.5" ry="2.5" style="stroke:#000000;stroke-width:1.0;" width="185.127" x="505.5" y="444.6211"/><ellipse cx="548.4479" cy="466.9121" fill="#ADD1B2" rx="11" ry="11" style="stroke:#181818;stroke-width:1.0;"/><path d="M551.2135,462.7871 Q551.3698,462.5684 551.5573,462.459 Q551.7448,462.3496 551.9635,462.3496 Q552.3385,462.3496 552.5729,462.6152 Q552.8073,462.8652 552.8073,463.4746 L552.8073,464.9277 Q552.8073,465.5371 552.5729,465.8027 Q552.3385,466.0684 551.9635,466.0684 Q551.6198,466.0684 551.4167,465.8652 Q551.2135,465.6777 551.1042,465.1621 Q551.0573,464.8027 550.8698,464.6152 Q550.5417,464.2402 549.9323,464.0215 Q549.3229,463.8027 548.6979,463.8027 Q547.9323,463.8027 547.2917,464.1309 Q546.6667,464.459 546.1667,465.209 Q545.6823,465.959 545.6823,466.9902 L545.6823,468.084 Q545.6823,469.3184 546.5729,470.1465 Q547.4635,470.959 549.0573,470.959 Q549.9948,470.959 550.651,470.709 Q551.0417,470.5527 551.4635,470.1152 Q551.7292,469.8496 551.8698,469.7715 Q552.026,469.6934 552.2292,469.6934 Q552.5573,469.6934 552.8073,469.959 Q553.0729,470.209 553.0729,470.5527 Q553.0729,470.8965 552.7292,471.3027 Q552.2292,471.8809 551.4323,472.209 Q550.3542,472.6621 549.0573,472.6621 Q547.5417,472.6621 546.3385,472.0371 Q545.3542,471.5371 544.6667,470.4746 Q543.9792,469.3965 543.9792,468.1152 L543.9792,466.959 Q543.9792,465.6309 544.5885,464.4902 Q545.2135,463.334 546.3073,462.7246 Q547.401,462.0996 548.6354,462.0996 Q549.3698,462.0996 550.0104,462.2715 Q550.6667,462.4277 551.2135,462.7871 Z " fill="#000000"/><text fill="#000000" font-family="sans-serif" font-size="12" font-style="italic" lengthAdjust="spacing" textLength="38.6777" x="594.8299" y="462.5703">&#171;DTO&#187;</text><text fill="#000000" font-family="sans-serif" font-size="14" lengthAdjust="spacing" textLength="91.0205" x="568.6585" y="480.6895">FigureListDTO</text><line style="stroke:#000000;stroke-width:1.0;" x1="506.5" x2="689.627" y1="489.2031" y2="489.2031"/><text fill="#000000" font-family="sans-serif" font-size="14" lengthAdjust="spacing" textLength="99.2236" x="511.5" y="508.3105">+figureId: String</text><text fill="#000000" font-family="sans-serif" font-size="14" lengthAdjust="spacing" textLength="173.127" x="511.5" y="526.9316">+nameOrDescription: String</text><text fill="#000000" font-family="sans-serif" font-size="14" lengthAdjust="spacing" textLength="143.5684" x="511.5" y="545.5527">+categoryName: String</text><text fill="#000000" font-family="sans-serif" font-size="14" lengthAdjust="spacing" textLength="118.6719" x="511.5" y="564.1738">+figureType: String</text><line style="stroke:#000000;stroke-width:1.0;" x1="506.5" x2="689.627" y1="571.6875" y2="571.6875"/></g><!--link FigureListUI to FigureListController--><g id="link_FigureListUI_FigureListController"><path codeLine="90" d="M307.38,95.6211 C331.63,95.6211 351.87,95.6211 377.34,95.6211 " fill="none" id="FigureListUI-to-FigureListController" style="stroke:#000000;stroke-width:1.0;"/><polygon fill="#000000" points="383.34,95.6211,374.34,91.6211,378.34,95.6211,374.34,99.6211,383.34,95.6211" style="stroke:#000000;stroke-width:1.0;"/><polygon fill="#000000" points="334.25,83.2666,325.2049,80.3277,325.2049,86.2055,334.25,83.2666" style="stroke:#000000;stroke-width:1.0;"/><text fill="#000000" font-family="sans-serif" font-size="13" lengthAdjust="spacing" textLength="27.46" x="338.25" y="88.6494">uses</text><text fill="#000000" font-family="sans-serif" font-size="13" lengthAdjust="spacing" textLength="7.23" x="315.1574" y="92.027">1</text><text fill="#000000" font-family="sans-serif" font-size="13" lengthAdjust="spacing" textLength="7.23" x="368.3098" y="92.1715">1</text></g><!--link FigureListController to FigureRepository--><g id="link_FigureListController_FigureRepository"><path codeLine="91" d="M478.71,144.9311 C457.87,169.9311 436.6119,195.4224 417.0719,218.8624 " fill="none" id="FigureListController-to-FigureRepository" style="stroke:#000000;stroke-width:1.0;stroke-dasharray:7.0,7.0;"/><polygon fill="#000000" points="413.23,223.4711,422.0653,219.1193,416.4316,219.6305,415.9204,213.9968,413.23,223.4711" style="stroke:#000000;stroke-width:1.0;"/><polygon fill="#000000" points="451.7982,188.107,459.8476,183.0416,455.333,179.2777,451.7982,188.107" style="stroke:#000000;stroke-width:1.0;"/><text fill="#000000" font-family="sans-serif" font-size="13" lengthAdjust="spacing" textLength="67.1963" x="464" y="189.6494">repositories</text><text fill="#000000" font-family="sans-serif" font-size="13" lengthAdjust="spacing" textLength="7.23" x="466.1325" y="166.3962">1</text><text fill="#000000" font-family="sans-serif" font-size="13" lengthAdjust="spacing" textLength="7.23" x="411.1621" y="212.2312">1</text></g><!--link FigureListController to FigureListDTO--><g id="link_FigureListController_FigureListDTO"><path codeLine="92" d="M531.94,144.6911 C536.26,160.7411 540,174.6211 540,174.6211 C540,174.6211 568.5412,340.1882 585.4512,438.3282 " fill="none" id="FigureListController-to-FigureListDTO" style="stroke:#000000;stroke-width:1.0;stroke-dasharray:7.0,7.0;"/><polygon fill="#000000" points="586.47,444.2411,588.8837,434.6926,585.621,439.3137,580.9999,436.051,586.47,444.2411" style="stroke:#000000;stroke-width:1.0;"/><polygon fill="#000000" points="567.8964,268.1856,569.1661,258.7602,563.3835,259.814,567.8964,268.1856" style="stroke:#000000;stroke-width:1.0;"/><text fill="#000000" font-family="sans-serif" font-size="13" lengthAdjust="spacing" textLength="42.6309" x="576" y="268.6494">creates</text><text fill="#000000" font-family="sans-serif" font-size="13" lengthAdjust="spacing" textLength="7.23" x="526.2432" y="166.4867">1</text><text fill="#000000" font-family="sans-serif" font-size="13" lengthAdjust="spacing" textLength="19.5127" x="565.3212" y="433.4043">0..*</text></g><!--link FigureRepository to Figure--><g id="link_FigureRepository_Figure"><path codeLine="93" d="M377.41,302.7111 C375.39,324.3511 373.3076,346.7671 370.6176,375.5871 " fill="none" id="FigureRepository-to-Figure" style="stroke:#000000;stroke-width:1.0;stroke-dasharray:7.0,7.0;"/><polygon fill="#000000" points="370.06,381.5611,374.8791,372.9718,370.5247,376.5827,366.9137,372.2283,370.06,381.5611" style="stroke:#000000;stroke-width:1.0;"/><polygon fill="#000000" points="379.536,347.245,383.3016,338.5117,377.4492,337.9662,379.536,347.245" style="stroke:#000000;stroke-width:1.0;"/><text fill="#000000" font-family="sans-serif" font-size="13" lengthAdjust="spacing" textLength="53.479" x="389" y="347.6494">manages</text><text fill="#000000" font-family="sans-serif" font-size="13" lengthAdjust="spacing" textLength="7.23" x="369.23" y="324.7116">1</text><text fill="#000000" font-family="sans-serif" font-size="13" lengthAdjust="spacing" textLength="19.5127" x="351.2287" y="370.5465">0..*</text></g><!--link Figure to Description--><g id="link_Figure_Description"><path codeLine="95" d="M318.54,642.8711 C310,670.9611 303.2351,693.2005 296.3951,715.7005 " fill="none" id="Figure-to-Description" style="stroke:#000000;stroke-width:1.0;"/><polygon fill="#000000" points="294.65,721.4411,301.0948,713.9936,296.1043,716.6573,293.4406,711.6668,294.65,721.4411" style="stroke:#000000;stroke-width:1.0;"/><polygon fill="#000000" points="311.5454,687.0503,316.9886,679.2514,311.365,677.5415,311.5454,687.0503" style="stroke:#000000;stroke-width:1.0;"/><text fill="#000000" font-family="sans-serif" font-size="13" lengthAdjust="spacing" textLength="20.96" x="322" y="687.6494">has</text><text fill="#000000" font-family="sans-serif" font-size="13" lengthAdjust="spacing" textLength="7.23" x="309.0689" y="664.9462">1</text><text fill="#000000" font-family="sans-serif" font-size="13" lengthAdjust="spacing" textLength="7.23" x="289.2179" y="710.391">1</text></g><!--link Figure to Category--><g id="link_Figure_Category"><path codeLine="96" d="M245.37,618.5611 C207.29,654.2111 170.9903,688.1907 140.0003,717.2007 " fill="none" id="Figure-to-Category" style="stroke:#000000;stroke-width:1.0;"/><polygon fill="#000000" points="135.62,721.3011,144.924,718.0707,139.2702,717.8841,139.4568,712.2303,135.62,721.3011" style="stroke:#000000;stroke-width:1.0;"/><polygon fill="#000000" points="182.3498,685.6836,190.9615,681.6477,186.9446,677.3566,182.3498,685.6836" style="stroke:#000000;stroke-width:1.0;"/><text fill="#000000" font-family="sans-serif" font-size="13" lengthAdjust="spacing" textLength="20.96" x="195" y="687.6494">has</text><text fill="#000000" font-family="sans-serif" font-size="13" lengthAdjust="spacing" textLength="7.23" x="230.2199" y="622.4715">1</text><text fill="#000000" font-family="sans-serif" font-size="13" lengthAdjust="spacing" textLength="7.23" x="135.4024" y="710.2313">1</text></g><!--link Figure to Type--><g id="link_Figure_Type"><path codeLine="97" d="M397.96,642.8711 C406.61,670.9611 413.4639,693.2069 420.3939,715.7069 " fill="none" id="Figure-to-Type" style="stroke:#000000;stroke-width:1.0;"/><polygon fill="#000000" points="422.16,721.4411,423.3336,711.6624,420.6882,716.6626,415.688,714.0172,422.16,721.4411" style="stroke:#000000;stroke-width:1.0;"/><polygon fill="#000000" points="418.4718,687.0451,418.618,677.5356,413.0006,679.2658,418.4718,687.0451" style="stroke:#000000;stroke-width:1.0;"/><text fill="#000000" font-family="sans-serif" font-size="13" lengthAdjust="spacing" textLength="20.96" x="426" y="687.6494">has</text><text fill="#000000" font-family="sans-serif" font-size="13" lengthAdjust="spacing" textLength="7.23" x="393.0804" y="664.9462">1</text><text fill="#000000" font-family="sans-serif" font-size="13" lengthAdjust="spacing" textLength="7.23" x="412.6281" y="710.391">1</text></g><!--link Figure to Exclusivity--><g id="link_Figure_Exclusivity"><path codeLine="98" d="M469.29,642.8711 C493.38,670.9611 513.4736,694.387 532.7736,716.887 " fill="none" id="Figure-to-Exclusivity" style="stroke:#000000;stroke-width:1.0;"/><polygon fill="#000000" points="536.68,721.4411,533.8565,712.0057,533.4247,717.646,527.7843,717.2142,536.68,721.4411" style="stroke:#000000;stroke-width:1.0;"/><polygon fill="#000000" points="515.2552,686.0618,511.5973,677.2828,507.1357,681.1095,515.2552,686.0618" style="stroke:#000000;stroke-width:1.0;"/><text fill="#000000" font-family="sans-serif" font-size="13" lengthAdjust="spacing" textLength="20.96" x="521" y="687.6494">has</text><text fill="#000000" font-family="sans-serif" font-size="13" lengthAdjust="spacing" textLength="7.23" x="468.5342" y="664.9462">1</text><text fill="#000000" font-family="sans-serif" font-size="13" lengthAdjust="spacing" textLength="19.5127" x="510.5455" y="710.391">0..*</text></g><!--link Exclusivity to Period--><g id="link_Exclusivity_Period"><path codeLine="99" d="M578,819.9611 C578,844.0311 578,867.2811 578,892.4511 " fill="none" id="Exclusivity-to-Period" style="stroke:#000000;stroke-width:1.0;"/><polygon fill="#000000" points="578,898.4511,582,889.4511,578,893.4511,574,889.4511,578,898.4511" style="stroke:#000000;stroke-width:1.0;"/><polygon fill="#000000" points="583,864.2666,585.9389,855.2215,580.0611,855.2215,583,864.2666" style="stroke:#000000;stroke-width:1.0;"/><text fill="#000000" font-family="sans-serif" font-size="13" lengthAdjust="spacing" textLength="42.6372" x="592" y="864.6494">periods</text><text fill="#000000" font-family="sans-serif" font-size="13" lengthAdjust="spacing" textLength="7.23" x="570.5445" y="841.4301">1</text><text fill="#000000" font-family="sans-serif" font-size="13" lengthAdjust="spacing" textLength="7.23" x="570.5982" y="887.3446">1</text></g><!--SRC=[ZLNVRzem47xFNs7rPTqGg5tV8XI9GbSXhMK2EgbFaqckuLHZHxQ1iMd_-yvEI9n0k_40yVtulk_ETy6Y5S36WXl39iXppJSnUrfylhbcVVOLZMNVjYk1AVk2-LQ3YQB8lA8iE0MoWgUlF8U5FH26XjHocGi80ioQPsgFCcSlN9ZG8r22FHJ02YKExX3YfaxEo5gDgws5QQha0dy1kpg9ORyZHfzRqf5hjPNPM0cbINU-jlSQ3juxqbhjIyUjeCWoHUaCz7dhSetfgmI2lux-19HIMNYFyHc4KFiJ-7lD3oqSaDjDXVE6T2Koa5fb0M8BSgQfqp27Z72Zg6n5UK7kofwc5NgVKUkiLaA0ZeE0SMtrOJsMeIa4FvHNNTtqvKSMivr2pz6bQ13OSDWSagHcVl6nSoYKGQlquSZVM2hk76o7D_Q3DspO9ijPubIWjA1VU0edMAIYETGgUgH2PgCTHy5N0jwZIKuwIP1tyw2W34ogiR2ePCmcpU77pR7Nt4BkAnrNJvN3pNdCblHT6U1dAhO6TsWfU05sUDSOaZAcpnx0hbLcwB5fL43hz9-gy557UXVIakAzJeVpr7gyDL3Wd6T5zHYQieSkPAMK02vhpoYrk8FGKy_DKGIrzFiiQ6bj9q9QTfcVgw5nrdX1tLt8q7MAskfV2zZlf6j96v0jbgFbT5m-JvuVHmzqg7K47UhgA42ZocBspV_-JvFAo2xEmd9j9zICTZLzTYUpKtFFBpn7QIwTynnDQwk8pUrMk2_EEyqwg99lOAOduGQqMQlRUgIuZgj4NFeLQDeTVQ2vxhCv2ExWp1eBm_PerpGJEaF91Le4D_pzgFLYkxY-OFt4_vnz6yLiQoWlYSvwNTfW4AO7hv2O_iAg0_uBmc5S3GQVBZhzZ5cgWPhHf0S4DNkOIIaRBkbVrALKEMMLLPdjYLxp1heL5kpIcp5-lj_obwB2aJv6XhOGhfhOk1fsNq3q5m00]--></g></svg>