<svg xmlns="http://www.w3.org/2000/svg" xmlns:xlink="http://www.w3.org/1999/xlink" contentStyleType="text/css" height="583px" preserveAspectRatio="none" style="width:1032px;height:583px;background:#FFFFFF;" version="1.1" viewBox="0 0 1032 583" width="1032px" zoomAndPan="magnify"><title>Sequence Diagram: US231 - List Public Figures</title><defs/><g><text fill="#000000" font-family="sans-serif" font-size="14" font-weight="bold" lengthAdjust="spacing" textLength="315.0889" x="359.865" y="30.1074">Sequence Diagram: US231 - List Public Figures</text><rect fill="#FFFFFF" height="349.2012" style="stroke:#181818;stroke-width:1.0;" width="10" x="59.0171" y="133.2422"/><rect fill="#FFFFFF" height="325.9102" style="stroke:#181818;stroke-width:1.0;" width="10" x="272.9287" y="156.5332"/><rect fill="#FFFFFF" height="263.3281" style="stroke:#181818;stroke-width:1.0;" width="10" x="407.4141" y="187.8242"/><rect fill="#FFFFFF" height="200.7461" style="stroke:#181818;stroke-width:1.0;" width="10" x="606.8721" y="219.1152"/><rect fill="#FFFFFF" height="93.873" style="stroke:#181818;stroke-width:1.0;" width="10" x="797.001" y="250.4063"/><rect fill="#FFFFFF" height="31.291" style="stroke:#181818;stroke-width:1.0;" width="10" x="992.8535" y="281.6973"/><line style="stroke:#181818;stroke-width:0.5;stroke-dasharray:5.0,5.0;" x1="64" x2="64" y1="123.2422" y2="500.4434"/><line style="stroke:#181818;stroke-width:0.5;stroke-dasharray:5.0,5.0;" x1="277.1943" x2="277.1943" y1="123.2422" y2="500.4434"/><line style="stroke:#181818;stroke-width:0.5;stroke-dasharray:5.0,5.0;" x1="412.335" x2="412.335" y1="123.2422" y2="500.4434"/><line style="stroke:#181818;stroke-width:0.5;stroke-dasharray:5.0,5.0;" x1="611.4448" x2="611.4448" y1="123.2422" y2="500.4434"/><line style="stroke:#181818;stroke-width:0.5;stroke-dasharray:5.0,5.0;" x1="801.7012" x2="801.7012" y1="123.2422" y2="500.4434"/><line style="stroke:#181818;stroke-width:0.5;stroke-dasharray:5.0,5.0;" x1="996.8882" x2="996.8882" y1="123.2422" y2="500.4434"/><text fill="#000000" font-family="sans-serif" font-size="14" lengthAdjust="spacing" textLength="112.0342" x="5" y="119.7285">CRM Collaborator</text><ellipse cx="64.0171" cy="53.1211" fill="#E2E2F0" rx="8" ry="8" style="stroke:#181818;stroke-width:0.5;"/><path d="M64.0171,61.1211 L64.0171,88.1211 M51.0171,69.1211 L77.0171,69.1211 M64.0171,88.1211 L51.0171,103.1211 M64.0171,88.1211 L77.0171,103.1211 " fill="none" style="stroke:#181818;stroke-width:0.5;"/><text fill="#000000" font-family="sans-serif" font-size="14" lengthAdjust="spacing" textLength="112.0342" x="5" y="514.5508">CRM Collaborator</text><ellipse cx="64.0171" cy="526.5645" fill="#E2E2F0" rx="8" ry="8" style="stroke:#181818;stroke-width:0.5;"/><path d="M64.0171,534.5645 L64.0171,561.5645 M51.0171,542.5645 L77.0171,542.5645 M64.0171,561.5645 L51.0171,576.5645 M64.0171,561.5645 L77.0171,576.5645 " fill="none" style="stroke:#181818;stroke-width:0.5;"/><rect fill="#E2E2F0" height="32.6211" rx="2.5" ry="2.5" style="stroke:#181818;stroke-width:0.5;" width="89.4688" x="233.1943" y="89.6211"/><text fill="#000000" font-family="sans-serif" font-size="14" lengthAdjust="spacing" textLength="75.4688" x="240.1943" y="111.7285">FigureListUI</text><rect fill="#E2E2F0" height="32.6211" rx="2.5" ry="2.5" style="stroke:#181818;stroke-width:0.5;" width="89.4688" x="233.1943" y="499.4434"/><text fill="#000000" font-family="sans-serif" font-size="14" lengthAdjust="spacing" textLength="75.4688" x="240.1943" y="521.5508">FigureListUI</text><rect fill="#E2E2F0" height="32.6211" rx="2.5" ry="2.5" style="stroke:#181818;stroke-width:0.5;" width="136.1582" x="344.335" y="89.6211"/><text fill="#000000" font-family="sans-serif" font-size="14" lengthAdjust="spacing" textLength="122.1582" x="351.335" y="111.7285">FigureListController</text><rect fill="#E2E2F0" height="32.6211" rx="2.5" ry="2.5" style="stroke:#181818;stroke-width:0.5;" width="136.1582" x="344.335" y="499.4434"/><text fill="#000000" font-family="sans-serif" font-size="14" lengthAdjust="spacing" textLength="122.1582" x="351.335" y="521.5508">FigureListController</text><rect fill="#E2E2F0" height="32.6211" rx="2.5" ry="2.5" style="stroke:#181818;stroke-width:0.5;" width="168.8545" x="527.4448" y="89.6211"/><text fill="#000000" font-family="sans-serif" font-size="14" lengthAdjust="spacing" textLength="154.8545" x="534.4448" y="111.7285">FigureApplicationService</text><rect fill="#E2E2F0" height="32.6211" rx="2.5" ry="2.5" style="stroke:#181818;stroke-width:0.5;" width="168.8545" x="527.4448" y="499.4434"/><text fill="#000000" font-family="sans-serif" font-size="14" lengthAdjust="spacing" textLength="154.8545" x="534.4448" y="521.5508">FigureApplicationService</text><rect fill="#E2E2F0" height="32.6211" rx="2.5" ry="2.5" style="stroke:#181818;stroke-width:0.5;" width="120.5996" x="741.7012" y="89.6211"/><text fill="#000000" font-family="sans-serif" font-size="14" lengthAdjust="spacing" textLength="106.5996" x="748.7012" y="111.7285">FigureRepository</text><rect fill="#E2E2F0" height="32.6211" rx="2.5" ry="2.5" style="stroke:#181818;stroke-width:0.5;" width="120.5996" x="741.7012" y="499.4434"/><text fill="#000000" font-family="sans-serif" font-size="14" lengthAdjust="spacing" textLength="106.5996" x="748.7012" y="521.5508">FigureRepository</text><text fill="#000000" font-family="sans-serif" font-size="14" lengthAdjust="spacing" textLength="59.9307" x="964.8882" y="119.7285">Database</text><path d="M979.8535,68.6211 C979.8535,58.6211 997.8535,58.6211 997.8535,58.6211 C997.8535,58.6211 1015.8535,58.6211 1015.8535,68.6211 L1015.8535,94.6211 C1015.8535,104.6211 997.8535,104.6211 997.8535,104.6211 C997.8535,104.6211 979.8535,104.6211 979.8535,94.6211 L979.8535,68.6211 " fill="#E2E2F0" style="stroke:#181818;stroke-width:1.5;"/><path d="M979.8535,68.6211 C979.8535,78.6211 997.8535,78.6211 997.8535,78.6211 C997.8535,78.6211 1015.8535,78.6211 1015.8535,68.6211 " fill="none" style="stroke:#181818;stroke-width:1.5;"/><text fill="#000000" font-family="sans-serif" font-size="14" lengthAdjust="spacing" textLength="59.9307" x="964.8882" y="514.5508">Database</text><path d="M979.8535,528.0645 C979.8535,518.0645 997.8535,518.0645 997.8535,518.0645 C997.8535,518.0645 1015.8535,518.0645 1015.8535,528.0645 L1015.8535,554.0645 C1015.8535,564.0645 997.8535,564.0645 997.8535,564.0645 C997.8535,564.0645 979.8535,564.0645 979.8535,554.0645 L979.8535,528.0645 " fill="#E2E2F0" style="stroke:#181818;stroke-width:1.5;"/><path d="M979.8535,528.0645 C979.8535,538.0645 997.8535,538.0645 997.8535,538.0645 C997.8535,538.0645 1015.8535,538.0645 1015.8535,528.0645 " fill="none" style="stroke:#181818;stroke-width:1.5;"/><rect fill="#FFFFFF" height="349.2012" style="stroke:#181818;stroke-width:1.0;" width="10" x="59.0171" y="133.2422"/><rect fill="#FFFFFF" height="325.9102" style="stroke:#181818;stroke-width:1.0;" width="10" x="272.9287" y="156.5332"/><rect fill="#FFFFFF" height="263.3281" style="stroke:#181818;stroke-width:1.0;" width="10" x="407.4141" y="187.8242"/><rect fill="#FFFFFF" height="200.7461" style="stroke:#181818;stroke-width:1.0;" width="10" x="606.8721" y="219.1152"/><rect fill="#FFFFFF" height="93.873" style="stroke:#181818;stroke-width:1.0;" width="10" x="797.001" y="250.4063"/><rect fill="#FFFFFF" height="31.291" style="stroke:#181818;stroke-width:1.0;" width="10" x="992.8535" y="281.6973"/><polygon fill="#181818" points="260.9287,152.5332,270.9287,156.5332,260.9287,160.5332,264.9287,156.5332" style="stroke:#181818;stroke-width:1.0;"/><line style="stroke:#181818;stroke-width:1.0;" x1="69.0171" x2="266.9287" y1="156.5332" y2="156.5332"/><text fill="#000000" font-family="sans-serif" font-size="13" lengthAdjust="spacing" textLength="151.0044" x="76.0171" y="151.2705">requestsPublicFigureList()</text><polygon fill="#181818" points="395.4141,183.8242,405.4141,187.8242,395.4141,191.8242,399.4141,187.8242" style="stroke:#181818;stroke-width:1.0;"/><line style="stroke:#181818;stroke-width:1.0;" x1="282.9287" x2="401.4141" y1="187.8242" y2="187.8242"/><text fill="#000000" font-family="sans-serif" font-size="13" lengthAdjust="spacing" textLength="105.4854" x="289.9287" y="182.5615">getPublicFigures()</text><polygon fill="#181818" points="594.8721,215.1152,604.8721,219.1152,594.8721,223.1152,598.8721,219.1152" style="stroke:#181818;stroke-width:1.0;"/><line style="stroke:#181818;stroke-width:1.0;" x1="417.4141" x2="600.8721" y1="219.1152" y2="219.1152"/><text fill="#000000" font-family="sans-serif" font-size="13" lengthAdjust="spacing" textLength="103.3018" x="424.4141" y="213.8525">listPublicFigures()</text><polygon fill="#181818" points="785.001,246.4063,795.001,250.4063,785.001,254.4063,789.001,250.4063" style="stroke:#181818;stroke-width:1.0;"/><line style="stroke:#181818;stroke-width:1.0;" x1="616.8721" x2="791.001" y1="250.4063" y2="250.4063"/><text fill="#000000" font-family="sans-serif" font-size="13" lengthAdjust="spacing" textLength="161.1289" x="623.8721" y="245.1436">findAvailablePublicFigures()</text><polygon fill="#181818" points="980.8535,277.6973,990.8535,281.6973,980.8535,285.6973,984.8535,281.6973" style="stroke:#181818;stroke-width:1.0;"/><line style="stroke:#181818;stroke-width:1.0;" x1="807.001" x2="986.8535" y1="281.6973" y2="281.6973"/><text fill="#000000" font-family="sans-serif" font-size="13" lengthAdjust="spacing" textLength="109.0972" x="814.001" y="276.4346">Executes query(...)</text><polygon fill="#181818" points="818.001,308.9883,808.001,312.9883,818.001,316.9883,814.001,312.9883" style="stroke:#181818;stroke-width:1.0;"/><line style="stroke:#181818;stroke-width:1.0;stroke-dasharray:2.0,2.0;" x1="812.001" x2="996.8535" y1="312.9883" y2="312.9883"/><text fill="#000000" font-family="sans-serif" font-size="13" lengthAdjust="spacing" textLength="161.8525" x="824.001" y="307.7256">Returns Figure records/data</text><polygon fill="#181818" points="627.8721,340.2793,617.8721,344.2793,627.8721,348.2793,623.8721,344.2793" style="stroke:#181818;stroke-width:1.0;"/><line style="stroke:#181818;stroke-width:1.0;stroke-dasharray:2.0,2.0;" x1="621.8721" x2="801.001" y1="344.2793" y2="344.2793"/><text fill="#000000" font-family="sans-serif" font-size="13" lengthAdjust="spacing" textLength="118.5044" x="633.8721" y="339.0166">figures: List&lt;Figure&gt;</text><line style="stroke:#181818;stroke-width:1.0;" x1="616.8721" x2="658.8721" y1="375.5703" y2="375.5703"/><line style="stroke:#181818;stroke-width:1.0;" x1="658.8721" x2="658.8721" y1="375.5703" y2="388.5703"/><line style="stroke:#181818;stroke-width:1.0;" x1="617.8721" x2="658.8721" y1="388.5703" y2="388.5703"/><polygon fill="#181818" points="627.8721,384.5703,617.8721,388.5703,627.8721,392.5703,623.8721,388.5703" style="stroke:#181818;stroke-width:1.0;"/><text fill="#000000" font-family="sans-serif" font-size="13" lengthAdjust="spacing" textLength="119.9263" x="623.8721" y="370.3076">Map figures to DTOs</text><polygon fill="#181818" points="428.4141,415.8613,418.4141,419.8613,428.4141,423.8613,424.4141,419.8613" style="stroke:#181818;stroke-width:1.0;"/><line style="stroke:#181818;stroke-width:1.0;stroke-dasharray:2.0,2.0;" x1="422.4141" x2="610.8721" y1="419.8613" y2="419.8613"/><text fill="#000000" font-family="sans-serif" font-size="13" lengthAdjust="spacing" textLength="165.458" x="434.4141" y="414.5986">dtoList: List&lt;FigureListDTO&gt;</text><polygon fill="#181818" points="293.9287,447.1523,283.9287,451.1523,293.9287,455.1523,289.9287,451.1523" style="stroke:#181818;stroke-width:1.0;"/><line style="stroke:#181818;stroke-width:1.0;stroke-dasharray:2.0,2.0;" x1="287.9287" x2="411.4141" y1="451.1523" y2="451.1523"/><text fill="#000000" font-family="sans-serif" font-size="13" lengthAdjust="spacing" textLength="38.3018" x="299.9287" y="445.8896">dtoList</text><polygon fill="#181818" points="75.0171,478.4434,65.0171,482.4434,75.0171,486.4434,71.0171,482.4434" style="stroke:#181818;stroke-width:1.0;"/><line style="stroke:#181818;stroke-width:1.0;stroke-dasharray:2.0,2.0;" x1="69.0171" x2="276.9287" y1="482.4434" y2="482.4434"/><text fill="#000000" font-family="sans-serif" font-size="13" lengthAdjust="spacing" textLength="179.9116" x="81.0171" y="477.1807">displayPublicFigureList(dtoList)</text><!--SRC=[TPBFRi8m3CRlUGgBo-00qxORcf20RXBIq2R-F81f3OlKDLtYel7sSv9E3GmkLPpwzpcVxJlOQ2u9ziO2Vn8K6WyMlnI7spLzDrJb15cy7iDs_VZq04DuquxXezcLEeTNVMWiEL0ASnQTtdorXBafIzmPYtBJ0tImTMHLZPPrhcki67gHyqhRHKnPt4gOcugjA5BKwi9hmBIkvLd8sbHhiaUTKu3akWslGIkgZTFos5D8zg4ga767Zg2NjQVmBvi5f_g8JD6M_y1m8WPW3DOtpR6BtUayz0S9jL1AaWNfh0Xw84ufrny0T53YMYMOY7JMHAIKMXSgdKRI19LGek4T2xtNLJ4zefRXbNHJ9hGd449cC-5UVYXlMBP0pDjJVpGQ9UdICKaQTbLMn8sjNBiwqhBSsCBT-uQhWb8k5hdqk8zF6eSzV8ugavGC3xnmUAQmnFfF1TX0jdbtP-cNeodO-5fd5VrHmBF2QOFJ8RNRqSgaH3fMlnC-qyMQsjKbdlujKYioI5LaezB8R-Kl]--></g></svg>