<svg xmlns="http://www.w3.org/2000/svg" xmlns:xlink="http://www.w3.org/1999/xlink" contentStyleType="text/css" data-diagram-type="SEQUENCE" height="436px" preserveAspectRatio="none" style="width:1099px;height:436px;background:#FFFFFF;" version="1.1" viewBox="0 0 1099 436" width="1099px" zoomAndPan="magnify"><title>System Sequence Diagram: US230 - Register Show Request</title><defs/><g><text fill="#000000" font-family="sans-serif" font-size="14" font-weight="bold" lengthAdjust="spacing" textLength="472.0762" x="320.4805" y="27.9951">System Sequence Diagram: US230 - Register Show Request</text><g><title>CRM Collaborator</title><rect fill="#FFFFFF" height="208.9297" style="stroke:#181818;stroke-width:1;" width="10" x="64.1646" y="128.5938"/></g><g><title>:System</title><rect fill="#FFFFFF" height="29.1328" style="stroke:#181818;stroke-width:1;" width="10" x="827.5864" y="149.7266"/></g><g><title>:System</title><rect fill="#FFFFFF" height="29.1328" style="stroke:#181818;stroke-width:1;" width="10" x="827.5864" y="207.9922"/></g><g><title>:System</title><rect fill="#FFFFFF" height="71.2656" style="stroke:#181818;stroke-width:1;" width="10" x="827.5864" y="266.2578"/></g><g><title>CRM Collaborator</title><rect fill="transparent" height="236.9297" width="8" x="65.1646" y="118.5938"/><line style="stroke:#181818;stroke-width:0.5;stroke-dasharray:5.0,5.0;" x1="69" x2="69" y1="118.5938" y2="355.5234"/></g><g><title>:System</title><rect fill="transparent" height="236.9297" width="8" x="828.5864" y="118.5938"/><line style="stroke:#181818;stroke-width:0.5;stroke-dasharray:5.0,5.0;" x1="832.125" x2="832.125" y1="118.5938" y2="355.5234"/></g><text fill="#000000" font-family="sans-serif" font-size="14" lengthAdjust="spacing" textLength="122.3291" x="5" y="115.292">CRM Collaborator</text><ellipse cx="69.1646" cy="50.7969" fill="#E2E2F0" rx="8" ry="8" style="stroke:#181818;stroke-width:0.5;"/><path d="M69.1646,58.7969 L69.1646,85.7969 M56.1646,66.7969 L82.1646,66.7969 M69.1646,85.7969 L56.1646,100.7969 M69.1646,85.7969 L82.1646,100.7969 " fill="transparent" style="stroke:#181818;stroke-width:0.5;"/><text fill="#000000" font-family="sans-serif" font-size="14" lengthAdjust="spacing" textLength="122.3291" x="5" y="367.5186">CRM Collaborator</text><ellipse cx="69.1646" cy="379.3203" fill="#E2E2F0" rx="8" ry="8" style="stroke:#181818;stroke-width:0.5;"/><path d="M69.1646,387.3203 L69.1646,414.3203 M56.1646,395.3203 L82.1646,395.3203 M69.1646,414.3203 L56.1646,429.3203 M69.1646,414.3203 L82.1646,429.3203 " fill="transparent" style="stroke:#181818;stroke-width:0.5;"/><rect fill="#E2E2F0" height="30.2969" rx="2.5" ry="2.5" style="stroke:#181818;stroke-width:0.5;" width="70.9229" x="797.125" y="87.2969"/><text fill="#000000" font-family="sans-serif" font-size="14" lengthAdjust="spacing" textLength="56.9229" x="804.125" y="107.292">:System</text><rect fill="#E2E2F0" height="30.2969" rx="2.5" ry="2.5" style="stroke:#181818;stroke-width:0.5;" width="70.9229" x="797.125" y="354.5234"/><text fill="#000000" font-family="sans-serif" font-size="14" lengthAdjust="spacing" textLength="56.9229" x="804.125" y="374.5186">:System</text><g><title>CRM Collaborator</title><rect fill="#FFFFFF" height="208.9297" style="stroke:#181818;stroke-width:1;" width="10" x="64.1646" y="128.5938"/></g><g><title>:System</title><rect fill="#FFFFFF" height="29.1328" style="stroke:#181818;stroke-width:1;" width="10" x="827.5864" y="149.7266"/></g><g><title>:System</title><rect fill="#FFFFFF" height="29.1328" style="stroke:#181818;stroke-width:1;" width="10" x="827.5864" y="207.9922"/></g><g><title>:System</title><rect fill="#FFFFFF" height="71.2656" style="stroke:#181818;stroke-width:1;" width="10" x="827.5864" y="266.2578"/></g><polygon fill="#181818" points="815.5864,145.7266,825.5864,149.7266,815.5864,153.7266,819.5864,149.7266" style="stroke:#181818;stroke-width:1;"/><line style="stroke:#181818;stroke-width:1;" x1="74.1646" x2="821.5864" y1="149.7266" y2="149.7266"/><text fill="#000000" font-family="sans-serif" font-size="13" lengthAdjust="spacing" textLength="229.5947" x="81.1646" y="144.6606">initiatesShowRequestRegistration()</text><polygon fill="#181818" points="85.1646,174.8594,75.1646,178.8594,85.1646,182.8594,81.1646,178.8594" style="stroke:#181818;stroke-width:1;"/><line style="stroke:#181818;stroke-width:1;stroke-dasharray:2.0,2.0;" x1="79.1646" x2="831.5864" y1="178.8594" y2="178.8594"/><text fill="#000000" font-family="sans-serif" font-size="13" lengthAdjust="spacing" textLength="321.8325" x="91.1646" y="173.7935">requestsCustomerSelection(activeCustomersList)</text><polygon fill="#181818" points="815.5864,203.9922,825.5864,207.9922,815.5864,211.9922,819.5864,207.9922" style="stroke:#181818;stroke-width:1;"/><line style="stroke:#181818;stroke-width:1;" x1="74.1646" x2="821.5864" y1="207.9922" y2="207.9922"/><text fill="#000000" font-family="sans-serif" font-size="13" lengthAdjust="spacing" textLength="231.6958" x="81.1646" y="202.9263">selectCustomer(customerIdentifier)</text><polygon fill="#181818" points="85.1646,233.125,75.1646,237.125,85.1646,241.125,81.1646,237.125" style="stroke:#181818;stroke-width:1;"/><line style="stroke:#181818;stroke-width:1;stroke-dasharray:2.0,2.0;" x1="79.1646" x2="831.5864" y1="237.125" y2="237.125"/><text fill="#000000" font-family="sans-serif" font-size="13" lengthAdjust="spacing" textLength="729.4219" x="91.1646" y="232.0591">requestsShowDetails(placePrompt, datePrompt, timePrompt, durationPrompt, dronePrompt, descriptionPrompt)</text><polygon fill="#181818" points="815.5864,262.2578,825.5864,266.2578,815.5864,270.2578,819.5864,266.2578" style="stroke:#181818;stroke-width:1;"/><line style="stroke:#181818;stroke-width:1;" x1="74.1646" x2="821.5864" y1="266.2578" y2="266.2578"/><text fill="#000000" font-family="sans-serif" font-size="13" lengthAdjust="spacing" textLength="542.8643" x="81.1646" y="261.1919">submitShowRequestDetails(place, dateTime, duration, droneCount, descriptionRef)</text><line style="stroke:#181818;stroke-width:1;" x1="837.5864" x2="879.5864" y1="295.3906" y2="295.3906"/><line style="stroke:#181818;stroke-width:1;" x1="879.5864" x2="879.5864" y1="295.3906" y2="308.3906"/><line style="stroke:#181818;stroke-width:1;" x1="838.5864" x2="879.5864" y1="308.3906" y2="308.3906"/><polygon fill="#181818" points="848.5864,304.3906,838.5864,308.3906,848.5864,312.3906,844.5864,308.3906" style="stroke:#181818;stroke-width:1;"/><text fill="#000000" font-family="sans-serif" font-size="13" lengthAdjust="spacing" textLength="247.4507" x="844.5864" y="290.3247">processShowRequestCreation(details)</text><polygon fill="#181818" points="80.1646,333.5234,70.1646,337.5234,80.1646,341.5234,76.1646,337.5234" style="stroke:#181818;stroke-width:1;"/><line style="stroke:#181818;stroke-width:1;stroke-dasharray:2.0,2.0;" x1="74.1646" x2="831.5864" y1="337.5234" y2="337.5234"/><text fill="#000000" font-family="sans-serif" font-size="13" lengthAdjust="spacing" textLength="294.6201" x="86.1646" y="332.4575">displayRegistrationSuccess(confirmationInfo)</text><!--SRC=[bLBDQiCm3BxdAKHFAQmmjbiEkwINGWUZMH_0TPHE4DkPh6pqxUVOoPBICRPBa3_f-v4T8MaHgeiND53XUuzM8sn9dLcP0exLm-CzRE20PmeZ3DMR-modCESbovGMnx0g3yzGkhPL9ySg82jG7euUEUiK2sdgb1LO5SacTbCP5UX32QRnuGERfobF0MH9ABJzu3lQfYp1Y9pDrxF293cIDq4dwXN0YUZBteipo1Msg2Czad72_Ju8hxCQRpHlWlaeCH5pFHQx6grGGyZ_2ZPijqLHrFgyQvN65tQcapke0t-gXSoCzsd_xpCxEpVHQwPkxlznfVvaI1ONVPKePNaD6MRtqRTqlRssFM3po_uBpuwTHhzytP8nlMoTtDS_tLjDFeIwBF-4gjU3KgwTROXDn7QsSO5_k_m26HI_0000]--></g></svg>