<svg xmlns="http://www.w3.org/2000/svg" xmlns:xlink="http://www.w3.org/1999/xlink" contentStyleType="text/css" height="846px" preserveAspectRatio="none" style="width:2245px;height:846px;background:#FFFFFF;" version="1.1" viewBox="0 0 2245 846" width="2245px" zoomAndPan="magnify"><title>US235 List Show Requests - Domain Model (Read Context, Full Structure)</title><defs/><g><text fill="#000000" font-family="sans-serif" font-size="14" font-weight="bold" lengthAdjust="spacing" textLength="490.0615" x="870.4692" y="25.1074">US235 List Show Requests - Domain Model (Read Context, Full Structure)</text><!--cluster Client Aggregate--><g id="cluster_Client Aggregate"><path d="M1124,223.1348 L1232.0137,223.1348 A7.5,7.5 0 0 1 1237.0137,228.1348 L1244.0137,247.7559 L2233,247.7559 A5,5 0 0 1 2238,252.7559 L2238,834.6348 A5,5 0 0 1 2233,839.6348 L1124,839.6348 A5,5 0 0 1 1119,834.6348 L1119,228.1348 A5,5 0 0 1 1124,223.1348 " fill="#B0C4DE" style="stroke:#000080;stroke-width:1.5;"/><line style="stroke:#000080;stroke-width:1.5;" x1="1119" x2="1244.0137" y1="247.7559" y2="247.7559"/><text fill="#000000" font-family="sans-serif" font-size="14" font-weight="bold" lengthAdjust="spacing" textLength="112.0137" x="1123" y="240.2422">Client Aggregate</text></g><!--cluster ShowRequest Aggregate--><g id="cluster_ShowRequest Aggregate"><path d="M11,45.6348 L172.6895,45.6348 A7.5,7.5 0 0 1 177.6895,50.6348 L184.6895,70.2559 L1090,70.2559 A5,5 0 0 1 1095,75.2559 L1095,629.6348 A5,5 0 0 1 1090,634.6348 L11,634.6348 A5,5 0 0 1 6,629.6348 L6,50.6348 A5,5 0 0 1 11,45.6348 " fill="#B0C4DE" style="stroke:#000080;stroke-width:1.5;"/><line style="stroke:#000080;stroke-width:1.5;" x1="6" x2="184.6895" y1="70.2559" y2="70.2559"/><text fill="#000000" font-family="sans-serif" font-size="14" font-weight="bold" lengthAdjust="spacing" textLength="165.6895" x="10" y="62.7422">ShowRequest Aggregate</text></g><!--class Client--><g id="elem_Client"><rect codeLine="23" fill="#AFEEEE" height="116.4453" id="Client" rx="5" ry="5" style="stroke:#000080;stroke-width:1.0;" width="134.9307" x="1593.5" y="260.1348"/><ellipse cx="1638.8188" cy="282.4258" fill="#ADD1B2" rx="11" ry="11" style="stroke:#181818;stroke-width:1.0;"/><path d="M1641.5845,278.3008 Q1641.7407,278.082 1641.9282,277.9727 Q1642.1157,277.8633 1642.3345,277.8633 Q1642.7095,277.8633 1642.9438,278.1289 Q1643.1782,278.3789 1643.1782,278.9883 L1643.1782,280.4414 Q1643.1782,281.0508 1642.9438,281.3164 Q1642.7095,281.582 1642.3345,281.582 Q1641.9907,281.582 1641.7876,281.3789 Q1641.5845,281.1914 1641.4751,280.6758 Q1641.4282,280.3164 1641.2407,280.1289 Q1640.9126,279.7539 1640.3032,279.5352 Q1639.6938,279.3164 1639.0688,279.3164 Q1638.3032,279.3164 1637.6626,279.6445 Q1637.0376,279.9727 1636.5376,280.7227 Q1636.0532,281.4727 1636.0532,282.5039 L1636.0532,283.5977 Q1636.0532,284.832 1636.9438,285.6602 Q1637.8345,286.4727 1639.4282,286.4727 Q1640.3657,286.4727 1641.022,286.2227 Q1641.4126,286.0664 1641.8345,285.6289 Q1642.1001,285.3633 1642.2407,285.2852 Q1642.397,285.207 1642.6001,285.207 Q1642.9282,285.207 1643.1782,285.4727 Q1643.4438,285.7227 1643.4438,286.0664 Q1643.4438,286.4102 1643.1001,286.8164 Q1642.6001,287.3945 1641.8032,287.7227 Q1640.7251,288.1758 1639.4282,288.1758 Q1637.9126,288.1758 1636.7095,287.5508 Q1635.7251,287.0508 1635.0376,285.9883 Q1634.3501,284.9102 1634.3501,283.6289 L1634.3501,282.4727 Q1634.3501,281.1445 1634.9595,280.0039 Q1635.5845,278.8477 1636.6782,278.2383 Q1637.772,277.6133 1639.0063,277.6133 Q1639.7407,277.6133 1640.3813,277.7852 Q1641.0376,277.9414 1641.5845,278.3008 Z " fill="#000000"/><text fill="#000000" font-family="sans-serif" font-size="12" font-style="italic" lengthAdjust="spacing" textLength="30.0176" x="1662.2065" y="278.084">&#171;ER&#187;</text><text fill="#000000" font-family="sans-serif" font-size="14" lengthAdjust="spacing" textLength="35.793" x="1659.3188" y="296.2031">Client</text><line style="stroke:#000080;stroke-width:1.0;" x1="1594.5" x2="1727.4307" y1="304.7168" y2="304.7168"/><line style="stroke:#000080;stroke-width:1.0;" x1="1594.5" x2="1727.4307" y1="312.7168" y2="312.7168"/><ellipse cx="1604.5" cy="327.5273" fill="#84BE84" rx="3" ry="3" style="stroke:#038048;stroke-width:1.0;"/><text fill="#000000" font-family="sans-serif" font-size="14" lengthAdjust="spacing" textLength="66.8965" x="1613.5" y="331.8242">vat() : VAT</text><ellipse cx="1604.5" cy="346.1484" fill="#84BE84" rx="3" ry="3" style="stroke:#038048;stroke-width:1.0;"/><text fill="#000000" font-family="sans-serif" font-size="14" lengthAdjust="spacing" textLength="108.9307" x="1613.5" y="350.4453">name() : Name_1</text><ellipse cx="1604.5" cy="364.7695" fill="#84BE84" rx="3" ry="3" style="stroke:#038048;stroke-width:1.0;"/><text fill="#000000" font-family="sans-serif" font-size="14" lengthAdjust="spacing" textLength="98.0342" x="1613.5" y="369.0664">status() : Status</text></g><!--class Representative--><g id="elem_Representative"><rect codeLine="29" fill="#AFEEEE" height="97.8242" id="Representative" rx="5" ry="5" style="stroke:#000080;stroke-width:1.0;" width="255.5508" x="1395" y="520.6348"/><ellipse cx="1471.4429" cy="542.9258" fill="#ADD1B2" rx="11" ry="11" style="stroke:#181818;stroke-width:1.0;"/><path d="M1474.2085,538.8008 Q1474.3647,538.582 1474.5522,538.4727 Q1474.7397,538.3633 1474.9585,538.3633 Q1475.3335,538.3633 1475.5679,538.6289 Q1475.8022,538.8789 1475.8022,539.4883 L1475.8022,540.9414 Q1475.8022,541.5508 1475.5679,541.8164 Q1475.3335,542.082 1474.9585,542.082 Q1474.6147,542.082 1474.4116,541.8789 Q1474.2085,541.6914 1474.0991,541.1758 Q1474.0522,540.8164 1473.8647,540.6289 Q1473.5366,540.2539 1472.9272,540.0352 Q1472.3179,539.8164 1471.6929,539.8164 Q1470.9272,539.8164 1470.2866,540.1445 Q1469.6616,540.4727 1469.1616,541.2227 Q1468.6772,541.9727 1468.6772,543.0039 L1468.6772,544.0977 Q1468.6772,545.332 1469.5679,546.1602 Q1470.4585,546.9727 1472.0522,546.9727 Q1472.9897,546.9727 1473.646,546.7227 Q1474.0366,546.5664 1474.4585,546.1289 Q1474.7241,545.8633 1474.8647,545.7852 Q1475.021,545.707 1475.2241,545.707 Q1475.5522,545.707 1475.8022,545.9727 Q1476.0679,546.2227 1476.0679,546.5664 Q1476.0679,546.9102 1475.7241,547.3164 Q1475.2241,547.8945 1474.4272,548.2227 Q1473.3491,548.6758 1472.0522,548.6758 Q1470.5366,548.6758 1469.3335,548.0508 Q1468.3491,547.5508 1467.6616,546.4883 Q1466.9741,545.4102 1466.9741,544.1289 L1466.9741,542.9727 Q1466.9741,541.6445 1467.5835,540.5039 Q1468.2085,539.3477 1469.3022,538.7383 Q1470.396,538.1133 1471.6304,538.1133 Q1472.3647,538.1133 1473.0054,538.2852 Q1473.6616,538.4414 1474.2085,538.8008 Z " fill="#000000"/><text fill="#000000" font-family="sans-serif" font-size="12" font-style="italic" lengthAdjust="spacing" textLength="21.3516" x="1528.3496" y="538.584">&#171;E&#187;</text><text fill="#000000" font-family="sans-serif" font-size="14" lengthAdjust="spacing" textLength="94.165" x="1491.9429" y="556.7031">Representative</text><line style="stroke:#000080;stroke-width:1.0;" x1="1396" x2="1649.5508" y1="565.2168" y2="565.2168"/><line style="stroke:#000080;stroke-width:1.0;" x1="1396" x2="1649.5508" y1="573.2168" y2="573.2168"/><ellipse cx="1406" cy="588.0273" fill="#84BE84" rx="3" ry="3" style="stroke:#038048;stroke-width:1.0;"/><text fill="#000000" font-family="sans-serif" font-size="14" lengthAdjust="spacing" textLength="229.5508" x="1415" y="592.3242">representativeId() : RepresentativeID</text><ellipse cx="1406" cy="606.6484" fill="#84BE84" rx="3" ry="3" style="stroke:#038048;stroke-width:1.0;"/><text fill="#000000" font-family="sans-serif" font-size="14" lengthAdjust="spacing" textLength="108.9307" x="1415" y="610.9453">name() : Name_1</text></g><!--class VAT--><g id="elem_VAT"><rect codeLine="34" fill="#AFEEEE" height="79.2031" id="VAT" rx="5" ry="5" style="stroke:#000080;stroke-width:1.0;" width="137.2617" x="2084.5" y="530.1348"/><ellipse cx="2135.2671" cy="552.4258" fill="#ADD1B2" rx="11" ry="11" style="stroke:#181818;stroke-width:1.0;"/><path d="M2138.0327,548.3008 Q2138.189,548.082 2138.3765,547.9727 Q2138.564,547.8633 2138.7827,547.8633 Q2139.1577,547.8633 2139.3921,548.1289 Q2139.6265,548.3789 2139.6265,548.9883 L2139.6265,550.4414 Q2139.6265,551.0508 2139.3921,551.3164 Q2139.1577,551.582 2138.7827,551.582 Q2138.439,551.582 2138.2358,551.3789 Q2138.0327,551.1914 2137.9233,550.6758 Q2137.8765,550.3164 2137.689,550.1289 Q2137.3608,549.7539 2136.7515,549.5352 Q2136.1421,549.3164 2135.5171,549.3164 Q2134.7515,549.3164 2134.1108,549.6445 Q2133.4858,549.9727 2132.9858,550.7227 Q2132.5015,551.4727 2132.5015,552.5039 L2132.5015,553.5977 Q2132.5015,554.832 2133.3921,555.6602 Q2134.2827,556.4727 2135.8765,556.4727 Q2136.814,556.4727 2137.4702,556.2227 Q2137.8608,556.0664 2138.2827,555.6289 Q2138.5483,555.3633 2138.689,555.2852 Q2138.8452,555.207 2139.0483,555.207 Q2139.3765,555.207 2139.6265,555.4727 Q2139.8921,555.7227 2139.8921,556.0664 Q2139.8921,556.4102 2139.5483,556.8164 Q2139.0483,557.3945 2138.2515,557.7227 Q2137.1733,558.1758 2135.8765,558.1758 Q2134.3608,558.1758 2133.1577,557.5508 Q2132.1733,557.0508 2131.4858,555.9883 Q2130.7983,554.9102 2130.7983,553.6289 L2130.7983,552.4727 Q2130.7983,551.1445 2131.4077,550.0039 Q2132.0327,548.8477 2133.1265,548.2383 Q2134.2202,547.6133 2135.4546,547.6133 Q2136.189,547.6133 2136.8296,547.7852 Q2137.4858,547.9414 2138.0327,548.3008 Z " fill="#000000"/><text fill="#000000" font-family="sans-serif" font-size="12" font-style="italic" lengthAdjust="spacing" textLength="30.6855" x="2154.0381" y="548.084">&#171;VO&#187;</text><text fill="#000000" font-family="sans-serif" font-size="14" lengthAdjust="spacing" textLength="27.2275" x="2155.7671" y="566.2031">VAT</text><line style="stroke:#000080;stroke-width:1.0;" x1="2085.5" x2="2220.7617" y1="574.7168" y2="574.7168"/><text fill="#000000" font-family="sans-serif" font-size="14" lengthAdjust="spacing" textLength="125.2617" x="2090.5" y="593.8242">VATNumber : String</text><line style="stroke:#000080;stroke-width:1.0;" x1="2085.5" x2="2220.7617" y1="601.3379" y2="601.3379"/></g><!--class Name_1--><g id="elem_Name_1"><rect codeLine="37" fill="#AFEEEE" height="97.8242" id="Name_1" rx="5" ry="5" style="stroke:#000080;stroke-width:1.0;" width="124.7998" x="1759.5" y="725.6348"/><ellipse cx="1792.4473" cy="747.9258" fill="#ADD1B2" rx="11" ry="11" style="stroke:#181818;stroke-width:1.0;"/><path d="M1795.2129,743.8008 Q1795.3691,743.582 1795.5566,743.4727 Q1795.7441,743.3633 1795.9629,743.3633 Q1796.3379,743.3633 1796.5723,743.6289 Q1796.8066,743.8789 1796.8066,744.4883 L1796.8066,745.9414 Q1796.8066,746.5508 1796.5723,746.8164 Q1796.3379,747.082 1795.9629,747.082 Q1795.6191,747.082 1795.416,746.8789 Q1795.2129,746.6914 1795.1035,746.1758 Q1795.0566,745.8164 1794.8691,745.6289 Q1794.541,745.2539 1793.9316,745.0352 Q1793.3223,744.8164 1792.6973,744.8164 Q1791.9316,744.8164 1791.291,745.1445 Q1790.666,745.4727 1790.166,746.2227 Q1789.6816,746.9727 1789.6816,748.0039 L1789.6816,749.0977 Q1789.6816,750.332 1790.5723,751.1602 Q1791.4629,751.9727 1793.0566,751.9727 Q1793.9941,751.9727 1794.6504,751.7227 Q1795.041,751.5664 1795.4629,751.1289 Q1795.7285,750.8633 1795.8691,750.7852 Q1796.0254,750.707 1796.2285,750.707 Q1796.5566,750.707 1796.8066,750.9727 Q1797.0723,751.2227 1797.0723,751.5664 Q1797.0723,751.9102 1796.7285,752.3164 Q1796.2285,752.8945 1795.4316,753.2227 Q1794.3535,753.6758 1793.0566,753.6758 Q1791.541,753.6758 1790.3379,753.0508 Q1789.3535,752.5508 1788.666,751.4883 Q1787.9785,750.4102 1787.9785,749.1289 L1787.9785,747.9727 Q1787.9785,746.6445 1788.5879,745.5039 Q1789.2129,744.3477 1790.3066,743.7383 Q1791.4004,743.1133 1792.6348,743.1133 Q1793.3691,743.1133 1794.0098,743.2852 Q1794.666,743.4414 1795.2129,743.8008 Z " fill="#000000"/><text fill="#000000" font-family="sans-serif" font-size="12" font-style="italic" lengthAdjust="spacing" textLength="30.6855" x="1821.5513" y="743.584">&#171;VO&#187;</text><text fill="#000000" font-family="sans-serif" font-size="14" lengthAdjust="spacing" textLength="52.917" x="1810.4355" y="761.7031">Name_1</text><line style="stroke:#000080;stroke-width:1.0;" x1="1760.5" x2="1883.2998" y1="770.2168" y2="770.2168"/><text fill="#000000" font-family="sans-serif" font-size="14" lengthAdjust="spacing" textLength="112.7998" x="1765.5" y="789.3242">FirstName : String</text><text fill="#000000" font-family="sans-serif" font-size="14" lengthAdjust="spacing" textLength="112.0479" x="1765.5" y="807.9453">LastName : String</text><line style="stroke:#000080;stroke-width:1.0;" x1="1760.5" x2="1883.2998" y1="815.459" y2="815.459"/></g><!--class Status--><g id="elem_Status"><rect codeLine="41" fill="#AFEEEE" height="153.6875" id="Status" rx="5" ry="5" style="stroke:#000080;stroke-width:1.0;" width="118.5518" x="1240.5" y="492.6348"/><ellipse cx="1276.588" cy="514.9258" fill="#EB937F" rx="11" ry="11" style="stroke:#181818;stroke-width:1.0;"/><path d="M1275.4474,515.7227 L1275.4474,518.2227 L1279.7755,518.2227 L1279.7755,517.3008 Q1279.7755,516.6914 1280.0099,516.4258 Q1280.2599,516.1602 1280.6349,516.1602 Q1281.0099,516.1602 1281.2443,516.4258 Q1281.4787,516.6914 1281.4787,517.3008 L1281.4787,519.9258 L1273.4787,519.9258 Q1272.8537,519.9258 1272.588,519.6914 Q1272.338,519.457 1272.338,519.0664 Q1272.338,518.6914 1272.6037,518.457 Q1272.8693,518.2227 1273.4787,518.2227 L1273.7443,518.2227 L1273.7443,511.5664 L1273.4787,511.5664 Q1272.8537,511.5664 1272.588,511.332 Q1272.338,511.0977 1272.338,510.707 Q1272.338,510.332 1272.588,510.0977 Q1272.8537,509.8633 1273.4787,509.8633 L1281.1037,509.8633 L1281.1037,512.457 Q1281.1037,513.0664 1280.8693,513.332 Q1280.6505,513.582 1280.2599,513.582 Q1279.8849,513.582 1279.6505,513.332 Q1279.4162,513.0664 1279.4162,512.457 L1279.4162,511.5664 L1275.4474,511.5664 L1275.4474,514.0195 L1276.9318,514.0195 Q1276.9318,513.3633 1277.0568,513.1758 Q1277.3224,512.7695 1277.7912,512.7695 Q1278.1662,512.7695 1278.4005,513.0352 Q1278.6349,513.2852 1278.6349,513.8945 L1278.6349,515.8633 Q1278.6349,516.4102 1278.5099,516.5977 Q1278.2443,516.9883 1277.7912,516.9883 Q1277.3224,516.9883 1277.0568,516.582 Q1276.9318,516.3945 1276.9318,515.7227 L1275.4474,515.7227 Z " fill="#000000"/><text fill="#000000" font-family="sans-serif" font-size="12" font-style="italic" lengthAdjust="spacing" textLength="30.6855" x="1299.7762" y="510.584">&#171;VO&#187;</text><text fill="#000000" font-family="sans-serif" font-size="14" lengthAdjust="spacing" textLength="39.6895" x="1295.2743" y="528.7031">Status</text><line style="stroke:#000080;stroke-width:1.0;" x1="1241.5" x2="1358.0518" y1="537.2168" y2="537.2168"/><text fill="#000000" font-family="sans-serif" font-size="14" lengthAdjust="spacing" textLength="22.5654" x="1246.5" y="556.3242">VIP</text><text fill="#000000" font-family="sans-serif" font-size="14" lengthAdjust="spacing" textLength="67.6826" x="1246.5" y="574.9453">REGULAR</text><text fill="#000000" font-family="sans-serif" font-size="14" lengthAdjust="spacing" textLength="64.5723" x="1246.5" y="593.5664">DELETED</text><text fill="#000000" font-family="sans-serif" font-size="14" lengthAdjust="spacing" textLength="106.5518" x="1246.5" y="612.1875">INFRINGEMENT</text><text fill="#000000" font-family="sans-serif" font-size="14" lengthAdjust="spacing" textLength="66.8965" x="1246.5" y="630.8086">CREATED</text><line style="stroke:#000080;stroke-width:1.0;" x1="1241.5" x2="1358.0518" y1="638.3223" y2="638.3223"/></g><!--class Address--><g id="elem_Address"><rect codeLine="48" fill="#AFEEEE" height="116.4453" id="Address" rx="5" ry="5" style="stroke:#000080;stroke-width:1.0;" width="109.2617" x="1940.5" y="511.6348"/><ellipse cx="1967.1565" cy="533.9258" fill="#ADD1B2" rx="11" ry="11" style="stroke:#181818;stroke-width:1.0;"/><path d="M1969.9221,529.8008 Q1970.0784,529.582 1970.2659,529.4727 Q1970.4534,529.3633 1970.6721,529.3633 Q1971.0471,529.3633 1971.2815,529.6289 Q1971.5159,529.8789 1971.5159,530.4883 L1971.5159,531.9414 Q1971.5159,532.5508 1971.2815,532.8164 Q1971.0471,533.082 1970.6721,533.082 Q1970.3284,533.082 1970.1252,532.8789 Q1969.9221,532.6914 1969.8127,532.1758 Q1969.7659,531.8164 1969.5784,531.6289 Q1969.2502,531.2539 1968.6409,531.0352 Q1968.0315,530.8164 1967.4065,530.8164 Q1966.6409,530.8164 1966.0002,531.1445 Q1965.3752,531.4727 1964.8752,532.2227 Q1964.3909,532.9727 1964.3909,534.0039 L1964.3909,535.0977 Q1964.3909,536.332 1965.2815,537.1602 Q1966.1721,537.9727 1967.7659,537.9727 Q1968.7034,537.9727 1969.3596,537.7227 Q1969.7502,537.5664 1970.1721,537.1289 Q1970.4377,536.8633 1970.5784,536.7852 Q1970.7346,536.707 1970.9377,536.707 Q1971.2659,536.707 1971.5159,536.9727 Q1971.7815,537.2227 1971.7815,537.5664 Q1971.7815,537.9102 1971.4377,538.3164 Q1970.9377,538.8945 1970.1409,539.2227 Q1969.0627,539.6758 1967.7659,539.6758 Q1966.2502,539.6758 1965.0471,539.0508 Q1964.0627,538.5508 1963.3752,537.4883 Q1962.6877,536.4102 1962.6877,535.1289 L1962.6877,533.9727 Q1962.6877,532.6445 1963.2971,531.5039 Q1963.9221,530.3477 1965.0159,529.7383 Q1966.1096,529.1133 1967.344,529.1133 Q1968.0784,529.1133 1968.719,529.2852 Q1969.3752,529.4414 1969.9221,529.8008 Z " fill="#000000"/><text fill="#000000" font-family="sans-serif" font-size="12" font-style="italic" lengthAdjust="spacing" textLength="30.6855" x="1994.0833" y="529.584">&#171;VO&#187;</text><text fill="#000000" font-family="sans-serif" font-size="14" lengthAdjust="spacing" textLength="51.3584" x="1983.7468" y="547.7031">Address</text><line style="stroke:#000080;stroke-width:1.0;" x1="1941.5" x2="2048.7617" y1="556.2168" y2="556.2168"/><text fill="#000000" font-family="sans-serif" font-size="14" lengthAdjust="spacing" textLength="85.5928" x="1946.5" y="575.3242">Street : String</text><text fill="#000000" font-family="sans-serif" font-size="14" lengthAdjust="spacing" textLength="72.3516" x="1946.5" y="593.9453">City : String</text><text fill="#000000" font-family="sans-serif" font-size="14" lengthAdjust="spacing" textLength="97.2617" x="1946.5" y="612.5664">Country : String</text><line style="stroke:#000080;stroke-width:1.0;" x1="1941.5" x2="2048.7617" y1="620.0801" y2="620.0801"/></g><!--class ZipCode--><g id="elem_ZipCode"><rect codeLine="54" fill="#AFEEEE" height="79.2031" id="ZipCode" rx="5" ry="5" style="stroke:#000080;stroke-width:1.0;" width="113.1582" x="1938.5" y="735.1348"/><ellipse cx="1966.2085" cy="757.4258" fill="#ADD1B2" rx="11" ry="11" style="stroke:#181818;stroke-width:1.0;"/><path d="M1968.9742,753.3008 Q1969.1304,753.082 1969.3179,752.9727 Q1969.5054,752.8633 1969.7242,752.8633 Q1970.0992,752.8633 1970.3335,753.1289 Q1970.5679,753.3789 1970.5679,753.9883 L1970.5679,755.4414 Q1970.5679,756.0508 1970.3335,756.3164 Q1970.0992,756.582 1969.7242,756.582 Q1969.3804,756.582 1969.1773,756.3789 Q1968.9742,756.1914 1968.8648,755.6758 Q1968.8179,755.3164 1968.6304,755.1289 Q1968.3023,754.7539 1967.6929,754.5352 Q1967.0835,754.3164 1966.4585,754.3164 Q1965.6929,754.3164 1965.0523,754.6445 Q1964.4273,754.9727 1963.9273,755.7227 Q1963.4429,756.4727 1963.4429,757.5039 L1963.4429,758.5977 Q1963.4429,759.832 1964.3335,760.6602 Q1965.2242,761.4727 1966.8179,761.4727 Q1967.7554,761.4727 1968.4117,761.2227 Q1968.8023,761.0664 1969.2242,760.6289 Q1969.4898,760.3633 1969.6304,760.2852 Q1969.7867,760.207 1969.9898,760.207 Q1970.3179,760.207 1970.5679,760.4727 Q1970.8335,760.7227 1970.8335,761.0664 Q1970.8335,761.4102 1970.4898,761.8164 Q1969.9898,762.3945 1969.1929,762.7227 Q1968.1148,763.1758 1966.8179,763.1758 Q1965.3023,763.1758 1964.0992,762.5508 Q1963.1148,762.0508 1962.4273,760.9883 Q1961.7398,759.9102 1961.7398,758.6289 L1961.7398,757.4727 Q1961.7398,756.1445 1962.3492,755.0039 Q1962.9742,753.8477 1964.0679,753.2383 Q1965.1617,752.6133 1966.396,752.6133 Q1967.1304,752.6133 1967.771,752.7852 Q1968.4273,752.9414 1968.9742,753.3008 Z " fill="#000000"/><text fill="#000000" font-family="sans-serif" font-size="12" font-style="italic" lengthAdjust="spacing" textLength="30.6855" x="1994.1484" y="753.084">&#171;VO&#187;</text><text fill="#000000" font-family="sans-serif" font-size="14" lengthAdjust="spacing" textLength="52.917" x="1983.0327" y="771.2031">ZipCode</text><line style="stroke:#000080;stroke-width:1.0;" x1="1939.5" x2="2050.6582" y1="779.7168" y2="779.7168"/><text fill="#000000" font-family="sans-serif" font-size="14" lengthAdjust="spacing" textLength="101.1582" x="1944.5" y="798.8242">ZipCode : String</text><line style="stroke:#000080;stroke-width:1.0;" x1="1939.5" x2="2050.6582" y1="806.3379" y2="806.3379"/></g><!--class Phone--><g id="elem_Phone"><rect codeLine="57" fill="#AFEEEE" height="79.2031" id="Phone" rx="5" ry="5" style="stroke:#000080;stroke-width:1.0;" width="150.5166" x="1184.5" y="735.1348"/><ellipse cx="1235.2671" cy="757.4258" fill="#ADD1B2" rx="11" ry="11" style="stroke:#181818;stroke-width:1.0;"/><path d="M1238.0327,753.3008 Q1238.189,753.082 1238.3765,752.9727 Q1238.564,752.8633 1238.7827,752.8633 Q1239.1577,752.8633 1239.3921,753.1289 Q1239.6265,753.3789 1239.6265,753.9883 L1239.6265,755.4414 Q1239.6265,756.0508 1239.3921,756.3164 Q1239.1577,756.582 1238.7827,756.582 Q1238.439,756.582 1238.2358,756.3789 Q1238.0327,756.1914 1237.9233,755.6758 Q1237.8765,755.3164 1237.689,755.1289 Q1237.3608,754.7539 1236.7515,754.5352 Q1236.1421,754.3164 1235.5171,754.3164 Q1234.7515,754.3164 1234.1108,754.6445 Q1233.4858,754.9727 1232.9858,755.7227 Q1232.5015,756.4727 1232.5015,757.5039 L1232.5015,758.5977 Q1232.5015,759.832 1233.3921,760.6602 Q1234.2827,761.4727 1235.8765,761.4727 Q1236.814,761.4727 1237.4702,761.2227 Q1237.8608,761.0664 1238.2827,760.6289 Q1238.5483,760.3633 1238.689,760.2852 Q1238.8452,760.207 1239.0483,760.207 Q1239.3765,760.207 1239.6265,760.4727 Q1239.8921,760.7227 1239.8921,761.0664 Q1239.8921,761.4102 1239.5483,761.8164 Q1239.0483,762.3945 1238.2515,762.7227 Q1237.1733,763.1758 1235.8765,763.1758 Q1234.3608,763.1758 1233.1577,762.5508 Q1232.1733,762.0508 1231.4858,760.9883 Q1230.7983,759.9102 1230.7983,758.6289 L1230.7983,757.4727 Q1230.7983,756.1445 1231.4077,755.0039 Q1232.0327,753.8477 1233.1265,753.2383 Q1234.2202,752.6133 1235.4546,752.6133 Q1236.189,752.6133 1236.8296,752.7852 Q1237.4858,752.9414 1238.0327,753.3008 Z " fill="#000000"/><text fill="#000000" font-family="sans-serif" font-size="12" font-style="italic" lengthAdjust="spacing" textLength="30.6855" x="1260.6655" y="753.084">&#171;VO&#187;</text><text fill="#000000" font-family="sans-serif" font-size="14" lengthAdjust="spacing" textLength="40.4824" x="1255.7671" y="771.2031">Phone</text><line style="stroke:#000080;stroke-width:1.0;" x1="1185.5" x2="1334.0166" y1="779.7168" y2="779.7168"/><text fill="#000000" font-family="sans-serif" font-size="14" lengthAdjust="spacing" textLength="138.5166" x="1190.5" y="798.8242">PhoneNumber : String</text><line style="stroke:#000080;stroke-width:1.0;" x1="1185.5" x2="1334.0166" y1="806.3379" y2="806.3379"/></g><!--class Email--><g id="elem_Email"><rect codeLine="60" fill="#AFEEEE" height="79.2031" id="Email" rx="5" ry="5" style="stroke:#000080;stroke-width:1.0;" width="146.6064" x="1571.5" y="735.1348"/><ellipse cx="1623.0498" cy="757.4258" fill="#ADD1B2" rx="11" ry="11" style="stroke:#181818;stroke-width:1.0;"/><path d="M1625.8154,753.3008 Q1625.9717,753.082 1626.1592,752.9727 Q1626.3467,752.8633 1626.5654,752.8633 Q1626.9404,752.8633 1627.1748,753.1289 Q1627.4092,753.3789 1627.4092,753.9883 L1627.4092,755.4414 Q1627.4092,756.0508 1627.1748,756.3164 Q1626.9404,756.582 1626.5654,756.582 Q1626.2217,756.582 1626.0186,756.3789 Q1625.8154,756.1914 1625.7061,755.6758 Q1625.6592,755.3164 1625.4717,755.1289 Q1625.1436,754.7539 1624.5342,754.5352 Q1623.9248,754.3164 1623.2998,754.3164 Q1622.5342,754.3164 1621.8936,754.6445 Q1621.2686,754.9727 1620.7686,755.7227 Q1620.2842,756.4727 1620.2842,757.5039 L1620.2842,758.5977 Q1620.2842,759.832 1621.1748,760.6602 Q1622.0654,761.4727 1623.6592,761.4727 Q1624.5967,761.4727 1625.2529,761.2227 Q1625.6436,761.0664 1626.0654,760.6289 Q1626.3311,760.3633 1626.4717,760.2852 Q1626.6279,760.207 1626.8311,760.207 Q1627.1592,760.207 1627.4092,760.4727 Q1627.6748,760.7227 1627.6748,761.0664 Q1627.6748,761.4102 1627.3311,761.8164 Q1626.8311,762.3945 1626.0342,762.7227 Q1624.9561,763.1758 1623.6592,763.1758 Q1622.1436,763.1758 1620.9404,762.5508 Q1619.9561,762.0508 1619.2686,760.9883 Q1618.5811,759.9102 1618.5811,758.6289 L1618.5811,757.4727 Q1618.5811,756.1445 1619.1904,755.0039 Q1619.8154,753.8477 1620.9092,753.2383 Q1622.0029,752.6133 1623.2373,752.6133 Q1623.9717,752.6133 1624.6123,752.7852 Q1625.2686,752.9414 1625.8154,753.3008 Z " fill="#000000"/><text fill="#000000" font-family="sans-serif" font-size="12" font-style="italic" lengthAdjust="spacing" textLength="30.6855" x="1645.7104" y="753.084">&#171;VO&#187;</text><text fill="#000000" font-family="sans-serif" font-size="14" lengthAdjust="spacing" textLength="35.0068" x="1643.5498" y="771.2031">Email</text><line style="stroke:#000080;stroke-width:1.0;" x1="1572.5" x2="1717.1064" y1="779.7168" y2="779.7168"/><text fill="#000000" font-family="sans-serif" font-size="14" lengthAdjust="spacing" textLength="134.6064" x="1577.5" y="798.8242">EmailAddress : String</text><line style="stroke:#000080;stroke-width:1.0;" x1="1572.5" x2="1717.1064" y1="806.3379" y2="806.3379"/></g><!--class Position--><g id="elem_Position"><rect codeLine="63" fill="#AFEEEE" height="79.2031" id="Position" rx="5" ry="5" style="stroke:#000080;stroke-width:1.0;" width="110.0479" x="1420" y="735.1348"/><ellipse cx="1447.7085" cy="757.4258" fill="#ADD1B2" rx="11" ry="11" style="stroke:#181818;stroke-width:1.0;"/><path d="M1450.4742,753.3008 Q1450.6304,753.082 1450.8179,752.9727 Q1451.0054,752.8633 1451.2242,752.8633 Q1451.5992,752.8633 1451.8335,753.1289 Q1452.0679,753.3789 1452.0679,753.9883 L1452.0679,755.4414 Q1452.0679,756.0508 1451.8335,756.3164 Q1451.5992,756.582 1451.2242,756.582 Q1450.8804,756.582 1450.6773,756.3789 Q1450.4742,756.1914 1450.3648,755.6758 Q1450.3179,755.3164 1450.1304,755.1289 Q1449.8023,754.7539 1449.1929,754.5352 Q1448.5835,754.3164 1447.9585,754.3164 Q1447.1929,754.3164 1446.5523,754.6445 Q1445.9273,754.9727 1445.4273,755.7227 Q1444.9429,756.4727 1444.9429,757.5039 L1444.9429,758.5977 Q1444.9429,759.832 1445.8335,760.6602 Q1446.7242,761.4727 1448.3179,761.4727 Q1449.2554,761.4727 1449.9117,761.2227 Q1450.3023,761.0664 1450.7242,760.6289 Q1450.9898,760.3633 1451.1304,760.2852 Q1451.2867,760.207 1451.4898,760.207 Q1451.8179,760.207 1452.0679,760.4727 Q1452.3335,760.7227 1452.3335,761.0664 Q1452.3335,761.4102 1451.9898,761.8164 Q1451.4898,762.3945 1450.6929,762.7227 Q1449.6148,763.1758 1448.3179,763.1758 Q1446.8023,763.1758 1445.5992,762.5508 Q1444.6148,762.0508 1443.9273,760.9883 Q1443.2398,759.9102 1443.2398,758.6289 L1443.2398,757.4727 Q1443.2398,756.1445 1443.8492,755.0039 Q1444.4742,753.8477 1445.5679,753.2383 Q1446.6617,752.6133 1447.896,752.6133 Q1448.6304,752.6133 1449.271,752.7852 Q1449.9273,752.9414 1450.4742,753.3008 Z " fill="#000000"/><text fill="#000000" font-family="sans-serif" font-size="12" font-style="italic" lengthAdjust="spacing" textLength="30.6855" x="1474.0932" y="753.084">&#171;VO&#187;</text><text fill="#000000" font-family="sans-serif" font-size="14" lengthAdjust="spacing" textLength="49.8066" x="1464.5327" y="771.2031">Position</text><line style="stroke:#000080;stroke-width:1.0;" x1="1421" x2="1529.0479" y1="779.7168" y2="779.7168"/><text fill="#000000" font-family="sans-serif" font-size="14" lengthAdjust="spacing" textLength="98.0479" x="1426" y="798.8242">Position : String</text><line style="stroke:#000080;stroke-width:1.0;" x1="1421" x2="1529.0479" y1="806.3379" y2="806.3379"/></g><!--class ShowRequest--><g id="elem_ShowRequest"><rect codeLine="69" fill="#AFEEEE" height="60.582" id="ShowRequest" rx="5" ry="5" style="stroke:#000080;stroke-width:1.0;" width="119.165" x="589.5" y="82.6348"/><ellipse cx="604.5" cy="104.9258" fill="#ADD1B2" rx="11" ry="11" style="stroke:#181818;stroke-width:1.0;"/><path d="M607.2656,100.8008 Q607.4219,100.582 607.6094,100.4727 Q607.7969,100.3633 608.0156,100.3633 Q608.3906,100.3633 608.625,100.6289 Q608.8594,100.8789 608.8594,101.4883 L608.8594,102.9414 Q608.8594,103.5508 608.625,103.8164 Q608.3906,104.082 608.0156,104.082 Q607.6719,104.082 607.4688,103.8789 Q607.2656,103.6914 607.1563,103.1758 Q607.1094,102.8164 606.9219,102.6289 Q606.5938,102.2539 605.9844,102.0352 Q605.375,101.8164 604.75,101.8164 Q603.9844,101.8164 603.3438,102.1445 Q602.7188,102.4727 602.2188,103.2227 Q601.7344,103.9727 601.7344,105.0039 L601.7344,106.0977 Q601.7344,107.332 602.625,108.1602 Q603.5156,108.9727 605.1094,108.9727 Q606.0469,108.9727 606.7031,108.7227 Q607.0938,108.5664 607.5156,108.1289 Q607.7813,107.8633 607.9219,107.7852 Q608.0781,107.707 608.2813,107.707 Q608.6094,107.707 608.8594,107.9727 Q609.125,108.2227 609.125,108.5664 Q609.125,108.9102 608.7813,109.3164 Q608.2813,109.8945 607.4844,110.2227 Q606.4063,110.6758 605.1094,110.6758 Q603.5938,110.6758 602.3906,110.0508 Q601.4063,109.5508 600.7188,108.4883 Q600.0313,107.4102 600.0313,106.1289 L600.0313,104.9727 Q600.0313,103.6445 600.6406,102.5039 Q601.2656,101.3477 602.3594,100.7383 Q603.4531,100.1133 604.6875,100.1133 Q605.4219,100.1133 606.0625,100.2852 Q606.7188,100.4414 607.2656,100.8008 Z " fill="#000000"/><text fill="#000000" font-family="sans-serif" font-size="12" font-style="italic" lengthAdjust="spacing" textLength="30.0176" x="647.0737" y="100.584">&#171;ER&#187;</text><text fill="#000000" font-family="sans-serif" font-size="14" lengthAdjust="spacing" textLength="87.165" x="618.5" y="118.7031">ShowRequest</text><line style="stroke:#000080;stroke-width:1.0;" x1="590.5" x2="707.665" y1="127.2168" y2="127.2168"/><line style="stroke:#000080;stroke-width:1.0;" x1="590.5" x2="707.665" y1="135.2168" y2="135.2168"/></g><!--class Place_1--><g id="elem_Place_1"><rect codeLine="73" fill="#AFEEEE" height="79.2031" id="Place_1" rx="5" ry="5" style="stroke:#000080;stroke-width:1.0;" width="132.6064" x="763.5" y="278.6348"/><ellipse cx="801.0062" cy="300.9258" fill="#ADD1B2" rx="11" ry="11" style="stroke:#181818;stroke-width:1.0;"/><path d="M803.7718,296.8008 Q803.928,296.582 804.1155,296.4727 Q804.303,296.3633 804.5218,296.3633 Q804.8968,296.3633 805.1312,296.6289 Q805.3655,296.8789 805.3655,297.4883 L805.3655,298.9414 Q805.3655,299.5508 805.1312,299.8164 Q804.8968,300.082 804.5218,300.082 Q804.178,300.082 803.9749,299.8789 Q803.7718,299.6914 803.6624,299.1758 Q803.6155,298.8164 803.428,298.6289 Q803.0999,298.2539 802.4905,298.0352 Q801.8812,297.8164 801.2562,297.8164 Q800.4905,297.8164 799.8499,298.1445 Q799.2249,298.4727 798.7249,299.2227 Q798.2405,299.9727 798.2405,301.0039 L798.2405,302.0977 Q798.2405,303.332 799.1312,304.1602 Q800.0218,304.9727 801.6155,304.9727 Q802.553,304.9727 803.2093,304.7227 Q803.5999,304.5664 804.0218,304.1289 Q804.2874,303.8633 804.428,303.7852 Q804.5843,303.707 804.7874,303.707 Q805.1155,303.707 805.3655,303.9727 Q805.6312,304.2227 805.6312,304.5664 Q805.6312,304.9102 805.2874,305.3164 Q804.7874,305.8945 803.9905,306.2227 Q802.9124,306.6758 801.6155,306.6758 Q800.0999,306.6758 798.8968,306.0508 Q797.9124,305.5508 797.2249,304.4883 Q796.5374,303.4102 796.5374,302.1289 L796.5374,300.9727 Q796.5374,299.6445 797.1468,298.5039 Q797.7718,297.3477 798.8655,296.7383 Q799.9593,296.1133 801.1937,296.1133 Q801.928,296.1133 802.5687,296.2852 Q803.2249,296.4414 803.7718,296.8008 Z " fill="#000000"/><text fill="#000000" font-family="sans-serif" font-size="12" font-style="italic" lengthAdjust="spacing" textLength="30.6855" x="829.9611" y="296.584">&#171;VO&#187;</text><text fill="#000000" font-family="sans-serif" font-size="14" lengthAdjust="spacing" textLength="50.5928" x="820.0075" y="314.7031">Place_1</text><line style="stroke:#000080;stroke-width:1.0;" x1="764.5" x2="895.1064" y1="323.2168" y2="323.2168"/><text fill="#000000" font-family="sans-serif" font-size="14" lengthAdjust="spacing" textLength="120.6064" x="769.5" y="342.3242">PlaceName : String</text><line style="stroke:#000080;stroke-width:1.0;" x1="764.5" x2="895.1064" y1="349.8379" y2="349.8379"/></g><!--class Geolocation_1--><g id="elem_Geolocation_1"><rect codeLine="78" fill="#AFEEEE" height="97.8242" id="Geolocation_1" rx="5" ry="5" style="stroke:#000080;stroke-width:1.0;" width="129.5371" x="765" y="520.6348"/><ellipse cx="783.2616" cy="542.9258" fill="#ADD1B2" rx="11" ry="11" style="stroke:#181818;stroke-width:1.0;"/><path d="M786.0272,538.8008 Q786.1835,538.582 786.371,538.4727 Q786.5585,538.3633 786.7772,538.3633 Q787.1522,538.3633 787.3866,538.6289 Q787.621,538.8789 787.621,539.4883 L787.621,540.9414 Q787.621,541.5508 787.3866,541.8164 Q787.1522,542.082 786.7772,542.082 Q786.4335,542.082 786.2304,541.8789 Q786.0272,541.6914 785.9179,541.1758 Q785.871,540.8164 785.6835,540.6289 Q785.3554,540.2539 784.746,540.0352 Q784.1366,539.8164 783.5116,539.8164 Q782.746,539.8164 782.1054,540.1445 Q781.4804,540.4727 780.9804,541.2227 Q780.496,541.9727 780.496,543.0039 L780.496,544.0977 Q780.496,545.332 781.3866,546.1602 Q782.2772,546.9727 783.871,546.9727 Q784.8085,546.9727 785.4647,546.7227 Q785.8554,546.5664 786.2772,546.1289 Q786.5429,545.8633 786.6835,545.7852 Q786.8397,545.707 787.0429,545.707 Q787.371,545.707 787.621,545.9727 Q787.8866,546.2227 787.8866,546.5664 Q787.8866,546.9102 787.5429,547.3164 Q787.0429,547.8945 786.246,548.2227 Q785.1679,548.6758 783.871,548.6758 Q782.3554,548.6758 781.1522,548.0508 Q780.1679,547.5508 779.4804,546.4883 Q778.7929,545.4102 778.7929,544.1289 L778.7929,542.9727 Q778.7929,541.6445 779.4022,540.5039 Q780.0272,539.3477 781.121,538.7383 Q782.2147,538.1133 783.4491,538.1133 Q784.1835,538.1133 784.8241,538.2852 Q785.4804,538.4414 786.0272,538.8008 Z " fill="#000000"/><text fill="#000000" font-family="sans-serif" font-size="12" font-style="italic" lengthAdjust="spacing" textLength="30.6855" x="827.7882" y="538.584">&#171;VO&#187;</text><text fill="#000000" font-family="sans-serif" font-size="14" lengthAdjust="spacing" textLength="90.2891" x="797.9864" y="556.7031">Geolocation_1</text><line style="stroke:#000080;stroke-width:1.0;" x1="766" x2="893.5371" y1="565.2168" y2="565.2168"/><text fill="#000000" font-family="sans-serif" font-size="14" lengthAdjust="spacing" textLength="117.5371" x="771" y="584.3242">Longitude : Double</text><text fill="#000000" font-family="sans-serif" font-size="14" lengthAdjust="spacing" textLength="105.8545" x="771" y="602.9453">Latitude : Double</text><line style="stroke:#000080;stroke-width:1.0;" x1="766" x2="893.5371" y1="610.459" y2="610.459"/></g><!--class Date_3--><g id="elem_Date_3"><rect codeLine="83" fill="#AFEEEE" height="79.2031" id="Date_3" rx="5" ry="5" style="stroke:#000080;stroke-width:1.0;" width="147.3926" x="931.5" y="278.6348"/><ellipse cx="978.374" cy="300.9258" fill="#ADD1B2" rx="11" ry="11" style="stroke:#181818;stroke-width:1.0;"/><path d="M981.1396,296.8008 Q981.2959,296.582 981.4834,296.4727 Q981.6709,296.3633 981.8896,296.3633 Q982.2646,296.3633 982.499,296.6289 Q982.7334,296.8789 982.7334,297.4883 L982.7334,298.9414 Q982.7334,299.5508 982.499,299.8164 Q982.2646,300.082 981.8896,300.082 Q981.5459,300.082 981.3428,299.8789 Q981.1396,299.6914 981.0303,299.1758 Q980.9834,298.8164 980.7959,298.6289 Q980.4678,298.2539 979.8584,298.0352 Q979.249,297.8164 978.624,297.8164 Q977.8584,297.8164 977.2178,298.1445 Q976.5928,298.4727 976.0928,299.2227 Q975.6084,299.9727 975.6084,301.0039 L975.6084,302.0977 Q975.6084,303.332 976.499,304.1602 Q977.3896,304.9727 978.9834,304.9727 Q979.9209,304.9727 980.5771,304.7227 Q980.9678,304.5664 981.3896,304.1289 Q981.6553,303.8633 981.7959,303.7852 Q981.9521,303.707 982.1553,303.707 Q982.4834,303.707 982.7334,303.9727 Q982.999,304.2227 982.999,304.5664 Q982.999,304.9102 982.6553,305.3164 Q982.1553,305.8945 981.3584,306.2227 Q980.2803,306.6758 978.9834,306.6758 Q977.4678,306.6758 976.2646,306.0508 Q975.2803,305.5508 974.5928,304.4883 Q973.9053,303.4102 973.9053,302.1289 L973.9053,300.9727 Q973.9053,299.6445 974.5146,298.5039 Q975.1396,297.3477 976.2334,296.7383 Q977.3271,296.1133 978.5615,296.1133 Q979.2959,296.1133 979.9365,296.2852 Q980.5928,296.4414 981.1396,296.8008 Z " fill="#000000"/><text fill="#000000" font-family="sans-serif" font-size="12" font-style="italic" lengthAdjust="spacing" textLength="30.6855" x="1006.1035" y="296.584">&#171;VO&#187;</text><text fill="#000000" font-family="sans-serif" font-size="14" lengthAdjust="spacing" textLength="45.1445" x="998.874" y="314.7031">Date_3</text><line style="stroke:#000080;stroke-width:1.0;" x1="932.5" x2="1077.8926" y1="323.2168" y2="323.2168"/><text fill="#000000" font-family="sans-serif" font-size="14" lengthAdjust="spacing" textLength="135.3926" x="937.5" y="342.3242">Date : LocalDateTime</text><line style="stroke:#000080;stroke-width:1.0;" x1="932.5" x2="1077.8926" y1="349.8379" y2="349.8379"/></g><!--class Duration_2--><g id="elem_Duration_2"><rect codeLine="86" fill="#AFEEEE" height="79.2031" id="Duration_2" rx="5" ry="5" style="stroke:#000080;stroke-width:1.0;" width="107.6963" x="22" y="278.6348"/><ellipse cx="40.2432" cy="300.9258" fill="#ADD1B2" rx="11" ry="11" style="stroke:#181818;stroke-width:1.0;"/><path d="M43.0088,296.8008 Q43.165,296.582 43.3525,296.4727 Q43.54,296.3633 43.7588,296.3633 Q44.1338,296.3633 44.3682,296.6289 Q44.6025,296.8789 44.6025,297.4883 L44.6025,298.9414 Q44.6025,299.5508 44.3682,299.8164 Q44.1338,300.082 43.7588,300.082 Q43.415,300.082 43.2119,299.8789 Q43.0088,299.6914 42.8994,299.1758 Q42.8525,298.8164 42.665,298.6289 Q42.3369,298.2539 41.7275,298.0352 Q41.1182,297.8164 40.4932,297.8164 Q39.7275,297.8164 39.0869,298.1445 Q38.4619,298.4727 37.9619,299.2227 Q37.4775,299.9727 37.4775,301.0039 L37.4775,302.0977 Q37.4775,303.332 38.3682,304.1602 Q39.2588,304.9727 40.8525,304.9727 Q41.79,304.9727 42.4463,304.7227 Q42.8369,304.5664 43.2588,304.1289 Q43.5244,303.8633 43.665,303.7852 Q43.8213,303.707 44.0244,303.707 Q44.3525,303.707 44.6025,303.9727 Q44.8682,304.2227 44.8682,304.5664 Q44.8682,304.9102 44.5244,305.3164 Q44.0244,305.8945 43.2275,306.2227 Q42.1494,306.6758 40.8525,306.6758 Q39.3369,306.6758 38.1338,306.0508 Q37.1494,305.5508 36.4619,304.4883 Q35.7744,303.4102 35.7744,302.1289 L35.7744,300.9727 Q35.7744,299.6445 36.3838,298.5039 Q37.0088,297.3477 38.1025,296.7383 Q39.1963,296.1133 40.4307,296.1133 Q41.165,296.1133 41.8057,296.2852 Q42.4619,296.4414 43.0088,296.8008 Z " fill="#000000"/><text fill="#000000" font-family="sans-serif" font-size="12" font-style="italic" lengthAdjust="spacing" textLength="30.6855" x="73.8657" y="296.584">&#171;VO&#187;</text><text fill="#000000" font-family="sans-serif" font-size="14" lengthAdjust="spacing" textLength="68.4893" x="54.9639" y="314.7031">Duration_2</text><line style="stroke:#000080;stroke-width:1.0;" x1="23" x2="128.6963" y1="323.2168" y2="323.2168"/><text fill="#000000" font-family="sans-serif" font-size="14" lengthAdjust="spacing" textLength="95.6963" x="28" y="342.3242">Time : Duration</text><line style="stroke:#000080;stroke-width:1.0;" x1="23" x2="128.6963" y1="349.8379" y2="349.8379"/></g><!--class DronesRequested--><g id="elem_DronesRequested"><rect codeLine="89" fill="#AFEEEE" height="79.2031" id="DronesRequested" rx="5" ry="5" style="stroke:#000080;stroke-width:1.0;" width="144.8477" x="165.5" y="278.6348"/><ellipse cx="180.5" cy="300.9258" fill="#ADD1B2" rx="11" ry="11" style="stroke:#181818;stroke-width:1.0;"/><path d="M183.2656,296.8008 Q183.4219,296.582 183.6094,296.4727 Q183.7969,296.3633 184.0156,296.3633 Q184.3906,296.3633 184.625,296.6289 Q184.8594,296.8789 184.8594,297.4883 L184.8594,298.9414 Q184.8594,299.5508 184.625,299.8164 Q184.3906,300.082 184.0156,300.082 Q183.6719,300.082 183.4688,299.8789 Q183.2656,299.6914 183.1563,299.1758 Q183.1094,298.8164 182.9219,298.6289 Q182.5938,298.2539 181.9844,298.0352 Q181.375,297.8164 180.75,297.8164 Q179.9844,297.8164 179.3438,298.1445 Q178.7188,298.4727 178.2188,299.2227 Q177.7344,299.9727 177.7344,301.0039 L177.7344,302.0977 Q177.7344,303.332 178.625,304.1602 Q179.5156,304.9727 181.1094,304.9727 Q182.0469,304.9727 182.7031,304.7227 Q183.0938,304.5664 183.5156,304.1289 Q183.7813,303.8633 183.9219,303.7852 Q184.0781,303.707 184.2813,303.707 Q184.6094,303.707 184.8594,303.9727 Q185.125,304.2227 185.125,304.5664 Q185.125,304.9102 184.7813,305.3164 Q184.2813,305.8945 183.4844,306.2227 Q182.4063,306.6758 181.1094,306.6758 Q179.5938,306.6758 178.3906,306.0508 Q177.4063,305.5508 176.7188,304.4883 Q176.0313,303.4102 176.0313,302.1289 L176.0313,300.9727 Q176.0313,299.6445 176.6406,298.5039 Q177.2656,297.3477 178.3594,296.7383 Q179.4531,296.1133 180.6875,296.1133 Q181.4219,296.1133 182.0625,296.2852 Q182.7188,296.4414 183.2656,296.8008 Z " fill="#000000"/><text fill="#000000" font-family="sans-serif" font-size="12" font-style="italic" lengthAdjust="spacing" textLength="30.6855" x="235.5811" y="296.584">&#171;VO&#187;</text><text fill="#000000" font-family="sans-serif" font-size="14" lengthAdjust="spacing" textLength="112.8477" x="194.5" y="314.7031">DronesRequested</text><line style="stroke:#000080;stroke-width:1.0;" x1="166.5" x2="309.3477" y1="323.2168" y2="323.2168"/><text fill="#000000" font-family="sans-serif" font-size="14" lengthAdjust="spacing" textLength="107.3926" x="171.5" y="342.3242">Quantity : Integer</text><line style="stroke:#000080;stroke-width:1.0;" x1="166.5" x2="309.3477" y1="349.8379" y2="349.8379"/></g><!--class Description_1--><g id="elem_Description_1"><rect codeLine="92" fill="#AFEEEE" height="79.2031" id="Description_1" rx="5" ry="5" style="stroke:#000080;stroke-width:1.0;" width="188.6406" x="345.5" y="278.6348"/><ellipse cx="392.7705" cy="300.9258" fill="#ADD1B2" rx="11" ry="11" style="stroke:#181818;stroke-width:1.0;"/><path d="M395.5361,296.8008 Q395.6924,296.582 395.8799,296.4727 Q396.0674,296.3633 396.2861,296.3633 Q396.6611,296.3633 396.8955,296.6289 Q397.1299,296.8789 397.1299,297.4883 L397.1299,298.9414 Q397.1299,299.5508 396.8955,299.8164 Q396.6611,300.082 396.2861,300.082 Q395.9424,300.082 395.7393,299.8789 Q395.5361,299.6914 395.4268,299.1758 Q395.3799,298.8164 395.1924,298.6289 Q394.8643,298.2539 394.2549,298.0352 Q393.6455,297.8164 393.0205,297.8164 Q392.2549,297.8164 391.6143,298.1445 Q390.9893,298.4727 390.4893,299.2227 Q390.0049,299.9727 390.0049,301.0039 L390.0049,302.0977 Q390.0049,303.332 390.8955,304.1602 Q391.7861,304.9727 393.3799,304.9727 Q394.3174,304.9727 394.9736,304.7227 Q395.3643,304.5664 395.7861,304.1289 Q396.0518,303.8633 396.1924,303.7852 Q396.3486,303.707 396.5518,303.707 Q396.8799,303.707 397.1299,303.9727 Q397.3955,304.2227 397.3955,304.5664 Q397.3955,304.9102 397.0518,305.3164 Q396.5518,305.8945 395.7549,306.2227 Q394.6768,306.6758 393.3799,306.6758 Q391.8643,306.6758 390.6611,306.0508 Q389.6768,305.5508 388.9893,304.4883 Q388.3018,303.4102 388.3018,302.1289 L388.3018,300.9727 Q388.3018,299.6445 388.9111,298.5039 Q389.5361,297.3477 390.6299,296.7383 Q391.7236,296.1133 392.958,296.1133 Q393.6924,296.1133 394.333,296.2852 Q394.9893,296.4414 395.5361,296.8008 Z " fill="#000000"/><text fill="#000000" font-family="sans-serif" font-size="12" font-style="italic" lengthAdjust="spacing" textLength="30.6855" x="440.7275" y="296.584">&#171;VO&#187;</text><text fill="#000000" font-family="sans-serif" font-size="14" lengthAdjust="spacing" textLength="85.5996" x="413.2705" y="314.7031">Description_1</text><line style="stroke:#000080;stroke-width:1.0;" x1="346.5" x2="533.1406" y1="323.2168" y2="323.2168"/><text fill="#000000" font-family="sans-serif" font-size="14" lengthAdjust="spacing" textLength="176.6406" x="351.5" y="342.3242">DocumentReference : String</text><line style="stroke:#000080;stroke-width:1.0;" x1="346.5" x2="533.1406" y1="349.8379" y2="349.8379"/></g><!--class ShowRequestStatus--><g id="elem_ShowRequestStatus"><rect codeLine="95" fill="#AFEEEE" height="190.9297" id="ShowRequestStatus" rx="5" ry="5" style="stroke:#000080;stroke-width:1.0;" width="158.8545" x="569.5" y="222.6348"/><ellipse cx="584.5" cy="244.9258" fill="#EB937F" rx="11" ry="11" style="stroke:#181818;stroke-width:1.0;"/><path d="M583.3594,245.7227 L583.3594,248.2227 L587.6875,248.2227 L587.6875,247.3008 Q587.6875,246.6914 587.9219,246.4258 Q588.1719,246.1602 588.5469,246.1602 Q588.9219,246.1602 589.1563,246.4258 Q589.3906,246.6914 589.3906,247.3008 L589.3906,249.9258 L581.3906,249.9258 Q580.7656,249.9258 580.5,249.6914 Q580.25,249.457 580.25,249.0664 Q580.25,248.6914 580.5156,248.457 Q580.7813,248.2227 581.3906,248.2227 L581.6563,248.2227 L581.6563,241.5664 L581.3906,241.5664 Q580.7656,241.5664 580.5,241.332 Q580.25,241.0977 580.25,240.707 Q580.25,240.332 580.5,240.0977 Q580.7656,239.8633 581.3906,239.8633 L589.0156,239.8633 L589.0156,242.457 Q589.0156,243.0664 588.7813,243.332 Q588.5625,243.582 588.1719,243.582 Q587.7969,243.582 587.5625,243.332 Q587.3281,243.0664 587.3281,242.457 L587.3281,241.5664 L583.3594,241.5664 L583.3594,244.0195 L584.8438,244.0195 Q584.8438,243.3633 584.9688,243.1758 Q585.2344,242.7695 585.7031,242.7695 Q586.0781,242.7695 586.3125,243.0352 Q586.5469,243.2852 586.5469,243.8945 L586.5469,245.8633 Q586.5469,246.4102 586.4219,246.5977 Q586.1563,246.9883 585.7031,246.9883 Q585.2344,246.9883 584.9688,246.582 Q584.8438,246.3945 584.8438,245.7227 L583.3594,245.7227 Z " fill="#000000"/><text fill="#000000" font-family="sans-serif" font-size="12" font-style="italic" lengthAdjust="spacing" textLength="30.6855" x="646.5845" y="240.584">&#171;VO&#187;</text><text fill="#000000" font-family="sans-serif" font-size="14" lengthAdjust="spacing" textLength="126.8545" x="598.5" y="258.7031">ShowRequestStatus</text><line style="stroke:#000080;stroke-width:1.0;" x1="570.5" x2="727.3545" y1="267.2168" y2="267.2168"/><text fill="#000000" font-family="sans-serif" font-size="14" lengthAdjust="spacing" textLength="80.8896" x="575.5" y="286.3242">SUBMITTED</text><text fill="#000000" font-family="sans-serif" font-size="14" lengthAdjust="spacing" textLength="126.041" x="575.5" y="304.9453">UNDER_ANALYSIS</text><text fill="#000000" font-family="sans-serif" font-size="14" lengthAdjust="spacing" textLength="77.7998" x="575.5" y="323.5664">APPROVED</text><text fill="#000000" font-family="sans-serif" font-size="14" lengthAdjust="spacing" textLength="73.8965" x="575.5" y="342.1875">REJECTED</text><text fill="#000000" font-family="sans-serif" font-size="14" lengthAdjust="spacing" textLength="115.8965" x="575.5" y="360.8086">IN_PRODUCTION</text><text fill="#000000" font-family="sans-serif" font-size="14" lengthAdjust="spacing" textLength="87.124" x="575.5" y="379.4297">COMPLETED</text><text fill="#000000" font-family="sans-serif" font-size="14" lengthAdjust="spacing" textLength="84.0273" x="575.5" y="398.0508">CANCELLED</text><line style="stroke:#000080;stroke-width:1.0;" x1="570.5" x2="727.3545" y1="405.5645" y2="405.5645"/></g><!--reverse link Address to ZipCode--><g id="link_Address_ZipCode"><path codeLine="53" d="M1995,639.7248 C1995,673.9648 1995,704.6048 1995,734.9348 " fill="none" id="Address-backto-ZipCode" style="stroke:#000080;stroke-width:1.0;"/><polygon fill="#000080" points="1995,627.7248,1991,633.7248,1995,639.7248,1999,633.7248,1995,627.7248" style="stroke:#000080;stroke-width:1.0;"/><polygon fill="#000000" points="2000,691.2803,2002.9389,682.2352,1997.0611,682.2352,2000,691.2803" style="stroke:#000000;stroke-width:1.0;"/><text fill="#000000" font-family="sans-serif" font-size="13" lengthAdjust="spacing" textLength="20.96" x="2009" y="691.6631">has</text><text fill="#000000" font-family="sans-serif" font-size="13" lengthAdjust="spacing" textLength="7.23" x="1987.5495" y="650.275">1</text><text fill="#000000" font-family="sans-serif" font-size="13" lengthAdjust="spacing" textLength="7.23" x="1987.4263" y="723.9872">1</text></g><!--reverse link Place_1 to Geolocation_1--><g id="link_Place_1_Geolocation_1"><path codeLine="76" d="M830,369.8448 C830,413.6448 830,473.0348 830,520.4148 " fill="none" id="Place_1-backto-Geolocation_1" style="stroke:#000080;stroke-width:1.0;"/><polygon fill="#000080" points="830,357.8448,826,363.8448,830,369.8448,834,363.8448,830,357.8448" style="stroke:#000080;stroke-width:1.0;"/><polygon fill="#000000" points="835,458.2803,837.9389,449.2352,832.0611,449.2352,835,458.2803" style="stroke:#000000;stroke-width:1.0;"/><text fill="#000000" font-family="sans-serif" font-size="13" lengthAdjust="spacing" textLength="48.4199" x="844" y="458.6631">contains</text><text fill="#000000" font-family="sans-serif" font-size="13" lengthAdjust="spacing" textLength="7.23" x="822.4719" y="379.8651">1</text><text fill="#000000" font-family="sans-serif" font-size="13" lengthAdjust="spacing" textLength="7.23" x="822.5565" y="509.359">1</text></g><!--reverse link Client to Representative--><g id="link_Client_Representative"><path codeLine="107" d="M1623.5319,386.8755 C1599.4219,430.4655 1572.41,479.2948 1549.64,520.4748 " fill="none" id="Client-backto-Representative" style="stroke:#000080;stroke-width:1.0;"/><polygon fill="none" points="1629.34,376.3748,1622.9357,379.6891,1623.5319,386.8755,1629.9362,383.5612,1629.34,376.3748" style="stroke:#000080;stroke-width:1.0;"/><polygon fill="#000000" points="1594.58,457.6556,1601.5296,451.1629,1596.386,448.3181,1594.58,457.6556" style="stroke:#000000;stroke-width:1.0;"/><text fill="#000000" font-family="sans-serif" font-size="13" lengthAdjust="spacing" textLength="20.96" x="1606" y="458.6631">has</text><text fill="#000000" font-family="sans-serif" font-size="13" lengthAdjust="spacing" textLength="7.23" x="1618.0731" y="398.5276">1</text><text fill="#000000" font-family="sans-serif" font-size="13" lengthAdjust="spacing" textLength="19.5127" x="1533.1179" y="509.4275">1..*</text></g><!--reverse link Client to VAT--><g id="link_Client_VAT"><path codeLine="108" d="M1739.9239,344.3502 C1823.2339,372.3702 1956.05,422.4848 2067,492.6348 C2083.67,503.1748 2100.31,516.9348 2114.45,529.8348 " fill="none" id="Client-backto-VAT" style="stroke:#000080;stroke-width:1.0;"/><polygon fill="#000080" points="1728.55,340.5248,1732.9618,346.2288,1739.9239,344.3502,1735.5121,338.6462,1728.55,340.5248" style="stroke:#000080;stroke-width:1.0;"/><polygon fill="#000000" points="2024.4806,455.4993,2017.6794,448.8514,2015.0708,454.1187,2024.4806,455.4993" style="stroke:#000000;stroke-width:1.0;"/><text fill="#000000" font-family="sans-serif" font-size="13" lengthAdjust="spacing" textLength="69.3799" x="2029" y="458.6631">identified by</text><text fill="#000000" font-family="sans-serif" font-size="13" lengthAdjust="spacing" textLength="7.23" x="1736.3375" y="339.0639">1</text><text fill="#000000" font-family="sans-serif" font-size="13" lengthAdjust="spacing" textLength="7.23" x="2100.4828" y="518.8707">1</text></g><!--reverse link Client to Name_1--><g id="link_Client_Name_1"><path codeLine="109" d="M1719.3038,385.8352 C1744.8338,417.8352 1766.33,450.3248 1783,492.6348 C1813.56,570.1948 1820.76,668.0248 1822.13,725.4148 " fill="none" id="Client-backto-Name_1" style="stroke:#000080;stroke-width:1.0;"/><polygon fill="#000080" points="1711.82,376.4548,1712.4351,383.6396,1719.3038,385.8352,1718.6887,378.6504,1711.82,376.4548" style="stroke:#000080;stroke-width:1.0;"/><polygon fill="#000000" points="1823.449,574.5657,1823.6405,565.0571,1818.0149,566.7605,1823.449,574.5657" style="stroke:#000000;stroke-width:1.0;"/><text fill="#000000" font-family="sans-serif" font-size="13" lengthAdjust="spacing" textLength="57.0908" x="1831" y="575.1631">has name</text><text fill="#000000" font-family="sans-serif" font-size="13" lengthAdjust="spacing" textLength="7.23" x="1710.6054" y="398.6174">1</text><text fill="#000000" font-family="sans-serif" font-size="13" lengthAdjust="spacing" textLength="7.23" x="1814.6863" y="714.359">1</text></g><!--reverse link Client to Status--><g id="link_Client_Status"><path codeLine="110" d="M1582.8432,360.772 C1523.7232,393.392 1447.25,438.7548 1378,492.6348 C1371.88,497.3948 1365.72,502.5748 1359.69,507.9348 " fill="none" id="Client-backto-Status" style="stroke:#000080;stroke-width:1.0;"/><polygon fill="#000080" points="1593.35,354.9748,1586.1642,354.3711,1582.8432,360.772,1590.029,361.3756,1593.35,354.9748" style="stroke:#000080;stroke-width:1.0;"/><polygon fill="#000000" points="1444.8259,456.0329,1453.9949,453.5068,1450.7589,448.5999,1444.8259,456.0329" style="stroke:#000000;stroke-width:1.0;"/><text fill="#000000" font-family="sans-serif" font-size="13" lengthAdjust="spacing" textLength="20.96" x="1458" y="458.6631">has</text><text fill="#000000" font-family="sans-serif" font-size="13" lengthAdjust="spacing" textLength="7.23" x="1578.1406" y="355.271">1</text><text fill="#000000" font-family="sans-serif" font-size="13" lengthAdjust="spacing" textLength="7.23" x="1367.0356" y="496.8811">1</text></g><!--reverse link Client to Address--><g id="link_Client_Address"><path codeLine="111" d="M1738.7566,368.4166 C1790.6166,402.0666 1853.11,444.6248 1913,492.6348 C1922.09,499.9148 1931.42,507.9648 1940.38,516.0148 " fill="none" id="Client-backto-Address" style="stroke:#000080;stroke-width:1.0;"/><polygon fill="#000080" points="1728.69,361.8848,1731.546,368.5062,1738.7566,368.4166,1735.9005,361.7952,1728.69,361.8848" style="stroke:#000080;stroke-width:1.0;"/><polygon fill="#000000" points="1882.0345,456.2337,1876.472,448.5195,1873,453.2623,1882.0345,456.2337" style="stroke:#000000;stroke-width:1.0;"/><text fill="#000000" font-family="sans-serif" font-size="13" lengthAdjust="spacing" textLength="20.96" x="1887" y="458.6631">has</text><text fill="#000000" font-family="sans-serif" font-size="13" lengthAdjust="spacing" textLength="7.23" x="1736.4928" y="362.7601">1</text><text fill="#000000" font-family="sans-serif" font-size="13" lengthAdjust="spacing" textLength="7.23" x="1925.2046" y="504.2966">1</text></g><!--reverse link Client to Phone--><g id="link_Client_Phone"><path codeLine="112" d="M1581.4377,321.9693 C1474.4377,329.2493 1280.65,359.9648 1188,492.6348 C1135.67,567.5748 1193.73,677.4948 1231.96,735.1348 " fill="none" id="Client-backto-Phone" style="stroke:#000080;stroke-width:1.0;"/><polygon fill="#000080" points="1593.41,321.1548,1587.1523,317.5713,1581.4377,321.9693,1587.6954,325.5528,1593.41,321.1548" style="stroke:#000080;stroke-width:1.0;"/><polygon fill="#000000" points="1189.771,573.5978,1197.8562,568.5898,1193.3685,564.7939,1189.771,573.5978" style="stroke:#000000;stroke-width:1.0;"/><text fill="#000000" font-family="sans-serif" font-size="13" lengthAdjust="spacing" textLength="20.96" x="1202" y="575.1631">has</text><text fill="#000000" font-family="sans-serif" font-size="13" lengthAdjust="spacing" textLength="7.23" x="1578.2075" y="317.5405">1</text><text fill="#000000" font-family="sans-serif" font-size="13" lengthAdjust="spacing" textLength="7.23" x="1219.6004" y="723.9206">1</text></g><!--reverse link Client to Email--><g id="link_Client_Email"><path codeLine="113" d="M1691.1347,387.4513 C1721.2647,463.0113 1757.66,587.9748 1716,695.6348 C1710.45,709.9848 1700.9,723.3048 1690.57,734.7448 " fill="none" id="Client-backto-Email" style="stroke:#000080;stroke-width:1.0;"/><polygon fill="#000080" points="1686.69,376.3048,1685.1969,383.3596,1691.1347,387.4513,1692.6279,380.3964,1686.69,376.3048" style="stroke:#000080;stroke-width:1.0;"/><polygon fill="#000000" points="1737.9919,574.7803,1740.9455,565.74,1735.0677,565.7304,1737.9919,574.7803" style="stroke:#000000;stroke-width:1.0;"/><text fill="#000000" font-family="sans-serif" font-size="13" lengthAdjust="spacing" textLength="27.46" x="1747" y="575.1631">uses</text><text fill="#000000" font-family="sans-serif" font-size="13" lengthAdjust="spacing" textLength="7.23" x="1682.4126" y="398.4491">1</text><text fill="#000000" font-family="sans-serif" font-size="13" lengthAdjust="spacing" textLength="7.23" x="1690.5895" y="723.7658">1</text></g><!--reverse link Representative to Name_1--><g id="link_Representative_Name_1"><path codeLine="115" d="M1603.7877,625.4857 C1654.0377,659.6057 1710.94,698.2348 1759.27,731.0448 " fill="none" id="Representative-backto-Name_1" style="stroke:#000080;stroke-width:1.0;"/><polygon fill="#000080" points="1593.86,618.7448,1596.5769,625.4245,1603.7877,625.4857,1601.0708,618.806,1593.86,618.7448" style="stroke:#000080;stroke-width:1.0;"/><polygon fill="#000000" points="1708.1367,689.0887,1702.3041,681.5767,1699.0025,686.4397,1708.1367,689.0887" style="stroke:#000000;stroke-width:1.0;"/><text fill="#000000" font-family="sans-serif" font-size="13" lengthAdjust="spacing" textLength="57.0908" x="1713" y="691.6631">has name</text><text fill="#000000" font-family="sans-serif" font-size="13" lengthAdjust="spacing" textLength="7.23" x="1595.9571" y="640.5458">1</text><text fill="#000000" font-family="sans-serif" font-size="13" lengthAdjust="spacing" textLength="7.23" x="1744.2244" y="721.7531">1</text></g><!--reverse link Representative to Phone--><g id="link_Representative_Phone"><path codeLine="116" d="M1451.1705,626.0768 C1405.1505,661.5968 1352.82,701.9948 1310.01,735.0348 " fill="none" id="Representative-backto-Phone" style="stroke:#000080;stroke-width:1.0;"/><polygon fill="#000080" points="1460.67,618.7448,1453.4762,619.2443,1451.1705,626.0768,1458.3643,625.5773,1460.67,618.7448" style="stroke:#000080;stroke-width:1.0;"/><polygon fill="#000000" points="1384.0419,689.3354,1392.9979,686.1351,1389.4064,681.4821,1384.0419,689.3354" style="stroke:#000000;stroke-width:1.0;"/><text fill="#000000" font-family="sans-serif" font-size="13" lengthAdjust="spacing" textLength="20.96" x="1397" y="691.6631">has</text><text fill="#000000" font-family="sans-serif" font-size="13" lengthAdjust="spacing" textLength="7.23" x="1444.8697" y="640.5458">1</text><text fill="#000000" font-family="sans-serif" font-size="13" lengthAdjust="spacing" textLength="7.23" x="1311.0652" y="723.8035">1</text></g><!--reverse link Representative to Email--><g id="link_Representative_Email"><path codeLine="117" d="M1532.2957,630.385 C1537.3557,654.795 1543.54,672.3848 1558,695.6348 C1567,710.1048 1579.46,723.4748 1592.14,734.9148 " fill="none" id="Representative-backto-Email" style="stroke:#000080;stroke-width:1.0;"/><polygon fill="#000080" points="1529.86,618.6348,1527.1611,625.3218,1532.2957,630.385,1534.9946,623.698,1529.86,618.6348" style="stroke:#000080;stroke-width:1.0;"/><polygon fill="#000000" points="1565.4842,690.6195,1563.5407,681.3096,1558.4397,684.23,1565.4842,690.6195" style="stroke:#000000;stroke-width:1.0;"/><text fill="#000000" font-family="sans-serif" font-size="13" lengthAdjust="spacing" textLength="27.46" x="1572" y="691.6631">uses</text><text fill="#000000" font-family="sans-serif" font-size="13" lengthAdjust="spacing" textLength="7.23" x="1523.3571" y="640.421">1</text><text fill="#000000" font-family="sans-serif" font-size="13" lengthAdjust="spacing" textLength="7.23" x="1575.857" y="723.9639">1</text></g><!--reverse link Representative to Position--><g id="link_Representative_Position"><path codeLine="118" d="M1488.736,629.5237 C1479.776,647.0837 1476.52,656.8248 1472,676.6348 C1467.69,695.5248 1467.86,717.0148 1469.35,734.9648 " fill="none" id="Representative-backto-Position" style="stroke:#000080;stroke-width:1.0;"/><polygon fill="#000080" points="1494.19,618.8348,1487.9,622.3612,1488.736,629.5237,1495.026,625.9972,1494.19,618.8348" style="stroke:#000080;stroke-width:1.0;"/><polygon fill="#000000" points="1476.0959,691.1978,1480.6219,682.8333,1474.841,681.7704,1476.0959,691.1978" style="stroke:#000000;stroke-width:1.0;"/><text fill="#000000" font-family="sans-serif" font-size="13" lengthAdjust="spacing" textLength="31.0781" x="1486" y="691.6631">holds</text><text fill="#000000" font-family="sans-serif" font-size="13" lengthAdjust="spacing" textLength="7.23" x="1482.894" y="640.6479">1</text><text fill="#000000" font-family="sans-serif" font-size="13" lengthAdjust="spacing" textLength="7.23" x="1460.8496" y="724.0222">1</text></g><!--link ShowRequest to Client--><g id="link_ShowRequest_Client"><path codeLine="120" d="M708.76,124.5148 C774.39,136.0348 882.85,155.4048 976,173.6348 C1202.56,217.9748 1470.15,275.5448 1593.06,302.2748 " fill="none" id="ShowRequest-Client" style="stroke:#000080;stroke-width:1.0;"/><polygon fill="#000000" points="1078.9019,184.2657,1070.6134,179.6018,1069.4551,185.3644,1078.9019,184.2657" style="stroke:#000000;stroke-width:1.0;"/><text fill="#000000" font-family="sans-serif" font-size="13" lengthAdjust="spacing" textLength="61.4199" x="1083" y="188.6631">references</text><text fill="#000000" font-family="sans-serif" font-size="13" lengthAdjust="spacing" textLength="19.5127" x="716.7883" y="121.9171">1..*</text><text fill="#000000" font-family="sans-serif" font-size="13" lengthAdjust="spacing" textLength="7.23" x="1578.2626" y="296.6303">1</text></g><!--reverse link ShowRequest to Place_1--><g id="link_ShowRequest_Place_1"><path codeLine="122" d="M705.1906,150.7211 C717.4306,159.5811 720.43,162.8148 731,173.6348 C762.08,205.4648 790.11,248.0548 808.35,278.5548 " fill="none" id="ShowRequest-backto-Place_1" style="stroke:#000080;stroke-width:1.0;"/><polygon fill="#000080" points="695.47,143.6848,697.9849,150.4431,705.1906,150.7211,702.6757,143.9627,695.47,143.6848" style="stroke:#000080;stroke-width:1.0;"/><polygon fill="#000000" points="755.14,187.1713,751.7468,178.2867,747.1726,181.978,755.14,187.1713" style="stroke:#000000;stroke-width:1.0;"/><text fill="#000000" font-family="sans-serif" font-size="13" lengthAdjust="spacing" textLength="52.7427" x="761" y="188.6631">occurs at</text><text fill="#000000" font-family="sans-serif" font-size="13" lengthAdjust="spacing" textLength="7.23" x="696.6673" y="165.2246">1</text><text fill="#000000" font-family="sans-serif" font-size="13" lengthAdjust="spacing" textLength="7.23" x="797.0809" y="267.3269">1</text></g><!--reverse link ShowRequest to Date_3--><g id="link_ShowRequest_Date_3"><path codeLine="123" d="M720.3681,130.0791 C777.2081,144.5691 851.48,169.2548 914,215.1348 C938.11,232.8248 960.53,257.8148 977.08,278.6248 " fill="none" id="ShowRequest-backto-Date_3" style="stroke:#000080;stroke-width:1.0;"/><polygon fill="#000080" points="708.74,127.1148,713.566,132.473,720.3681,130.0791,715.5422,124.7209,708.74,127.1148" style="stroke:#000080;stroke-width:1.0;"/><polygon fill="#000000" points="884.3277,185.7845,877.9708,178.7106,875.0269,183.7981,884.3277,185.7845" style="stroke:#000000;stroke-width:1.0;"/><text fill="#000000" font-family="sans-serif" font-size="13" lengthAdjust="spacing" textLength="78.0508" x="889" y="188.6631">scheduled for</text><text fill="#000000" font-family="sans-serif" font-size="13" lengthAdjust="spacing" textLength="7.23" x="716.8468" y="144.0688">1</text><text fill="#000000" font-family="sans-serif" font-size="13" lengthAdjust="spacing" textLength="7.23" x="964.6657" y="267.4089">1</text></g><!--reverse link ShowRequest to Duration_2--><g id="link_ShowRequest_Duration_2"><path codeLine="124" d="M577.1241,121.0739 C459.8941,133.2439 217.54,163.6648 148,215.1348 C125.7,231.6448 107.7,257.1448 95.27,278.5148 " fill="none" id="ShowRequest-backto-Duration_2" style="stroke:#000080;stroke-width:1.0;"/><polygon fill="#000080" points="589.06,119.8348,582.679,116.4757,577.1241,121.0739,583.5051,124.4329,589.06,119.8348" style="stroke:#000080;stroke-width:1.0;"/><polygon fill="#000000" points="247.2473,184.8332,256.7578,184.8175,254.9323,179.2304,247.2473,184.8332" style="stroke:#000000;stroke-width:1.0;"/><text fill="#000000" font-family="sans-serif" font-size="13" lengthAdjust="spacing" textLength="71.5508" x="261" y="188.6631">has duration</text><text fill="#000000" font-family="sans-serif" font-size="13" lengthAdjust="spacing" textLength="7.23" x="574.3322" y="116.6869">1</text><text fill="#000000" font-family="sans-serif" font-size="13" lengthAdjust="spacing" textLength="7.23" x="91.0263" y="267.28">1</text></g><!--reverse link ShowRequest to DronesRequested--><g id="link_ShowRequest_DronesRequested"><path codeLine="125" d="M577.4395,125.1191 C509.6695,137.3091 409.81,161.9648 328,215.1348 C302.65,231.6048 280.15,257.1048 263.99,278.4848 " fill="none" id="ShowRequest-backto-DronesRequested" style="stroke:#000080;stroke-width:1.0;"/><polygon fill="#000080" points="589.25,122.9948,582.6366,120.1201,577.4395,125.1191,584.0529,127.9938,589.25,122.9948" style="stroke:#000080;stroke-width:1.0;"/><polygon fill="#000000" points="401.5088,185.4778,410.9251,184.1423,408.3418,178.8626,401.5088,185.4778" style="stroke:#000000;stroke-width:1.0;"/><text fill="#000000" font-family="sans-serif" font-size="13" lengthAdjust="spacing" textLength="46.9663" x="415" y="188.6631">requires</text><text fill="#000000" font-family="sans-serif" font-size="13" lengthAdjust="spacing" textLength="7.23" x="574.1503" y="139.4209">1</text><text fill="#000000" font-family="sans-serif" font-size="13" lengthAdjust="spacing" textLength="7.23" x="260.8883" y="267.2449">1</text></g><!--reverse link ShowRequest to Description_1--><g id="link_ShowRequest_Description_1"><path codeLine="126" d="M583.6734,150.0978 C569.6534,158.8278 565.28,162.6548 553,173.6348 C518.12,204.8048 485.92,247.6948 464.89,278.4448 " fill="none" id="ShowRequest-backto-Description_1" style="stroke:#000080;stroke-width:1.0;"/><polygon fill="#000080" points="593.86,143.7548,586.6524,143.5307,583.6734,150.0978,590.881,150.3218,593.86,143.7548" style="stroke:#000080;stroke-width:1.0;"/><polygon fill="#000000" points="554.6038,186.9499,562.9045,182.3077,558.5906,178.3153,554.6038,186.9499" style="stroke:#000000;stroke-width:1.0;"/><text fill="#000000" font-family="sans-serif" font-size="13" lengthAdjust="spacing" textLength="73.709" x="567" y="188.6631">described by</text><text fill="#000000" font-family="sans-serif" font-size="13" lengthAdjust="spacing" textLength="7.23" x="575.6879" y="165.3079">1</text><text fill="#000000" font-family="sans-serif" font-size="13" lengthAdjust="spacing" textLength="7.23" x="461.4815" y="267.4989">1</text></g><!--reverse link ShowRequest to ShowRequestStatus--><g id="link_ShowRequest_ShowRequestStatus"><path codeLine="127" d="M649,155.6548 C649,176.5448 649,193.8248 649,222.3848 " fill="none" id="ShowRequest-backto-ShowRequestStatus" style="stroke:#000080;stroke-width:1.0;"/><polygon fill="#000080" points="649,143.6548,645,149.6548,649,155.6548,653,149.6548,649,143.6548" style="stroke:#000080;stroke-width:1.0;"/><polygon fill="#000000" points="654,188.2803,656.9389,179.2352,651.0611,179.2352,654,188.2803" style="stroke:#000000;stroke-width:1.0;"/><text fill="#000000" font-family="sans-serif" font-size="13" lengthAdjust="spacing" textLength="59.2554" x="663" y="188.6631">has status</text><text fill="#000000" font-family="sans-serif" font-size="13" lengthAdjust="spacing" textLength="7.23" x="641.339" y="165.1888">1</text><text fill="#000000" font-family="sans-serif" font-size="13" lengthAdjust="spacing" textLength="7.23" x="641.7464" y="211.4453">1</text></g><!--SRC=[ZLPDR-984BtpArgSPcOteysCzeAYI8uno2jYM0EHPYzHnwwOLamtwOymqIh_VQljjh6npImNJ5MzUjLTLS-e5yOFLD8zsL6U7YNJ6ZXvfhc2aQfzQaTJSMGywtYaC3nDXEGWoVKV3KUIKwN8loE2dpkQl6H5f2zo8ScAvh0nyjK8XibiX2UbE9REYBwzboWXKv2znisE9IySaE1wzD4WFI0HpM20Ti6odLvhWFmkDp3CCHDSDqnD0k1cxxBtfv-BF0KkHVe3ybmSNMI3PIafpo26j9LNQP0WzFi1_FEqPQAv1E2ZKNN0iPypu9fuMIOXenh6vEPcPhdbxQqhiEo02xov2UBQGyXlv8tgJv_9X3nuczh6wHuAOuGFZzUrNMcgZIeyw-Any7oC6ZGn72GePAAQlO6bQx1X2jdoXscHh0qAfwVmlafQV5WsaZmicopM69dz4uwYBLJYl3eWEG7BX5tiZ4cbhREDjPy5xVEuhCL4bBVIKr2ugf_ZOBvTU77zUneiWarGdvc4qImEetbm7qIRskZ7WLS5jOxXfQcqyz-Xj2K2wEufYC_qUvyPHqtBSuyZgsZ6rsFovUgg-Fw77NoHsjlOKKLkcrLLhavL9ynGNrOxmNk0XVcNJGtsbELTS66kZd21MYYccU0zx9Nd3FpHsCJrJXnZU3MW_iywDgFhdUoEzogdIU-O5ewXOQnGpMxD0LKaeVOKw9cG1CMDCcuRr-1hHtLO5u9dJ9kYWLDXdd9eB8VkyRGECyKBUVpUpMhj25iWSMwVDsmFZTCui95bMT-w2Ip0yhgGBbRYy2XttP1s4_njADVbMeHSGmQocmDK8jbXw6Qc8Z5xLB0Odb71UTBRbr8ZJftlbulrzku-t9maOHjDW_ZHYxp5ZtMuTaPljOgN3tLC7FmL-2T863sYUxhrD-4oSZP_URzgAetlHNwmMDIYWgqQkPU4dHTHpCtNhr_6vvfUxNiZk1eogyOJml3Dfzapmvj-UkyFTEfRfh8Ytn_cBkW2usch1qDAHRaGKAh6X1W5nJgSdVTNTLy8RrDV23mhuLBAanJjK5YAWfjYudhcejrf9_ZUTNE907AEQ6HtoZ4X8acCL8Hg91YATWiz8IhPGMfoRFWp_bEv03WjSNafgJDSmfmjhptBgs6okAX1K6jR9oGjVZzL4pa4w-vcMMRvnyTUDQf43cIx_lRzJ_oZXt0B8GwZo1KA0RQIatjyo-NaKmmqnJShQifF_JkPcJotgc0IRIHy7lq7]--></g></svg>