<svg xmlns="http://www.w3.org/2000/svg" xmlns:xlink="http://www.w3.org/1999/xlink" contentStyleType="text/css" height="830px" preserveAspectRatio="none" style="width:1000px;height:830px;background:#FFFFFF;" version="1.1" viewBox="0 0 1000 830" width="1000px" zoomAndPan="magnify"><defs/><g><!--class ListClientShowRequestsUI--><g id="elem_ListClientShowRequestsUI"><rect codeLine="4" fill="#F1F1F1" height="85.2422" id="ListClientShowRequestsUI" rx="2.5" ry="2.5" style="stroke:#181818;stroke-width:0.5;" width="307.6816" x="256.5" y="7"/><ellipse cx="323.2188" cy="23" fill="#ADD1B2" rx="11" ry="11" style="stroke:#181818;stroke-width:1.0;"/><path d="M325.9844,18.875 Q326.1406,18.6563 326.3281,18.5469 Q326.5156,18.4375 326.7344,18.4375 Q327.1094,18.4375 327.3438,18.7031 Q327.5781,18.9531 327.5781,19.5625 L327.5781,21.0156 Q327.5781,21.625 327.3438,21.8906 Q327.1094,22.1563 326.7344,22.1563 Q326.3906,22.1563 326.1875,21.9531 Q325.9844,21.7656 325.875,21.25 Q325.8281,20.8906 325.6406,20.7031 Q325.3125,20.3281 324.7031,20.1094 Q324.0938,19.8906 323.4688,19.8906 Q322.7031,19.8906 322.0625,20.2188 Q321.4375,20.5469 320.9375,21.2969 Q320.4531,22.0469 320.4531,23.0781 L320.4531,24.1719 Q320.4531,25.4063 321.3438,26.2344 Q322.2344,27.0469 323.8281,27.0469 Q324.7656,27.0469 325.4219,26.7969 Q325.8125,26.6406 326.2344,26.2031 Q326.5,25.9375 326.6406,25.8594 Q326.7969,25.7813 327,25.7813 Q327.3281,25.7813 327.5781,26.0469 Q327.8438,26.2969 327.8438,26.6406 Q327.8438,26.9844 327.5,27.3906 Q327,27.9688 326.2031,28.2969 Q325.125,28.75 323.8281,28.75 Q322.3125,28.75 321.1094,28.125 Q320.125,27.625 319.4375,26.5625 Q318.75,25.4844 318.75,24.2031 L318.75,23.0469 Q318.75,21.7188 319.3594,20.5781 Q319.9844,19.4219 321.0781,18.8125 Q322.1719,18.1875 323.4063,18.1875 Q324.1406,18.1875 324.7813,18.3594 Q325.4375,18.5156 325.9844,18.875 Z " fill="#000000"/><text fill="#000000" font-family="sans-serif" font-size="14" lengthAdjust="spacing" textLength="165.7441" x="343.7188" y="28.7969">ListClientShowRequestsUI</text><line style="stroke:#181818;stroke-width:0.5;" x1="257.5" x2="563.1816" y1="39" y2="39"/><rect fill="none" height="6" style="stroke:#C82930;stroke-width:1.0;" width="6" x="264.5" y="50.8105"/><text fill="#000000" font-family="sans-serif" font-size="14" lengthAdjust="spacing" textLength="281.6816" x="276.5" y="58.1074">controller : ListClientShowRequestsController</text><line style="stroke:#181818;stroke-width:0.5;" x1="257.5" x2="563.1816" y1="65.6211" y2="65.6211"/><ellipse cx="267.5" cy="80.4316" fill="#84BE84" rx="3" ry="3" style="stroke:#038048;stroke-width:1.0;"/><text fill="#000000" font-family="sans-serif" font-size="14" lengthAdjust="spacing" textLength="59.917" x="276.5" y="84.7285">doShow()</text></g><!--class ListClientShowRequestsController--><g id="elem_ListClientShowRequestsController"><rect codeLine="9" fill="#F1F1F1" height="122.4844" id="ListClientShowRequestsController" rx="2.5" ry="2.5" style="stroke:#181818;stroke-width:0.5;" width="553.5293" x="133.5" y="153"/><ellipse cx="299.7979" cy="169" fill="#ADD1B2" rx="11" ry="11" style="stroke:#181818;stroke-width:1.0;"/><path d="M302.5635,164.875 Q302.7197,164.6563 302.9072,164.5469 Q303.0947,164.4375 303.3135,164.4375 Q303.6885,164.4375 303.9229,164.7031 Q304.1572,164.9531 304.1572,165.5625 L304.1572,167.0156 Q304.1572,167.625 303.9229,167.8906 Q303.6885,168.1563 303.3135,168.1563 Q302.9697,168.1563 302.7666,167.9531 Q302.5635,167.7656 302.4541,167.25 Q302.4072,166.8906 302.2197,166.7031 Q301.8916,166.3281 301.2822,166.1094 Q300.6729,165.8906 300.0479,165.8906 Q299.2822,165.8906 298.6416,166.2188 Q298.0166,166.5469 297.5166,167.2969 Q297.0322,168.0469 297.0322,169.0781 L297.0322,170.1719 Q297.0322,171.4063 297.9229,172.2344 Q298.8135,173.0469 300.4072,173.0469 Q301.3447,173.0469 302.001,172.7969 Q302.3916,172.6406 302.8135,172.2031 Q303.0791,171.9375 303.2197,171.8594 Q303.376,171.7813 303.5791,171.7813 Q303.9072,171.7813 304.1572,172.0469 Q304.4229,172.2969 304.4229,172.6406 Q304.4229,172.9844 304.0791,173.3906 Q303.5791,173.9688 302.7822,174.2969 Q301.7041,174.75 300.4072,174.75 Q298.8916,174.75 297.6885,174.125 Q296.7041,173.625 296.0166,172.5625 Q295.3291,171.4844 295.3291,170.2031 L295.3291,169.0469 Q295.3291,167.7188 295.9385,166.5781 Q296.5635,165.4219 297.6572,164.8125 Q298.751,164.1875 299.9854,164.1875 Q300.7197,164.1875 301.3604,164.3594 Q302.0166,164.5156 302.5635,164.875 Z " fill="#000000"/><text fill="#000000" font-family="sans-serif" font-size="14" lengthAdjust="spacing" textLength="212.4336" x="320.2979" y="174.7969">ListClientShowRequestsController</text><line style="stroke:#181818;stroke-width:0.5;" x1="134.5" x2="686.0293" y1="185" y2="185"/><rect fill="none" height="6" style="stroke:#C82930;stroke-width:1.0;" width="6" x="141.5" y="196.8105"/><text fill="#000000" font-family="sans-serif" font-size="14" lengthAdjust="spacing" textLength="213.9785" x="153.5" y="204.1074">clientRepository : ClientRepository</text><rect fill="none" height="6" style="stroke:#C82930;stroke-width:1.0;" width="6" x="141.5" y="215.4316"/><text fill="#000000" font-family="sans-serif" font-size="14" lengthAdjust="spacing" textLength="317.4951" x="153.5" y="222.7285">showRequestRepository : ShowRequestRepository</text><line style="stroke:#181818;stroke-width:0.5;" x1="134.5" x2="686.0293" y1="230.2422" y2="230.2422"/><ellipse cx="144.5" cy="245.0527" fill="#84BE84" rx="3" ry="3" style="stroke:#038048;stroke-width:1.0;"/><text fill="#000000" font-family="sans-serif" font-size="14" lengthAdjust="spacing" textLength="276.2402" x="153.5" y="249.3496">getAllClientsForSelection() : Iterable&lt;Client&gt;</text><ellipse cx="144.5" cy="263.6738" fill="#84BE84" rx="3" ry="3" style="stroke:#038048;stroke-width:1.0;"/><text fill="#000000" font-family="sans-serif" font-size="14" lengthAdjust="spacing" textLength="527.5293" x="153.5" y="267.9707">listShowRequestsForClient(clientVAT : VAT) : Iterable&lt;ShowRequestSummaryDTO&gt;</text></g><!--class ShowRequestSummaryDTO--><g id="elem_ShowRequestSummaryDTO"><rect codeLine="16" fill="#F1F1F1" height="116.4453" id="ShowRequestSummaryDTO" rx="2.5" ry="2.5" style="stroke:#181818;stroke-width:0.5;" width="231.4199" x="7" y="354"/><ellipse cx="32.263" cy="376.291" fill="#ADD1B2" rx="11" ry="11" style="stroke:#181818;stroke-width:1.0;"/><path d="M35.0286,372.166 Q35.1849,371.9473 35.3724,371.8379 Q35.5599,371.7285 35.7786,371.7285 Q36.1536,371.7285 36.388,371.9941 Q36.6224,372.2441 36.6224,372.8535 L36.6224,374.3066 Q36.6224,374.916 36.388,375.1816 Q36.1536,375.4473 35.7786,375.4473 Q35.4349,375.4473 35.2317,375.2441 Q35.0286,375.0566 34.9192,374.541 Q34.8724,374.1816 34.6849,373.9941 Q34.3567,373.6191 33.7474,373.4004 Q33.138,373.1816 32.513,373.1816 Q31.7474,373.1816 31.1067,373.5098 Q30.4817,373.8379 29.9817,374.5879 Q29.4974,375.3379 29.4974,376.3691 L29.4974,377.4629 Q29.4974,378.6973 30.388,379.5254 Q31.2786,380.3379 32.8724,380.3379 Q33.8099,380.3379 34.4661,380.0879 Q34.8567,379.9316 35.2786,379.4941 Q35.5442,379.2285 35.6849,379.1504 Q35.8411,379.0723 36.0442,379.0723 Q36.3724,379.0723 36.6224,379.3379 Q36.888,379.5879 36.888,379.9316 Q36.888,380.2754 36.5442,380.6816 Q36.0442,381.2598 35.2474,381.5879 Q34.1692,382.041 32.8724,382.041 Q31.3567,382.041 30.1536,381.416 Q29.1692,380.916 28.4817,379.8535 Q27.7942,378.7754 27.7942,377.4941 L27.7942,376.3379 Q27.7942,375.0098 28.4036,373.8691 Q29.0286,372.7129 30.1224,372.1035 Q31.2161,371.4785 32.4505,371.4785 Q33.1849,371.4785 33.8255,371.6504 Q34.4817,371.8066 35.0286,372.166 Z " fill="#000000"/><text fill="#000000" font-family="sans-serif" font-size="12" font-style="italic" lengthAdjust="spacing" textLength="38.6777" x="117.5114" y="371.9492">&#171;DTO&#187;</text><text fill="#000000" font-family="sans-serif" font-size="14" lengthAdjust="spacing" textLength="176.6133" x="48.5437" y="390.0684">ShowRequestSummaryDTO</text><line style="stroke:#181818;stroke-width:0.5;" x1="8" x2="237.4199" y1="398.582" y2="398.582"/><ellipse cx="18" cy="413.3926" fill="none" rx="3" ry="3" style="stroke:#038048;stroke-width:1.0;"/><text fill="#000000" font-family="sans-serif" font-size="14" lengthAdjust="spacing" textLength="205.4199" x="27" y="417.6895">submissionDate : LocalDateTime</text><ellipse cx="18" cy="432.0137" fill="none" rx="3" ry="3" style="stroke:#038048;stroke-width:1.0;"/><text fill="#000000" font-family="sans-serif" font-size="14" lengthAdjust="spacing" textLength="119.0547" x="27" y="436.3105">placeName : String</text><ellipse cx="18" cy="450.6348" fill="none" rx="3" ry="3" style="stroke:#038048;stroke-width:1.0;"/><text fill="#000000" font-family="sans-serif" font-size="14" lengthAdjust="spacing" textLength="175.875" x="27" y="454.9316">status : ShowRequestStatus</text><line style="stroke:#181818;stroke-width:0.5;" x1="8" x2="237.4199" y1="462.4453" y2="462.4453"/></g><!--class ClientRepository--><g id="elem_ClientRepository"><rect codeLine="22" fill="#F1F1F1" height="97.8242" id="ClientRepository" rx="2.5" ry="2.5" style="stroke:#181818;stroke-width:0.5;" width="274.9922" x="273" y="363"/><ellipse cx="354.8911" cy="385.291" fill="#B4A7E5" rx="11" ry="11" style="stroke:#181818;stroke-width:1.0;"/><path d="M355.8442,381.9316 L355.8442,388.5879 L357.563,388.5879 Q358.1724,388.5879 358.438,388.8223 Q358.7036,389.0566 358.7036,389.4473 Q358.7036,389.8223 358.438,390.0566 Q358.1724,390.291 357.563,390.291 L352.4224,390.291 Q351.813,390.291 351.5474,390.0566 Q351.2817,389.8223 351.2817,389.4316 Q351.2817,389.0566 351.5474,388.8223 Q351.813,388.5879 352.4224,388.5879 L354.1411,388.5879 L354.1411,381.9316 L352.4224,381.9316 Q351.813,381.9316 351.5474,381.6973 Q351.2817,381.4629 351.2817,381.0723 Q351.2817,380.6973 351.5474,380.4629 Q351.813,380.2285 352.4224,380.2285 L357.563,380.2285 Q358.1724,380.2285 358.438,380.4629 Q358.7036,380.6973 358.7036,381.0723 Q358.7036,381.4629 358.438,381.6973 Q358.1724,381.9316 357.563,381.9316 L355.8442,381.9316 Z " fill="#000000"/><text fill="#000000" font-family="sans-serif" font-size="12" font-style="italic" lengthAdjust="spacing" textLength="70.7051" x="391.3936" y="380.9492">&#171;Repository&#187;</text><text fill="#000000" font-family="sans-serif" font-size="14" font-style="italic" lengthAdjust="spacing" textLength="102.71" x="375.3911" y="399.0684">ClientRepository</text><line style="stroke:#181818;stroke-width:0.5;" x1="274" x2="546.9922" y1="407.582" y2="407.582"/><line style="stroke:#181818;stroke-width:0.5;" x1="274" x2="546.9922" y1="415.582" y2="415.582"/><ellipse cx="284" cy="430.3926" fill="#84BE84" rx="3" ry="3" style="stroke:#038048;stroke-width:1.0;"/><text fill="#000000" font-family="sans-serif" font-size="14" lengthAdjust="spacing" textLength="157.9648" x="293" y="434.6895">findAll() : Iterable&lt;Client&gt;</text><ellipse cx="284" cy="449.0137" fill="#84BE84" rx="3" ry="3" style="stroke:#038048;stroke-width:1.0;"/><text fill="#000000" font-family="sans-serif" font-size="14" lengthAdjust="spacing" textLength="248.9922" x="293" y="453.3105">findByVAT(vat : VAT) : Optional&lt;Client&gt;</text></g><!--class ShowRequestRepository--><g id="elem_ShowRequestRepository"><rect codeLine="27" fill="#F1F1F1" height="79.2031" id="ShowRequestRepository" rx="2.5" ry="2.5" style="stroke:#181818;stroke-width:0.5;" width="397.9434" x="583.5" y="372.5"/><ellipse cx="701.1807" cy="394.791" fill="#B4A7E5" rx="11" ry="11" style="stroke:#181818;stroke-width:1.0;"/><path d="M702.1338,391.4316 L702.1338,398.0879 L703.8525,398.0879 Q704.4619,398.0879 704.7275,398.3223 Q704.9932,398.5566 704.9932,398.9473 Q704.9932,399.3223 704.7275,399.5566 Q704.4619,399.791 703.8525,399.791 L698.7119,399.791 Q698.1025,399.791 697.8369,399.5566 Q697.5713,399.3223 697.5713,398.9316 Q697.5713,398.5566 697.8369,398.3223 Q698.1025,398.0879 698.7119,398.0879 L700.4307,398.0879 L700.4307,391.4316 L698.7119,391.4316 Q698.1025,391.4316 697.8369,391.1973 Q697.5713,390.9629 697.5713,390.5723 Q697.5713,390.1973 697.8369,389.9629 Q698.1025,389.7285 698.7119,389.7285 L703.8525,389.7285 Q704.4619,389.7285 704.7275,389.9629 Q704.9932,390.1973 704.9932,390.5723 Q704.9932,390.9629 704.7275,391.1973 Q704.4619,391.4316 703.8525,391.4316 L702.1338,391.4316 Z " fill="#000000"/><text fill="#000000" font-family="sans-serif" font-size="12" font-style="italic" lengthAdjust="spacing" textLength="70.7051" x="763.3691" y="390.4492">&#171;Repository&#187;</text><text fill="#000000" font-family="sans-serif" font-size="14" font-style="italic" lengthAdjust="spacing" textLength="154.082" x="721.6807" y="408.5684">ShowRequestRepository</text><line style="stroke:#181818;stroke-width:0.5;" x1="584.5" x2="980.4434" y1="417.082" y2="417.082"/><line style="stroke:#181818;stroke-width:0.5;" x1="584.5" x2="980.4434" y1="425.082" y2="425.082"/><ellipse cx="594.5" cy="439.8926" fill="#84BE84" rx="3" ry="3" style="stroke:#038048;stroke-width:1.0;"/><text fill="#000000" font-family="sans-serif" font-size="14" lengthAdjust="spacing" textLength="371.9434" x="603.5" y="444.1895">findByClientVAT(clientVAT : VAT) : Iterable&lt;ShowRequest&gt;</text></g><!--class Client--><g id="elem_Client"><rect codeLine="31" fill="#F1F1F1" height="97.8242" id="Client" rx="2.5" ry="2.5" style="stroke:#181818;stroke-width:0.5;" width="134.9307" x="389" y="567.5"/><ellipse cx="409.7863" cy="589.791" fill="#ADD1B2" rx="11" ry="11" style="stroke:#181818;stroke-width:1.0;"/><path d="M412.5519,585.666 Q412.7082,585.4473 412.8957,585.3379 Q413.0832,585.2285 413.3019,585.2285 Q413.6769,585.2285 413.9113,585.4941 Q414.1457,585.7441 414.1457,586.3535 L414.1457,587.8066 Q414.1457,588.416 413.9113,588.6816 Q413.6769,588.9473 413.3019,588.9473 Q412.9582,588.9473 412.755,588.7441 Q412.5519,588.5566 412.4425,588.041 Q412.3957,587.6816 412.2082,587.4941 Q411.88,587.1191 411.2707,586.9004 Q410.6613,586.6816 410.0363,586.6816 Q409.2707,586.6816 408.63,587.0098 Q408.005,587.3379 407.505,588.0879 Q407.0207,588.8379 407.0207,589.8691 L407.0207,590.9629 Q407.0207,592.1973 407.9113,593.0254 Q408.8019,593.8379 410.3957,593.8379 Q411.3332,593.8379 411.9894,593.5879 Q412.38,593.4316 412.8019,592.9941 Q413.0675,592.7285 413.2082,592.6504 Q413.3644,592.5723 413.5675,592.5723 Q413.8957,592.5723 414.1457,592.8379 Q414.4113,593.0879 414.4113,593.4316 Q414.4113,593.7754 414.0675,594.1816 Q413.5675,594.7598 412.7707,595.0879 Q411.6925,595.541 410.3957,595.541 Q408.88,595.541 407.6769,594.916 Q406.6925,594.416 406.005,593.3535 Q405.3175,592.2754 405.3175,590.9941 L405.3175,589.8379 Q405.3175,588.5098 405.9269,587.3691 Q406.5519,586.2129 407.6457,585.6035 Q408.7394,584.9785 409.9738,584.9785 Q410.7082,584.9785 411.3488,585.1504 Q412.005,585.3066 412.5519,585.666 Z " fill="#000000"/><text fill="#000000" font-family="sans-serif" font-size="12" font-style="italic" lengthAdjust="spacing" textLength="94.0723" x="423.0721" y="585.4492">&#171;AggregateRoot&#187;</text><text fill="#000000" font-family="sans-serif" font-size="14" lengthAdjust="spacing" textLength="35.793" x="452.2118" y="603.5684">Client</text><line style="stroke:#181818;stroke-width:0.5;" x1="390" x2="522.9307" y1="612.082" y2="612.082"/><line style="stroke:#181818;stroke-width:0.5;" x1="390" x2="522.9307" y1="620.082" y2="620.082"/><ellipse cx="400" cy="634.8926" fill="#84BE84" rx="3" ry="3" style="stroke:#038048;stroke-width:1.0;"/><text fill="#000000" font-family="sans-serif" font-size="14" lengthAdjust="spacing" textLength="66.8965" x="409" y="639.1895">vat() : VAT</text><ellipse cx="400" cy="653.5137" fill="#84BE84" rx="3" ry="3" style="stroke:#038048;stroke-width:1.0;"/><text fill="#000000" font-family="sans-serif" font-size="14" lengthAdjust="spacing" textLength="108.9307" x="409" y="657.8105">name() : Name_1</text></g><!--class ShowRequest--><g id="elem_ShowRequest"><rect codeLine="36" fill="#F1F1F1" height="135.0664" id="ShowRequest" rx="2.5" ry="2.5" style="stroke:#181818;stroke-width:0.5;" width="240.7441" x="660" y="549"/><ellipse cx="732.5396" cy="571.291" fill="#ADD1B2" rx="11" ry="11" style="stroke:#181818;stroke-width:1.0;"/><path d="M735.3052,567.166 Q735.4614,566.9473 735.6489,566.8379 Q735.8364,566.7285 736.0552,566.7285 Q736.4302,566.7285 736.6646,566.9941 Q736.8989,567.2441 736.8989,567.8535 L736.8989,569.3066 Q736.8989,569.916 736.6646,570.1816 Q736.4302,570.4473 736.0552,570.4473 Q735.7114,570.4473 735.5083,570.2441 Q735.3052,570.0566 735.1958,569.541 Q735.1489,569.1816 734.9614,568.9941 Q734.6333,568.6191 734.0239,568.4004 Q733.4146,568.1816 732.7896,568.1816 Q732.0239,568.1816 731.3833,568.5098 Q730.7583,568.8379 730.2583,569.5879 Q729.7739,570.3379 729.7739,571.3691 L729.7739,572.4629 Q729.7739,573.6973 730.6646,574.5254 Q731.5552,575.3379 733.1489,575.3379 Q734.0864,575.3379 734.7427,575.0879 Q735.1333,574.9316 735.5552,574.4941 Q735.8208,574.2285 735.9614,574.1504 Q736.1177,574.0723 736.3208,574.0723 Q736.6489,574.0723 736.8989,574.3379 Q737.1646,574.5879 737.1646,574.9316 Q737.1646,575.2754 736.8208,575.6816 Q736.3208,576.2598 735.5239,576.5879 Q734.4458,577.041 733.1489,577.041 Q731.6333,577.041 730.4302,576.416 Q729.4458,575.916 728.7583,574.8535 Q728.0708,573.7754 728.0708,572.4941 L728.0708,571.3379 Q728.0708,570.0098 728.6802,568.8691 Q729.3052,567.7129 730.3989,567.1035 Q731.4927,566.4785 732.7271,566.4785 Q733.4614,566.4785 734.1021,566.6504 Q734.7583,566.8066 735.3052,567.166 Z " fill="#000000"/><text fill="#000000" font-family="sans-serif" font-size="12" font-style="italic" lengthAdjust="spacing" textLength="43.3594" x="774.9424" y="566.9492">&#171;Entity&#187;</text><text fill="#000000" font-family="sans-serif" font-size="14" lengthAdjust="spacing" textLength="87.165" x="753.0396" y="585.0684">ShowRequest</text><line style="stroke:#181818;stroke-width:0.5;" x1="661" x2="899.7441" y1="593.582" y2="593.582"/><line style="stroke:#181818;stroke-width:0.5;" x1="661" x2="899.7441" y1="601.582" y2="601.582"/><ellipse cx="671" cy="616.3926" fill="#84BE84" rx="3" ry="3" style="stroke:#038048;stroke-width:1.0;"/><text fill="#000000" font-family="sans-serif" font-size="14" lengthAdjust="spacing" textLength="133.0205" x="680" y="620.6895">customerVAT() : VAT</text><ellipse cx="671" cy="635.0137" fill="#84BE84" rx="3" ry="3" style="stroke:#038048;stroke-width:1.0;"/><text fill="#000000" font-family="sans-serif" font-size="14" lengthAdjust="spacing" textLength="105.0547" x="680" y="639.3105">place() : Place_1</text><ellipse cx="671" cy="653.6348" fill="#84BE84" rx="3" ry="3" style="stroke:#038048;stroke-width:1.0;"/><text fill="#000000" font-family="sans-serif" font-size="14" lengthAdjust="spacing" textLength="214.7441" x="680" y="657.9316">submissionDate() : LocalDateTime</text><ellipse cx="671" cy="672.2559" fill="#84BE84" rx="3" ry="3" style="stroke:#038048;stroke-width:1.0;"/><text fill="#000000" font-family="sans-serif" font-size="14" lengthAdjust="spacing" textLength="185.1992" x="680" y="676.5527">status() : ShowRequestStatus</text></g><!--class VAT--><g id="elem_VAT"><rect codeLine="43" fill="#F1F1F1" height="60.582" id="VAT" rx="2.5" ry="2.5" style="stroke:#181818;stroke-width:0.5;" width="106.7207" x="549" y="763"/><ellipse cx="564" cy="785.291" fill="#ADD1B2" rx="11" ry="11" style="stroke:#181818;stroke-width:1.0;"/><path d="M566.7656,781.166 Q566.9219,780.9473 567.1094,780.8379 Q567.2969,780.7285 567.5156,780.7285 Q567.8906,780.7285 568.125,780.9941 Q568.3594,781.2441 568.3594,781.8535 L568.3594,783.3066 Q568.3594,783.916 568.125,784.1816 Q567.8906,784.4473 567.5156,784.4473 Q567.1719,784.4473 566.9688,784.2441 Q566.7656,784.0566 566.6563,783.541 Q566.6094,783.1816 566.4219,782.9941 Q566.0938,782.6191 565.4844,782.4004 Q564.875,782.1816 564.25,782.1816 Q563.4844,782.1816 562.8438,782.5098 Q562.2188,782.8379 561.7188,783.5879 Q561.2344,784.3379 561.2344,785.3691 L561.2344,786.4629 Q561.2344,787.6973 562.125,788.5254 Q563.0156,789.3379 564.6094,789.3379 Q565.5469,789.3379 566.2031,789.0879 Q566.5938,788.9316 567.0156,788.4941 Q567.2813,788.2285 567.4219,788.1504 Q567.5781,788.0723 567.7813,788.0723 Q568.1094,788.0723 568.3594,788.3379 Q568.625,788.5879 568.625,788.9316 Q568.625,789.2754 568.2813,789.6816 Q567.7813,790.2598 566.9844,790.5879 Q565.9063,791.041 564.6094,791.041 Q563.0938,791.041 561.8906,790.416 Q560.9063,789.916 560.2188,788.8535 Q559.5313,787.7754 559.5313,786.4941 L559.5313,785.3379 Q559.5313,784.0098 560.1406,782.8691 Q560.7656,781.7129 561.8594,781.1035 Q562.9531,780.4785 564.1875,780.4785 Q564.9219,780.4785 565.5625,780.6504 Q566.2188,780.8066 566.7656,781.166 Z " fill="#000000"/><text fill="#000000" font-family="sans-serif" font-size="12" font-style="italic" lengthAdjust="spacing" textLength="78.7207" x="576" y="780.9492">&#171;ValueObject&#187;</text><text fill="#000000" font-family="sans-serif" font-size="14" lengthAdjust="spacing" textLength="27.2275" x="601.7466" y="799.0684">VAT</text><line style="stroke:#181818;stroke-width:0.5;" x1="550" x2="654.7207" y1="807.582" y2="807.582"/><line style="stroke:#181818;stroke-width:0.5;" x1="550" x2="654.7207" y1="815.582" y2="815.582"/></g><!--class Name_1--><g id="elem_Name_1"><rect codeLine="44" fill="#F1F1F1" height="60.582" id="Name_1" rx="2.5" ry="2.5" style="stroke:#181818;stroke-width:0.5;" width="106.7207" x="403" y="763"/><ellipse cx="418" cy="785.291" fill="#ADD1B2" rx="11" ry="11" style="stroke:#181818;stroke-width:1.0;"/><path d="M420.7656,781.166 Q420.9219,780.9473 421.1094,780.8379 Q421.2969,780.7285 421.5156,780.7285 Q421.8906,780.7285 422.125,780.9941 Q422.3594,781.2441 422.3594,781.8535 L422.3594,783.3066 Q422.3594,783.916 422.125,784.1816 Q421.8906,784.4473 421.5156,784.4473 Q421.1719,784.4473 420.9688,784.2441 Q420.7656,784.0566 420.6563,783.541 Q420.6094,783.1816 420.4219,782.9941 Q420.0938,782.6191 419.4844,782.4004 Q418.875,782.1816 418.25,782.1816 Q417.4844,782.1816 416.8438,782.5098 Q416.2188,782.8379 415.7188,783.5879 Q415.2344,784.3379 415.2344,785.3691 L415.2344,786.4629 Q415.2344,787.6973 416.125,788.5254 Q417.0156,789.3379 418.6094,789.3379 Q419.5469,789.3379 420.2031,789.0879 Q420.5938,788.9316 421.0156,788.4941 Q421.2813,788.2285 421.4219,788.1504 Q421.5781,788.0723 421.7813,788.0723 Q422.1094,788.0723 422.3594,788.3379 Q422.625,788.5879 422.625,788.9316 Q422.625,789.2754 422.2813,789.6816 Q421.7813,790.2598 420.9844,790.5879 Q419.9063,791.041 418.6094,791.041 Q417.0938,791.041 415.8906,790.416 Q414.9063,789.916 414.2188,788.8535 Q413.5313,787.7754 413.5313,786.4941 L413.5313,785.3379 Q413.5313,784.0098 414.1406,782.8691 Q414.7656,781.7129 415.8594,781.1035 Q416.9531,780.4785 418.1875,780.4785 Q418.9219,780.4785 419.5625,780.6504 Q420.2188,780.8066 420.7656,781.166 Z " fill="#000000"/><text fill="#000000" font-family="sans-serif" font-size="12" font-style="italic" lengthAdjust="spacing" textLength="78.7207" x="430" y="780.9492">&#171;ValueObject&#187;</text><text fill="#000000" font-family="sans-serif" font-size="14" lengthAdjust="spacing" textLength="52.917" x="442.9019" y="799.0684">Name_1</text><line style="stroke:#181818;stroke-width:0.5;" x1="404" x2="508.7207" y1="807.582" y2="807.582"/><line style="stroke:#181818;stroke-width:0.5;" x1="404" x2="508.7207" y1="815.582" y2="815.582"/></g><!--class Place_1--><g id="elem_Place_1"><rect codeLine="45" fill="#F1F1F1" height="60.582" id="Place_1" rx="2.5" ry="2.5" style="stroke:#181818;stroke-width:0.5;" width="106.7207" x="887" y="763"/><ellipse cx="902" cy="785.291" fill="#ADD1B2" rx="11" ry="11" style="stroke:#181818;stroke-width:1.0;"/><path d="M904.7656,781.166 Q904.9219,780.9473 905.1094,780.8379 Q905.2969,780.7285 905.5156,780.7285 Q905.8906,780.7285 906.125,780.9941 Q906.3594,781.2441 906.3594,781.8535 L906.3594,783.3066 Q906.3594,783.916 906.125,784.1816 Q905.8906,784.4473 905.5156,784.4473 Q905.1719,784.4473 904.9688,784.2441 Q904.7656,784.0566 904.6563,783.541 Q904.6094,783.1816 904.4219,782.9941 Q904.0938,782.6191 903.4844,782.4004 Q902.875,782.1816 902.25,782.1816 Q901.4844,782.1816 900.8438,782.5098 Q900.2188,782.8379 899.7188,783.5879 Q899.2344,784.3379 899.2344,785.3691 L899.2344,786.4629 Q899.2344,787.6973 900.125,788.5254 Q901.0156,789.3379 902.6094,789.3379 Q903.5469,789.3379 904.2031,789.0879 Q904.5938,788.9316 905.0156,788.4941 Q905.2813,788.2285 905.4219,788.1504 Q905.5781,788.0723 905.7813,788.0723 Q906.1094,788.0723 906.3594,788.3379 Q906.625,788.5879 906.625,788.9316 Q906.625,789.2754 906.2813,789.6816 Q905.7813,790.2598 904.9844,790.5879 Q903.9063,791.041 902.6094,791.041 Q901.0938,791.041 899.8906,790.416 Q898.9063,789.916 898.2188,788.8535 Q897.5313,787.7754 897.5313,786.4941 L897.5313,785.3379 Q897.5313,784.0098 898.1406,782.8691 Q898.7656,781.7129 899.8594,781.1035 Q900.9531,780.4785 902.1875,780.4785 Q902.9219,780.4785 903.5625,780.6504 Q904.2188,780.8066 904.7656,781.166 Z " fill="#000000"/><text fill="#000000" font-family="sans-serif" font-size="12" font-style="italic" lengthAdjust="spacing" textLength="78.7207" x="914" y="780.9492">&#171;ValueObject&#187;</text><text fill="#000000" font-family="sans-serif" font-size="14" lengthAdjust="spacing" textLength="50.5928" x="928.064" y="799.0684">Place_1</text><line style="stroke:#181818;stroke-width:0.5;" x1="888" x2="992.7207" y1="807.582" y2="807.582"/><line style="stroke:#181818;stroke-width:0.5;" x1="888" x2="992.7207" y1="815.582" y2="815.582"/></g><!--class ShowRequestStatus--><g id="elem_ShowRequestStatus"><rect codeLine="46" fill="#F1F1F1" height="60.582" id="ShowRequestStatus" rx="2.5" ry="2.5" style="stroke:#181818;stroke-width:0.5;" width="158.8545" x="693" y="763"/><ellipse cx="708" cy="785.291" fill="#EB937F" rx="11" ry="11" style="stroke:#181818;stroke-width:1.0;"/><path d="M706.8594,786.0879 L706.8594,788.5879 L711.1875,788.5879 L711.1875,787.666 Q711.1875,787.0566 711.4219,786.791 Q711.6719,786.5254 712.0469,786.5254 Q712.4219,786.5254 712.6563,786.791 Q712.8906,787.0566 712.8906,787.666 L712.8906,790.291 L704.8906,790.291 Q704.2656,790.291 704,790.0566 Q703.75,789.8223 703.75,789.4316 Q703.75,789.0566 704.0156,788.8223 Q704.2813,788.5879 704.8906,788.5879 L705.1563,788.5879 L705.1563,781.9316 L704.8906,781.9316 Q704.2656,781.9316 704,781.6973 Q703.75,781.4629 703.75,781.0723 Q703.75,780.6973 704,780.4629 Q704.2656,780.2285 704.8906,780.2285 L712.5156,780.2285 L712.5156,782.8223 Q712.5156,783.4316 712.2813,783.6973 Q712.0625,783.9473 711.6719,783.9473 Q711.2969,783.9473 711.0625,783.6973 Q710.8281,783.4316 710.8281,782.8223 L710.8281,781.9316 L706.8594,781.9316 L706.8594,784.3848 L708.3438,784.3848 Q708.3438,783.7285 708.4688,783.541 Q708.7344,783.1348 709.2031,783.1348 Q709.5781,783.1348 709.8125,783.4004 Q710.0469,783.6504 710.0469,784.2598 L710.0469,786.2285 Q710.0469,786.7754 709.9219,786.9629 Q709.6563,787.3535 709.2031,787.3535 Q708.7344,787.3535 708.4688,786.9473 Q708.3438,786.7598 708.3438,786.0879 L706.8594,786.0879 Z " fill="#000000"/><text fill="#000000" font-family="sans-serif" font-size="12" font-style="italic" lengthAdjust="spacing" textLength="78.7207" x="746.0669" y="780.9492">&#171;ValueObject&#187;</text><text fill="#000000" font-family="sans-serif" font-size="14" lengthAdjust="spacing" textLength="126.8545" x="722" y="799.0684">ShowRequestStatus</text><line style="stroke:#181818;stroke-width:0.5;" x1="694" x2="850.8545" y1="807.582" y2="807.582"/><line style="stroke:#181818;stroke-width:0.5;" x1="694" x2="850.8545" y1="815.582" y2="815.582"/></g><!--link ListClientShowRequestsUI to ListClientShowRequestsController--><g id="link_ListClientShowRequestsUI_ListClientShowRequestsController"><path codeLine="48" d="M410.5,92.35 C410.5,110.78 410.5,126.78 410.5,146.92 " fill="none" id="ListClientShowRequestsUI-to-ListClientShowRequestsController" style="stroke:#181818;stroke-width:1.0;stroke-dasharray:7.0,7.0;"/><polygon fill="#181818" points="410.5,152.92,414.5,143.92,410.5,147.92,406.5,143.92,410.5,152.92" style="stroke:#181818;stroke-width:1.0;"/></g><!--link ListClientShowRequestsController to ClientRepository--><g id="link_ListClientShowRequestsController_ClientRepository"><path codeLine="49" d="M410.5,275.14 C410.5,303.27 410.5,330.32 410.5,356.78 " fill="none" id="ListClientShowRequestsController-to-ClientRepository" style="stroke:#181818;stroke-width:1.0;stroke-dasharray:7.0,7.0;"/><polygon fill="#181818" points="410.5,362.78,414.5,353.78,410.5,357.78,406.5,353.78,410.5,362.78" style="stroke:#181818;stroke-width:1.0;"/></g><!--link ListClientShowRequestsController to ShowRequestRepository--><g id="link_ListClientShowRequestsController_ShowRequestRepository"><path codeLine="50" d="M524.39,275 C584.52,306.69 651.2517,341.8432 703.9217,369.5932 " fill="none" id="ListClientShowRequestsController-to-ShowRequestRepository" style="stroke:#181818;stroke-width:1.0;stroke-dasharray:7.0,7.0;"/><polygon fill="#181818" points="709.23,372.39,703.132,364.656,704.8064,370.0594,699.403,371.7337,709.23,372.39" style="stroke:#181818;stroke-width:1.0;"/></g><!--link ListClientShowRequestsController to ShowRequestSummaryDTO--><g id="link_ListClientShowRequestsController_ShowRequestSummaryDTO"><path codeLine="51" d="M322.13,275.14 C285.26,300.23 247.6004,325.8644 211.2304,350.6144 " fill="none" id="ListClientShowRequestsController-to-ShowRequestSummaryDTO" style="stroke:#181818;stroke-width:1.0;stroke-dasharray:7.0,7.0;"/><polygon fill="#181818" points="206.27,353.99,215.961,352.2336,210.4037,351.177,211.4602,345.6197,206.27,353.99" style="stroke:#181818;stroke-width:1.0;"/><text fill="#000000" font-family="sans-serif" font-size="13" lengthAdjust="spacing" textLength="42.6309" x="276.5" y="320.0283">creates</text></g><!--link ShowRequestRepository to ShowRequest--><g id="link_ShowRequestRepository_ShowRequest"><path codeLine="52" d="M782.12,451.57 C781.85,478.99 781.5396,510.5303 781.2196,542.7703 " fill="none" id="ShowRequestRepository-to-ShowRequest" style="stroke:#181818;stroke-width:1.0;stroke-dasharray:7.0,7.0;"/><polygon fill="#181818" points="781.16,548.77,785.2491,539.8101,781.2096,543.7702,777.2495,539.7307,781.16,548.77" style="stroke:#181818;stroke-width:1.0;"/><text fill="#000000" font-family="sans-serif" font-size="13" lengthAdjust="spacing" textLength="27.46" x="782.5" y="515.0283">finds</text></g><!--link ClientRepository to Client--><g id="link_ClientRepository_Client"><path codeLine="53" d="M421.46,461.25 C428.74,493.3 436.931,529.369 444.211,561.419 " fill="none" id="ClientRepository-to-Client" style="stroke:#181818;stroke-width:1.0;stroke-dasharray:7.0,7.0;"/><polygon fill="#181818" points="445.54,567.27,447.4471,557.6076,444.4325,562.3942,439.6458,559.3796,445.54,567.27" style="stroke:#181818;stroke-width:1.0;"/><text fill="#000000" font-family="sans-serif" font-size="13" lengthAdjust="spacing" textLength="27.46" x="434.5" y="515.0283">finds</text></g><!--link ShowRequest to VAT--><g id="link_ShowRequest_VAT"><path codeLine="54" d="M712.7,684.16 C685.19,711.2 659.0887,736.8637 637.2087,758.3737 " fill="none" id="ShowRequest-to-VAT" style="stroke:#181818;stroke-width:1.0;"/><polygon fill="#181818" points="632.93,762.58,642.1522,759.123,636.4956,759.0747,636.5438,753.4181,632.93,762.58" style="stroke:#181818;stroke-width:1.0;"/><text fill="#000000" font-family="sans-serif" font-size="13" lengthAdjust="spacing" textLength="27.46" x="681.5" y="729.0283">uses</text></g><!--link Client to VAT--><g id="link_Client_VAT"><path codeLine="55" d="M496.78,665.78 C522.69,696.84 551.6963,731.6028 573.8463,758.1528 " fill="none" id="Client-to-VAT" style="stroke:#181818;stroke-width:1.0;"/><polygon fill="#181818" points="577.69,762.76,574.996,753.2868,574.4869,758.9207,568.853,758.4117,577.69,762.76" style="stroke:#181818;stroke-width:1.0;"/><text fill="#000000" font-family="sans-serif" font-size="13" lengthAdjust="spacing" textLength="27.46" x="551.5" y="729.0283">uses</text></g><!--link Client to Name_1--><g id="link_Client_Name_1"><path codeLine="56" d="M456.5,665.78 C456.5,696.84 456.5,730.21 456.5,756.76 " fill="none" id="Client-to-Name_1" style="stroke:#181818;stroke-width:1.0;"/><polygon fill="#181818" points="456.5,762.76,460.5,753.76,456.5,757.76,452.5,753.76,456.5,762.76" style="stroke:#181818;stroke-width:1.0;"/><text fill="#000000" font-family="sans-serif" font-size="13" lengthAdjust="spacing" textLength="20.96" x="457.5" y="729.0283">has</text></g><!--link ShowRequest to Place_1--><g id="link_ShowRequest_Place_1"><path codeLine="57" d="M841.45,684.16 C866.17,711.2 889.431,736.6422 909.101,758.1522 " fill="none" id="ShowRequest-to-Place_1" style="stroke:#181818;stroke-width:1.0;"/><polygon fill="#181818" points="913.15,762.58,910.0283,753.239,909.7758,758.8902,904.1246,758.6377,913.15,762.58" style="stroke:#181818;stroke-width:1.0;"/><text fill="#000000" font-family="sans-serif" font-size="13" lengthAdjust="spacing" textLength="27.46" x="884.5" y="729.0283">uses</text></g><!--link ShowRequest to ShowRequestStatus--><g id="link_ShowRequest_ShowRequestStatus"><path codeLine="58" d="M777.45,684.16 C776.22,711.2 775.1231,735.0762 774.1431,756.5862 " fill="none" id="ShowRequest-to-ShowRequestStatus" style="stroke:#181818;stroke-width:1.0;"/><polygon fill="#181818" points="773.87,762.58,778.2755,753.7714,774.0976,757.5852,770.2838,753.4073,773.87,762.58" style="stroke:#181818;stroke-width:1.0;"/><text fill="#000000" font-family="sans-serif" font-size="13" lengthAdjust="spacing" textLength="27.46" x="776.5" y="729.0283">uses</text></g><!--SRC=[bLHDRzim3BtxL-YOeaY1NGF3GE9kGu5X6UAim4w3uh2kLbdozB726FhVHqcExSHosrqCctoFV7gKgP-OQAYYDT4654ZJDf1lQFbKAMd5CPTSAl83E9VFdnM0I9AIKwt95wPDpXa8KppAvntyjg2D_dv7_YQ4B4afXL6ISr1aDOFDUmWohibHkkJYAdbvlSL0ExNoa1qqKZCZLOiDyukGn-cXo1cuYCMzf0hCclDGJ7-IgW0EfM5IBAwGTuT-qGE7D00oJ-6eUQmMMI6z23BlrtkaulEimeXHsBgcghtTRxF1YMYUfAb3PTw6QwBjeMPQexfRQi2vBalAtVkUrU0X3QSbVAMronP6CL45fg76wdCd2Xzp2fX0bGz8dBYA0eQFNiS34qTqRTuY1zYqQC7Y3pM36Tl6EKjvZpth7HtIl81Dcv_iVg_n8xi35wklgqf1XHRkf3Hz0vJjJuV5_BT0Htt0MVlpGtHiMEoZCCmCCakhZQn1EOdZQdv8FlBDlM6zwNHzUZhVC4YVZ8uog79EfEazvHQsXrzuePsabouPZZ2VxpJ5021iFUqRGoQpo-Fc9djxMxov5roLoGfu5ok-2_wNElf7LwHKW3FIIVm6Np0HxwwlJYR_sd2c7ZFcBPSP2LVSQZZHNubsSrwHHpejT1foHxjCJsVS0Vy1]--></g></svg>