<svg xmlns="http://www.w3.org/2000/svg" xmlns:xlink="http://www.w3.org/1999/xlink" contentStyleType="text/css" height="835px" preserveAspectRatio="none" style="width:1666px;height:835px;background:#FFFFFF;" version="1.1" viewBox="0 0 1666 835" width="1666px" zoomAndPan="magnify"><title>Sequence Diagram: US235 - List Show Requests of Client</title><defs/><g><text fill="#000000" font-family="sans-serif" font-size="14" font-weight="bold" lengthAdjust="spacing" textLength="382.751" x="643.0146" y="30.1074">Sequence Diagram: US235 - List Show Requests of Client</text><rect fill="#FFFFFF" height="600.8594" style="stroke:#181818;stroke-width:1.0;" width="10" x="35.6655" y="133.2422"/><rect fill="#FFFFFF" height="577.5684" style="stroke:#181818;stroke-width:1.0;" width="10" x="403.8389" y="156.5332"/><rect fill="#FFFFFF" height="156.4551" style="stroke:#181818;stroke-width:1.0;" width="10" x="724.3667" y="187.8242"/><rect fill="#FFFFFF" height="264.6582" style="stroke:#181818;stroke-width:1.0;" width="10" x="724.3667" y="438.1523"/><rect fill="#FFFFFF" height="93.873" style="stroke:#181818;stroke-width:1.0;" width="10" x="946.7935" y="219.1152"/><rect fill="#FFFFFF" height="93.873" style="stroke:#181818;stroke-width:1.0;" width="10" x="1203.082" y="469.4434"/><rect fill="#FFFFFF" height="33.6211" style="stroke:#181818;stroke-width:1.0;" width="10" x="1472.9775" y="630.8984"/><rect fill="#FFFFFF" height="31.291" style="stroke:#181818;stroke-width:1.0;" width="10" x="1626.8149" y="250.4063"/><rect fill="#FFFFFF" height="31.291" style="stroke:#181818;stroke-width:1.0;" width="10" x="1626.8149" y="500.7344"/><rect fill="none" height="94.2031" style="stroke:#000000;stroke-width:1.5;" width="994.6445" x="604.2051" y="578.3164"/><line style="stroke:#181818;stroke-width:0.5;stroke-dasharray:5.0,5.0;" x1="40" x2="40" y1="123.2422" y2="752.1016"/><line style="stroke:#181818;stroke-width:0.5;stroke-dasharray:5.0,5.0;" x1="408.022" x2="408.022" y1="123.2422" y2="752.1016"/><line style="stroke:#181818;stroke-width:0.5;stroke-dasharray:5.0,5.0;" x1="729.2051" x2="729.2051" y1="123.2422" y2="752.1016"/><line style="stroke:#181818;stroke-width:0.5;stroke-dasharray:5.0,5.0;" x1="951.5283" x2="951.5283" y1="123.2422" y2="752.1016"/><line style="stroke:#181818;stroke-width:0.5;stroke-dasharray:5.0,5.0;" x1="1208.0586" x2="1208.0586" y1="123.2422" y2="752.1016"/><line style="stroke:#181818;stroke-width:0.5;stroke-dasharray:5.0,5.0;" x1="1477.1055" x2="1477.1055" y1="629.418" y2="752.1016"/><line style="stroke:#181818;stroke-width:0.5;stroke-dasharray:5.0,5.0;" x1="1630.8496" x2="1630.8496" y1="123.2422" y2="752.1016"/><text fill="#000000" font-family="sans-serif" font-size="14" lengthAdjust="spacing" textLength="65.3311" x="5" y="119.7285">CRM User</text><ellipse cx="40.6655" cy="53.1211" fill="#E2E2F0" rx="8" ry="8" style="stroke:#181818;stroke-width:0.5;"/><path d="M40.6655,61.1211 L40.6655,88.1211 M27.6655,69.1211 L53.6655,69.1211 M40.6655,88.1211 L27.6655,103.1211 M40.6655,88.1211 L53.6655,103.1211 " fill="none" style="stroke:#181818;stroke-width:0.5;"/><text fill="#000000" font-family="sans-serif" font-size="14" lengthAdjust="spacing" textLength="65.3311" x="5" y="766.209">CRM User</text><ellipse cx="40.6655" cy="778.2227" fill="#E2E2F0" rx="8" ry="8" style="stroke:#181818;stroke-width:0.5;"/><path d="M40.6655,786.2227 L40.6655,813.2227 M27.6655,794.2227 L53.6655,794.2227 M40.6655,813.2227 L27.6655,828.2227 M40.6655,813.2227 L53.6655,828.2227 " fill="none" style="stroke:#181818;stroke-width:0.5;"/><rect fill="#E2E2F0" height="32.6211" rx="2.5" ry="2.5" style="stroke:#181818;stroke-width:0.5;" width="183.6338" x="317.022" y="89.6211"/><text fill="#000000" font-family="sans-serif" font-size="14" lengthAdjust="spacing" textLength="169.6338" x="324.022" y="111.7285">:ListClientShowRequestsUI</text><rect fill="#E2E2F0" height="32.6211" rx="2.5" ry="2.5" style="stroke:#181818;stroke-width:0.5;" width="183.6338" x="317.022" y="751.1016"/><text fill="#000000" font-family="sans-serif" font-size="14" lengthAdjust="spacing" textLength="169.6338" x="324.022" y="773.209">:ListClientShowRequestsUI</text><rect fill="#E2E2F0" height="32.6211" rx="2.5" ry="2.5" style="stroke:#181818;stroke-width:0.5;" width="230.3232" x="614.2051" y="89.6211"/><text fill="#000000" font-family="sans-serif" font-size="14" lengthAdjust="spacing" textLength="216.3232" x="621.2051" y="111.7285">:ListClientShowRequestsController</text><rect fill="#E2E2F0" height="32.6211" rx="2.5" ry="2.5" style="stroke:#181818;stroke-width:0.5;" width="230.3232" x="614.2051" y="751.1016"/><text fill="#000000" font-family="sans-serif" font-size="14" lengthAdjust="spacing" textLength="216.3232" x="621.2051" y="773.209">:ListClientShowRequestsController</text><rect fill="#E2E2F0" height="32.6211" rx="2.5" ry="2.5" style="stroke:#181818;stroke-width:0.5;" width="194.5303" x="854.5283" y="89.6211"/><text fill="#000000" font-family="sans-serif" font-size="14" lengthAdjust="spacing" textLength="180.5303" x="861.5283" y="111.7285">clientRepo : ClientRepository</text><rect fill="#E2E2F0" height="32.6211" rx="2.5" ry="2.5" style="stroke:#181818;stroke-width:0.5;" width="194.5303" x="854.5283" y="751.1016"/><text fill="#000000" font-family="sans-serif" font-size="14" lengthAdjust="spacing" textLength="180.5303" x="861.5283" y="773.209">clientRepo : ClientRepository</text><rect fill="#E2E2F0" height="32.6211" rx="2.5" ry="2.5" style="stroke:#181818;stroke-width:0.5;" width="298.0469" x="1059.0586" y="89.6211"/><text fill="#000000" font-family="sans-serif" font-size="14" lengthAdjust="spacing" textLength="284.0469" x="1066.0586" y="111.7285">showRequestRepo : ShowRequestRepository</text><rect fill="#E2E2F0" height="32.6211" rx="2.5" ry="2.5" style="stroke:#181818;stroke-width:0.5;" width="298.0469" x="1059.0586" y="751.1016"/><text fill="#000000" font-family="sans-serif" font-size="14" lengthAdjust="spacing" textLength="284.0469" x="1066.0586" y="773.209">showRequestRepo : ShowRequestRepository</text><rect fill="#E2E2F0" height="32.6211" rx="2.5" ry="2.5" style="stroke:#181818;stroke-width:0.5;" width="221.7441" x="1367.1055" y="751.1016"/><text fill="#000000" font-family="sans-serif" font-size="14" lengthAdjust="spacing" textLength="207.7441" x="1374.1055" y="773.209">dto : ShowRequestSummaryDTO</text><text fill="#000000" font-family="sans-serif" font-size="14" lengthAdjust="spacing" textLength="59.9307" x="1598.8496" y="119.7285">Database</text><path d="M1613.8149,68.6211 C1613.8149,58.6211 1631.8149,58.6211 1631.8149,58.6211 C1631.8149,58.6211 1649.8149,58.6211 1649.8149,68.6211 L1649.8149,94.6211 C1649.8149,104.6211 1631.8149,104.6211 1631.8149,104.6211 C1631.8149,104.6211 1613.8149,104.6211 1613.8149,94.6211 L1613.8149,68.6211 " fill="#E2E2F0" style="stroke:#181818;stroke-width:1.5;"/><path d="M1613.8149,68.6211 C1613.8149,78.6211 1631.8149,78.6211 1631.8149,78.6211 C1631.8149,78.6211 1649.8149,78.6211 1649.8149,68.6211 " fill="none" style="stroke:#181818;stroke-width:1.5;"/><text fill="#000000" font-family="sans-serif" font-size="14" lengthAdjust="spacing" textLength="59.9307" x="1598.8496" y="766.209">Database</text><path d="M1613.8149,779.7227 C1613.8149,769.7227 1631.8149,769.7227 1631.8149,769.7227 C1631.8149,769.7227 1649.8149,769.7227 1649.8149,779.7227 L1649.8149,805.7227 C1649.8149,815.7227 1631.8149,815.7227 1631.8149,815.7227 C1631.8149,815.7227 1613.8149,815.7227 1613.8149,805.7227 L1613.8149,779.7227 " fill="#E2E2F0" style="stroke:#181818;stroke-width:1.5;"/><path d="M1613.8149,779.7227 C1613.8149,789.7227 1631.8149,789.7227 1631.8149,789.7227 C1631.8149,789.7227 1649.8149,789.7227 1649.8149,779.7227 " fill="none" style="stroke:#181818;stroke-width:1.5;"/><rect fill="#FFFFFF" height="600.8594" style="stroke:#181818;stroke-width:1.0;" width="10" x="35.6655" y="133.2422"/><rect fill="#FFFFFF" height="577.5684" style="stroke:#181818;stroke-width:1.0;" width="10" x="403.8389" y="156.5332"/><rect fill="#FFFFFF" height="156.4551" style="stroke:#181818;stroke-width:1.0;" width="10" x="724.3667" y="187.8242"/><rect fill="#FFFFFF" height="264.6582" style="stroke:#181818;stroke-width:1.0;" width="10" x="724.3667" y="438.1523"/><rect fill="#FFFFFF" height="93.873" style="stroke:#181818;stroke-width:1.0;" width="10" x="946.7935" y="219.1152"/><rect fill="#FFFFFF" height="93.873" style="stroke:#181818;stroke-width:1.0;" width="10" x="1203.082" y="469.4434"/><rect fill="#FFFFFF" height="33.6211" style="stroke:#181818;stroke-width:1.0;" width="10" x="1472.9775" y="630.8984"/><rect fill="#FFFFFF" height="31.291" style="stroke:#181818;stroke-width:1.0;" width="10" x="1626.8149" y="250.4063"/><rect fill="#FFFFFF" height="31.291" style="stroke:#181818;stroke-width:1.0;" width="10" x="1626.8149" y="500.7344"/><polygon fill="#181818" points="391.8389,152.5332,401.8389,156.5332,391.8389,160.5332,395.8389,156.5332" style="stroke:#181818;stroke-width:1.0;"/><line style="stroke:#181818;stroke-width:1.0;" x1="45.6655" x2="397.8389" y1="156.5332" y2="156.5332"/><text fill="#000000" font-family="sans-serif" font-size="13" font-weight="bold" lengthAdjust="spacing" textLength="7.23" x="52.6655" y="151.2705">1</text><text fill="#000000" font-family="sans-serif" font-size="13" lengthAdjust="spacing" textLength="246.2446" x="63.8955" y="151.2705">Selects "List Client Show Requests" option</text><polygon fill="#181818" points="712.3667,183.8242,722.3667,187.8242,712.3667,191.8242,716.3667,187.8242" style="stroke:#181818;stroke-width:1.0;"/><line style="stroke:#181818;stroke-width:1.0;" x1="413.8389" x2="718.3667" y1="187.8242" y2="187.8242"/><text fill="#000000" font-family="sans-serif" font-size="13" font-weight="bold" lengthAdjust="spacing" textLength="7.23" x="420.8389" y="182.5615">2</text><text fill="#000000" font-family="sans-serif" font-size="13" lengthAdjust="spacing" textLength="153.8926" x="432.0688" y="182.5615">getAllClientsForSelection()</text><polygon fill="#181818" points="934.7935,215.1152,944.7935,219.1152,934.7935,223.1152,938.7935,219.1152" style="stroke:#181818;stroke-width:1.0;"/><line style="stroke:#181818;stroke-width:1.0;" x1="734.3667" x2="940.7935" y1="219.1152" y2="219.1152"/><text fill="#000000" font-family="sans-serif" font-size="13" font-weight="bold" lengthAdjust="spacing" textLength="7.23" x="741.3667" y="213.8525">3</text><text fill="#000000" font-family="sans-serif" font-size="13" lengthAdjust="spacing" textLength="44.0654" x="752.5967" y="213.8525">findAll()</text><polygon fill="#181818" points="1614.8149,246.4063,1624.8149,250.4063,1614.8149,254.4063,1618.8149,250.4063" style="stroke:#181818;stroke-width:1.0;"/><line style="stroke:#181818;stroke-width:1.0;" x1="956.7935" x2="1620.8149" y1="250.4063" y2="250.4063"/><text fill="#000000" font-family="sans-serif" font-size="13" font-weight="bold" lengthAdjust="spacing" textLength="7.23" x="963.7935" y="245.1436">4</text><text fill="#000000" font-family="sans-serif" font-size="13" lengthAdjust="spacing" textLength="280.3062" x="975.0234" y="245.1436">Executes query (e.g., SELECT c FROM Client c)</text><polygon fill="#181818" points="967.7935,277.6973,957.7935,281.6973,967.7935,285.6973,963.7935,281.6973" style="stroke:#181818;stroke-width:1.0;"/><line style="stroke:#181818;stroke-width:1.0;stroke-dasharray:2.0,2.0;" x1="961.7935" x2="1630.8149" y1="281.6973" y2="281.6973"/><text fill="#000000" font-family="sans-serif" font-size="13" font-weight="bold" lengthAdjust="spacing" textLength="7.23" x="973.7935" y="276.4346">5</text><text fill="#000000" font-family="sans-serif" font-size="13" lengthAdjust="spacing" textLength="158.2407" x="985.0234" y="276.4346">Returns Client records/data</text><polygon fill="#181818" points="745.3667,308.9883,735.3667,312.9883,745.3667,316.9883,741.3667,312.9883" style="stroke:#181818;stroke-width:1.0;"/><line style="stroke:#181818;stroke-width:1.0;stroke-dasharray:2.0,2.0;" x1="739.3667" x2="950.7935" y1="312.9883" y2="312.9883"/><text fill="#000000" font-family="sans-serif" font-size="13" font-weight="bold" lengthAdjust="spacing" textLength="7.23" x="751.3667" y="307.7256">6</text><text fill="#000000" font-family="sans-serif" font-size="13" lengthAdjust="spacing" textLength="149.5825" x="762.5967" y="307.7256">clientList: Iterable&lt;Client&gt;</text><polygon fill="#181818" points="424.8389,340.2793,414.8389,344.2793,424.8389,348.2793,420.8389,344.2793" style="stroke:#181818;stroke-width:1.0;"/><line style="stroke:#181818;stroke-width:1.0;stroke-dasharray:2.0,2.0;" x1="418.8389" x2="728.3667" y1="344.2793" y2="344.2793"/><text fill="#000000" font-family="sans-serif" font-size="13" font-weight="bold" lengthAdjust="spacing" textLength="7.23" x="430.8389" y="339.0166">7</text><text fill="#000000" font-family="sans-serif" font-size="13" lengthAdjust="spacing" textLength="50.5781" x="442.0688" y="339.0166">clientList</text><polygon fill="#181818" points="56.6655,371.5703,46.6655,375.5703,56.6655,379.5703,52.6655,375.5703" style="stroke:#181818;stroke-width:1.0;"/><line style="stroke:#181818;stroke-width:1.0;stroke-dasharray:2.0,2.0;" x1="50.6655" x2="402.8389" y1="375.5703" y2="375.5703"/><text fill="#000000" font-family="sans-serif" font-size="13" font-weight="bold" lengthAdjust="spacing" textLength="7.23" x="62.6655" y="370.3076">8</text><text fill="#000000" font-family="sans-serif" font-size="13" lengthAdjust="spacing" textLength="221.0889" x="73.8955" y="370.3076">Shows list of clients, asks for selection</text><polygon fill="#181818" points="391.8389,402.8613,401.8389,406.8613,391.8389,410.8613,395.8389,406.8613" style="stroke:#181818;stroke-width:1.0;"/><line style="stroke:#181818;stroke-width:1.0;" x1="45.6655" x2="397.8389" y1="406.8613" y2="406.8613"/><text fill="#000000" font-family="sans-serif" font-size="13" font-weight="bold" lengthAdjust="spacing" textLength="7.23" x="52.6655" y="401.5986">9</text><text fill="#000000" font-family="sans-serif" font-size="13" lengthAdjust="spacing" textLength="192.188" x="63.8955" y="401.5986">Selects client(selectedClientVAT)</text><polygon fill="#181818" points="712.3667,434.1523,722.3667,438.1523,712.3667,442.1523,716.3667,438.1523" style="stroke:#181818;stroke-width:1.0;"/><line style="stroke:#181818;stroke-width:1.0;" x1="413.8389" x2="718.3667" y1="438.1523" y2="438.1523"/><text fill="#000000" font-family="sans-serif" font-size="13" font-weight="bold" lengthAdjust="spacing" textLength="14.46" x="420.8389" y="432.8896">10</text><text fill="#000000" font-family="sans-serif" font-size="13" lengthAdjust="spacing" textLength="271.6606" x="439.2988" y="432.8896">listShowRequestsForClient(selectedClientVAT)</text><polygon fill="#181818" points="1191.082,465.4434,1201.082,469.4434,1191.082,473.4434,1195.082,469.4434" style="stroke:#181818;stroke-width:1.0;"/><line style="stroke:#181818;stroke-width:1.0;" x1="734.3667" x2="1197.082" y1="469.4434" y2="469.4434"/><text fill="#000000" font-family="sans-serif" font-size="13" font-weight="bold" lengthAdjust="spacing" textLength="14.46" x="741.3667" y="464.1807">11</text><text fill="#000000" font-family="sans-serif" font-size="13" lengthAdjust="spacing" textLength="210.2471" x="759.8267" y="464.1807">findByClientVAT(selectedClientVAT)</text><polygon fill="#181818" points="1614.8149,496.7344,1624.8149,500.7344,1614.8149,504.7344,1618.8149,500.7344" style="stroke:#181818;stroke-width:1.0;"/><line style="stroke:#181818;stroke-width:1.0;" x1="1213.082" x2="1620.8149" y1="500.7344" y2="500.7344"/><text fill="#000000" font-family="sans-serif" font-size="13" font-weight="bold" lengthAdjust="spacing" textLength="14.46" x="1220.082" y="495.4717">12</text><text fill="#000000" font-family="sans-serif" font-size="13" lengthAdjust="spacing" textLength="89.6035" x="1238.542" y="495.4717">Executes query</text><polygon fill="#181818" points="1224.082,528.0254,1214.082,532.0254,1224.082,536.0254,1220.082,532.0254" style="stroke:#181818;stroke-width:1.0;"/><line style="stroke:#181818;stroke-width:1.0;stroke-dasharray:2.0,2.0;" x1="1218.082" x2="1630.8149" y1="532.0254" y2="532.0254"/><text fill="#000000" font-family="sans-serif" font-size="13" font-weight="bold" lengthAdjust="spacing" textLength="14.46" x="1230.082" y="526.7627">13</text><text fill="#000000" font-family="sans-serif" font-size="13" lengthAdjust="spacing" textLength="291.1987" x="1248.542" y="526.7627">Returns ShowRequest records/data matching VAT</text><polygon fill="#181818" points="745.3667,559.3164,735.3667,563.3164,745.3667,567.3164,741.3667,563.3164" style="stroke:#181818;stroke-width:1.0;"/><line style="stroke:#181818;stroke-width:1.0;stroke-dasharray:2.0,2.0;" x1="739.3667" x2="1207.082" y1="563.3164" y2="563.3164"/><text fill="#000000" font-family="sans-serif" font-size="13" font-weight="bold" lengthAdjust="spacing" textLength="14.46" x="751.3667" y="558.0537">14</text><text fill="#000000" font-family="sans-serif" font-size="13" lengthAdjust="spacing" textLength="210.2979" x="769.8267" y="558.0537">requestList: Iterable&lt;ShowRequest&gt;</text><path d="M604.2051,578.3164 L676.6396,578.3164 L676.6396,587.6074 L666.6396,597.6074 L604.2051,597.6074 L604.2051,578.3164 " fill="#EEEEEE" style="stroke:#000000;stroke-width:1.5;"/><rect fill="none" height="94.2031" style="stroke:#000000;stroke-width:1.5;" width="994.6445" x="604.2051" y="578.3164"/><text fill="#000000" font-family="sans-serif" font-size="13" font-weight="bold" lengthAdjust="spacing" textLength="27.4346" x="619.2051" y="593.3447">loop</text><text fill="#000000" font-family="sans-serif" font-size="11" font-weight="bold" lengthAdjust="spacing" textLength="201.083" x="691.6396" y="592.1865">[for each ShowRequest in requestList]</text><polygon fill="#181818" points="1355.1055,616.8984,1365.1055,620.8984,1355.1055,624.8984,1359.1055,620.8984" style="stroke:#181818;stroke-width:1.0;"/><line style="stroke:#181818;stroke-width:1.0;" x1="734.3667" x2="1361.1055" y1="620.8984" y2="620.8984"/><text fill="#000000" font-family="sans-serif" font-size="13" font-weight="bold" lengthAdjust="spacing" textLength="14.46" x="741.3667" y="615.6357">15</text><text fill="#000000" font-family="sans-serif" font-size="13" lengthAdjust="spacing" textLength="384.376" x="759.8267" y="615.6357">create(request.submissionDate(), request.place(), request.status())</text><rect fill="#E2E2F0" height="32.6211" rx="2.5" ry="2.5" style="stroke:#181818;stroke-width:0.5;" width="221.7441" x="1367.1055" y="597.6074"/><text fill="#000000" font-family="sans-serif" font-size="14" lengthAdjust="spacing" textLength="207.7441" x="1374.1055" y="619.7148">dto : ShowRequestSummaryDTO</text><polygon fill="#181818" points="745.3667,660.5195,735.3667,664.5195,745.3667,668.5195,741.3667,664.5195" style="stroke:#181818;stroke-width:1.0;"/><line style="stroke:#181818;stroke-width:1.0;stroke-dasharray:2.0,2.0;" x1="739.3667" x2="1476.9775" y1="664.5195" y2="664.5195"/><text fill="#000000" font-family="sans-serif" font-size="13" font-weight="bold" lengthAdjust="spacing" textLength="14.46" x="751.3667" y="659.2568">16</text><text fill="#000000" font-family="sans-serif" font-size="13" lengthAdjust="spacing" textLength="106.209" x="769.8267" y="659.2568">showRequestDTO</text><polygon fill="#181818" points="424.8389,698.8105,414.8389,702.8105,424.8389,706.8105,420.8389,702.8105" style="stroke:#181818;stroke-width:1.0;"/><line style="stroke:#181818;stroke-width:1.0;stroke-dasharray:2.0,2.0;" x1="418.8389" x2="728.3667" y1="702.8105" y2="702.8105"/><text fill="#000000" font-family="sans-serif" font-size="13" font-weight="bold" lengthAdjust="spacing" textLength="14.46" x="430.8389" y="697.5479">17</text><text fill="#000000" font-family="sans-serif" font-size="13" lengthAdjust="spacing" textLength="268.0679" x="449.2988" y="697.5479">dtoList: Iterable&lt;ShowRequestSummaryDTO&gt;</text><polygon fill="#181818" points="51.6655,730.1016,41.6655,734.1016,51.6655,738.1016,47.6655,734.1016" style="stroke:#181818;stroke-width:1.0;"/><line style="stroke:#181818;stroke-width:1.0;stroke-dasharray:2.0,2.0;" x1="45.6655" x2="407.8389" y1="734.1016" y2="734.1016"/><text fill="#000000" font-family="sans-serif" font-size="13" font-weight="bold" lengthAdjust="spacing" textLength="14.46" x="57.6655" y="728.8389">18</text><text fill="#000000" font-family="sans-serif" font-size="13" lengthAdjust="spacing" textLength="315.7134" x="76.1255" y="728.8389">Displays formatted list of ShowRequestSummaryDTOs</text><!--SRC=[ZLHDZvim4BtpAqQSajKcbLhr4bMHDf2L8krg9KXwTs2IM3MOsgPj_dt7DWH3isqvy67clHc_DnxM6bctrH5LPBWH23b-Rx4k45BEpefLApZa7pzzXWMyS6qWlyYVaDaORJJ84oI2OssYY1L6AeYJx1KE6bKCJBkNg67Ay88th3OGhoo9XrYcdkYmy_6x_ufEP6sK5ABBaXWbnhZ2GJ9i9Aow0ks7vbJYrMDkYsEa7j9qy7oy4d3asP_uqammULjLJ5tJ_Pl3q3CgcM57fX7Yj7lplpPEHFw36VJAsHiirYIBvKI11KaUEnjy_MCtOf2DuR8EM7PHH62Yi1eHoHdDan0Uh9-bygI4cSq7bDFJ0ImmbFB4wvBme-11o22KWEc60DjVMBG6DL25wWepN9wNZv1lNxR97WfupjvU-wqK0Ib9GV35D7s6fbLrRnueBAGgzGUhPrHYY0vB6NRlsyBgjuATGSME0h_uq7L84Ex9oT1xC12CmgrUJcSRPptp7Q11MAleZ7YSVYIRlsauqJdHlV3tJVQ0cO_2qXVqzMa_d_Xf4uGdWonDteNUDzXtSMVkvdgB_oj3r_eTzhxRz-oy9Ukj38eV-GaLCyM5rsUWn1Dp-wo33CepJ9mDk4VsTiL7Gih6cK6_BgDAU1rIHa1NBnSTu8S7smeAYMlMXIrrUwourcHeQfVdZpt1iX6i62remqohP_EvunqsHfF1Bj0pt5emaFg8K0rQmhgC9drAK-XzBOQ9jFvN5wTSK_bNrx9a23N3hQNl4kgGq0wVyDDEjDy0]--></g></svg>