<svg xmlns="http://www.w3.org/2000/svg" xmlns:xlink="http://www.w3.org/1999/xlink" contentStyleType="text/css" data-diagram-type="CLASS" height="983px" preserveAspectRatio="none" style="width:1393px;height:983px;background:#FFFFFF;" version="1.1" viewBox="0 0 1393 983" width="1393px" zoomAndPan="magnify"><title>US230_RegisterShowRequest_CD</title><defs/><g><text fill="#000000" font-family="sans-serif" font-size="14" font-weight="bold" lengthAdjust="spacing" textLength="260.4766" x="559.7036" y="22.9951">US230_RegisterShowRequest_CD</text><!--class RegisterShowRequestUI--><g id="elem_RegisterShowRequestUI"><rect codeLine="3" fill="#F1F1F1" height="80.5938" id="RegisterShowRequestUI" rx="2.5" ry="2.5" style="stroke:#181818;stroke-width:0.5;" width="329.4268" x="573.5" y="44.2969"/><ellipse cx="650.0044" cy="60.2969" fill="#ADD1B2" rx="11" ry="11" style="stroke:#181818;stroke-width:1;"/><path d="M652.9731,65.9375 Q652.395,66.2344 651.7544,66.375 Q651.1138,66.5313 650.4106,66.5313 Q647.9106,66.5313 646.5825,64.8906 Q645.27,63.2344 645.27,60.1094 Q645.27,56.9844 646.5825,55.3281 Q647.9106,53.6719 650.4106,53.6719 Q651.1138,53.6719 651.7544,53.8281 Q652.4106,53.9844 652.9731,54.2813 L652.9731,57 Q652.3481,56.4219 651.7544,56.1563 Q651.1606,55.875 650.5356,55.875 Q649.1919,55.875 648.5044,56.9531 Q647.8169,58.0156 647.8169,60.1094 Q647.8169,62.2031 648.5044,63.2813 Q649.1919,64.3438 650.5356,64.3438 Q651.1606,64.3438 651.7544,64.0781 Q652.3481,63.7969 652.9731,63.2188 L652.9731,65.9375 Z " fill="#000000"/><text fill="#000000" font-family="sans-serif" font-size="14" lengthAdjust="spacing" textLength="167.918" x="670.5044" y="65.1436">RegisterShowRequestUI</text><line style="stroke:#181818;stroke-width:0.5;" x1="574.5" x2="901.9268" y1="76.2969" y2="76.2969"/><rect fill="transparent" height="6" style="stroke:#C82930;stroke-width:1;" width="6" x="581.5" y="86.9453"/><text fill="#000000" font-family="sans-serif" font-size="14" lengthAdjust="spacing" textLength="303.4268" x="593.5" y="93.292">controller : RegisterShowRequestController</text><line style="stroke:#181818;stroke-width:0.5;" x1="574.5" x2="901.9268" y1="100.5938" y2="100.5938"/><ellipse cx="584.5" cy="114.2422" fill="#84BE84" rx="3" ry="3" style="stroke:#038048;stroke-width:1;"/><text fill="#000000" font-family="sans-serif" font-size="14" lengthAdjust="spacing" textLength="66.1514" x="593.5" y="117.5889">doShow()</text></g><!--class RegisterShowRequestController--><g id="elem_RegisterShowRequestController"><rect codeLine="8" fill="#F1F1F1" height="113.1875" id="RegisterShowRequestController" rx="2.5" ry="2.5" style="stroke:#181818;stroke-width:0.5;" width="1129.751" x="173" y="186.2969"/><ellipse cx="622.2681" cy="202.2969" fill="#ADD1B2" rx="11" ry="11" style="stroke:#181818;stroke-width:1;"/><path d="M625.2368,207.9375 Q624.6587,208.2344 624.0181,208.375 Q623.3774,208.5313 622.6743,208.5313 Q620.1743,208.5313 618.8462,206.8906 Q617.5337,205.2344 617.5337,202.1094 Q617.5337,198.9844 618.8462,197.3281 Q620.1743,195.6719 622.6743,195.6719 Q623.3774,195.6719 624.0181,195.8281 Q624.6743,195.9844 625.2368,196.2813 L625.2368,199 Q624.6118,198.4219 624.0181,198.1563 Q623.4243,197.875 622.7993,197.875 Q621.4556,197.875 620.7681,198.9531 Q620.0806,200.0156 620.0806,202.1094 Q620.0806,204.2031 620.7681,205.2813 Q621.4556,206.3438 622.7993,206.3438 Q623.4243,206.3438 624.0181,206.0781 Q624.6118,205.7969 625.2368,205.2188 L625.2368,207.9375 Z " fill="#000000"/><text fill="#000000" font-family="sans-serif" font-size="14" lengthAdjust="spacing" textLength="222.7148" x="642.7681" y="207.1436">RegisterShowRequestController</text><line style="stroke:#181818;stroke-width:0.5;" x1="174" x2="1301.751" y1="218.2969" y2="218.2969"/><rect fill="transparent" height="6" style="stroke:#C82930;stroke-width:1;" width="6" x="181" y="228.9453"/><text fill="#000000" font-family="sans-serif" font-size="14" lengthAdjust="spacing" textLength="297.6914" x="193" y="235.292">customerRepository : CustomerRepository</text><rect fill="transparent" height="6" style="stroke:#C82930;stroke-width:1;" width="6" x="181" y="245.2422"/><text fill="#000000" font-family="sans-serif" font-size="14" lengthAdjust="spacing" textLength="352.7139" x="193" y="251.5889">showRequestRepository : ShowRequestRepository</text><line style="stroke:#181818;stroke-width:0.5;" x1="174" x2="1301.751" y1="258.8906" y2="258.8906"/><ellipse cx="184" cy="272.5391" fill="#84BE84" rx="3" ry="3" style="stroke:#038048;stroke-width:1;"/><text fill="#000000" font-family="sans-serif" font-size="14" lengthAdjust="spacing" textLength="311.8008" x="193" y="275.8857">getActiveCustomers() : Iterable&lt;Customer&gt;</text><ellipse cx="184" cy="288.8359" fill="#84BE84" rx="3" ry="3" style="stroke:#038048;stroke-width:1;"/><text fill="#000000" font-family="sans-serif" font-size="14" lengthAdjust="spacing" textLength="1103.751" x="193" y="292.1826">registerShowRequest(customerVAT: VAT, place: String, dateTime: LocalDateTime, duration: Duration, droneCount: int, descriptionRef: String) : ShowRequest</text></g><!--class ShowRequest--><g id="elem_ShowRequest"><rect codeLine="15" fill="#F1F1F1" height="202.9375" id="ShowRequest" rx="2.5" ry="2.5" style="stroke:#181818;stroke-width:0.5;" width="308.8984" x="583.5" y="376.2969"/><ellipse cx="686.063" cy="396.4297" fill="#ADD1B2" rx="11" ry="11" style="stroke:#181818;stroke-width:1;"/><path d="M689.0317,402.0703 Q688.4536,402.3672 687.813,402.5078 Q687.1724,402.6641 686.4692,402.6641 Q683.9692,402.6641 682.6411,401.0234 Q681.3286,399.3672 681.3286,396.2422 Q681.3286,393.1172 682.6411,391.4609 Q683.9692,389.8047 686.4692,389.8047 Q687.1724,389.8047 687.813,389.9609 Q688.4692,390.1172 689.0317,390.4141 L689.0317,393.1328 Q688.4067,392.5547 687.813,392.2891 Q687.2192,392.0078 686.5942,392.0078 Q685.2505,392.0078 684.563,393.0859 Q683.8755,394.1484 683.8755,396.2422 Q683.8755,398.3359 684.563,399.4141 Q685.2505,400.4766 686.5942,400.4766 Q687.2192,400.4766 687.813,400.2109 Q688.4067,399.9297 689.0317,399.3516 L689.0317,402.0703 Z " fill="#000000"/><text fill="#000000" font-family="sans-serif" font-size="12" font-style="italic" lengthAdjust="spacing" textLength="49.8457" x="729.2764" y="392.4355">&#171;Entity&#187;</text><text fill="#000000" font-family="sans-serif" font-size="14" lengthAdjust="spacing" textLength="95.2725" x="706.563" y="408.2607">ShowRequest</text><line style="stroke:#181818;stroke-width:0.5;" x1="584.5" x2="891.3984" y1="416.5625" y2="416.5625"/><rect fill="transparent" height="6" style="stroke:#C82930;stroke-width:1;" width="6" x="591.5" y="427.2109"/><text fill="#000000" font-family="sans-serif" font-size="14" lengthAdjust="spacing" textLength="173.7695" x="603.5" y="433.5576">customerVAT : VAT &#171;FK&#187;</text><rect fill="transparent" height="6" style="stroke:#C82930;stroke-width:1;" width="6" x="591.5" y="443.5078"/><text fill="#000000" font-family="sans-serif" font-size="14" lengthAdjust="spacing" textLength="104.4121" x="603.5" y="449.8545">place : Place_1</text><rect fill="transparent" height="6" style="stroke:#C82930;stroke-width:1;" width="6" x="591.5" y="459.8047"/><text fill="#000000" font-family="sans-serif" font-size="14" lengthAdjust="spacing" textLength="129.2471" x="603.5" y="466.1514">dateTime : Date_3</text><rect fill="transparent" height="6" style="stroke:#C82930;stroke-width:1;" width="6" x="591.5" y="476.1016"/><text fill="#000000" font-family="sans-serif" font-size="14" lengthAdjust="spacing" textLength="149.2422" x="603.5" y="482.4482">duration : Duration_2</text><rect fill="transparent" height="6" style="stroke:#C82930;stroke-width:1;" width="6" x="591.5" y="492.3984"/><text fill="#000000" font-family="sans-serif" font-size="14" lengthAdjust="spacing" textLength="259.4033" x="603.5" y="498.7451">requestedDrones : DronesRequested</text><rect fill="transparent" height="6" style="stroke:#C82930;stroke-width:1;" width="6" x="591.5" y="508.6953"/><text fill="#000000" font-family="sans-serif" font-size="14" lengthAdjust="spacing" textLength="282.8984" x="603.5" y="515.042">descriptionDocumentRef : Description_1</text><rect fill="transparent" height="6" style="stroke:#C82930;stroke-width:1;" width="6" x="591.5" y="524.9922"/><text fill="#000000" font-family="sans-serif" font-size="14" lengthAdjust="spacing" textLength="196.5195" x="603.5" y="531.3389">status : ShowRequestStatus</text><rect fill="transparent" height="6" style="stroke:#C82930;stroke-width:1;" width="6" x="591.5" y="541.2891"/><text fill="#000000" font-family="sans-serif" font-size="14" lengthAdjust="spacing" textLength="230.2617" x="603.5" y="547.6357">submissionDate : LocalDateTime</text><line style="stroke:#181818;stroke-width:0.5;" x1="584.5" x2="891.3984" y1="554.9375" y2="554.9375"/><ellipse cx="594.5" cy="568.5859" fill="#84BE84" rx="3" ry="3" style="stroke:#038048;stroke-width:1;"/><text fill="#000000" font-family="sans-serif" font-size="14" lengthAdjust="spacing" textLength="69.0225" x="603.5" y="571.9326">create(...)</text></g><!--class ShowRequestStatus--><g id="elem_ShowRequestStatus"><rect codeLine="27" fill="#F1F1F1" height="170.3438" id="ShowRequestStatus" rx="2.5" ry="2.5" style="stroke:#181818;stroke-width:0.5;" width="171.8838" x="1215" y="656.2969"/><ellipse cx="1230" cy="676.4297" fill="#EB937F" rx="11" ry="11" style="stroke:#181818;stroke-width:1;"/><path d="M1234.1094,682.4297 L1226.3906,682.4297 L1226.3906,670.0391 L1234.1094,670.0391 L1234.1094,672.1953 L1228.8438,672.1953 L1228.8438,674.8672 L1233.6094,674.8672 L1233.6094,677.0234 L1228.8438,677.0234 L1228.8438,680.2734 L1234.1094,680.2734 L1234.1094,682.4297 Z " fill="#000000"/><text fill="#000000" font-family="sans-serif" font-size="12" font-style="italic" lengthAdjust="spacing" textLength="87.7793" x="1270.0522" y="672.4355">&#171;ValueObject&#187;</text><text fill="#000000" font-family="sans-serif" font-size="14" lengthAdjust="spacing" textLength="139.8838" x="1244" y="688.2607">ShowRequestStatus</text><line style="stroke:#181818;stroke-width:0.5;" x1="1216" x2="1385.8838" y1="696.5625" y2="696.5625"/><text fill="#000000" font-family="sans-serif" font-size="14" lengthAdjust="spacing" textLength="81.6758" x="1221" y="713.5576">SUBMITTED</text><text fill="#000000" font-family="sans-serif" font-size="14" lengthAdjust="spacing" textLength="124.9541" x="1221" y="729.8545">UNDER_ANALYSIS</text><text fill="#000000" font-family="sans-serif" font-size="14" lengthAdjust="spacing" textLength="76.4121" x="1221" y="746.1514">APPROVED</text><text fill="#000000" font-family="sans-serif" font-size="14" lengthAdjust="spacing" textLength="69.501" x="1221" y="762.4482">REJECTED</text><text fill="#000000" font-family="sans-serif" font-size="14" lengthAdjust="spacing" textLength="115.7666" x="1221" y="778.7451">IN_PRODUCTION</text><text fill="#000000" font-family="sans-serif" font-size="14" lengthAdjust="spacing" textLength="86.1396" x="1221" y="795.042">COMPLETED</text><text fill="#000000" font-family="sans-serif" font-size="14" lengthAdjust="spacing" textLength="83.6719" x="1221" y="811.3389">CANCELLED</text><line style="stroke:#181818;stroke-width:0.5;" x1="1216" x2="1385.8838" y1="818.6406" y2="818.6406"/></g><!--class CustomerRepository--><g id="elem_CustomerRepository"><rect codeLine="37" fill="#F1F1F1" height="88.8594" id="CustomerRepository" rx="2.5" ry="2.5" style="stroke:#181818;stroke-width:0.5;" width="337.0488" x="155.5" y="433.2969"/><ellipse cx="248.2363" cy="453.4297" fill="#B4A7E5" rx="11" ry="11" style="stroke:#181818;stroke-width:1;"/><path d="M244.1582,449.1953 L244.1582,447.0391 L251.5488,447.0391 L251.5488,449.1953 L249.0801,449.1953 L249.0801,457.2734 L251.5488,457.2734 L251.5488,459.4297 L244.1582,459.4297 L244.1582,457.2734 L246.627,457.2734 L246.627,449.1953 L244.1582,449.1953 Z " fill="#000000"/><text fill="#000000" font-family="sans-serif" font-size="12" font-style="italic" lengthAdjust="spacing" textLength="79.1602" x="300.6943" y="449.4355">&#171;Repository&#187;</text><text fill="#000000" font-family="sans-serif" font-size="14" font-style="italic" lengthAdjust="spacing" textLength="143.0762" x="268.7363" y="465.2607">CustomerRepository</text><line style="stroke:#181818;stroke-width:0.5;" x1="156.5" x2="491.5488" y1="473.5625" y2="473.5625"/><line style="stroke:#181818;stroke-width:0.5;" x1="156.5" x2="491.5488" y1="481.5625" y2="481.5625"/><ellipse cx="166.5" cy="495.2109" fill="#84BE84" rx="3" ry="3" style="stroke:#038048;stroke-width:1;"/><text fill="#000000" font-family="sans-serif" font-size="14" lengthAdjust="spacing" textLength="240.0918" x="175.5" y="498.5576">findActive() : Iterable&lt;Customer&gt;</text><ellipse cx="166.5" cy="511.5078" fill="#84BE84" rx="3" ry="3" style="stroke:#038048;stroke-width:1;"/><text fill="#000000" font-family="sans-serif" font-size="14" lengthAdjust="spacing" textLength="311.0488" x="175.5" y="514.8545">findByVAT(vat : VAT) : Optional&lt;Customer&gt;</text></g><!--class ShowRequestRepository--><g id="elem_ShowRequestRepository"><rect codeLine="42" fill="#F1F1F1" height="72.5625" id="ShowRequestRepository" rx="2.5" ry="2.5" style="stroke:#181818;stroke-width:0.5;" width="341" x="927.5" y="441.2969"/><ellipse cx="1008.5776" cy="461.4297" fill="#B4A7E5" rx="11" ry="11" style="stroke:#181818;stroke-width:1;"/><path d="M1004.4995,457.1953 L1004.4995,455.0391 L1011.8901,455.0391 L1011.8901,457.1953 L1009.4214,457.1953 L1009.4214,465.2734 L1011.8901,465.2734 L1011.8901,467.4297 L1004.4995,467.4297 L1004.4995,465.2734 L1006.9683,465.2734 L1006.9683,457.1953 L1004.4995,457.1953 Z " fill="#000000"/><text fill="#000000" font-family="sans-serif" font-size="12" font-style="italic" lengthAdjust="spacing" textLength="79.1602" x="1074.6699" y="457.4355">&#171;Repository&#187;</text><text fill="#000000" font-family="sans-serif" font-size="14" font-style="italic" lengthAdjust="spacing" textLength="170.3447" x="1029.0776" y="473.2607">ShowRequestRepository</text><line style="stroke:#181818;stroke-width:0.5;" x1="928.5" x2="1267.5" y1="481.5625" y2="481.5625"/><line style="stroke:#181818;stroke-width:0.5;" x1="928.5" x2="1267.5" y1="489.5625" y2="489.5625"/><ellipse cx="938.5" cy="503.2109" fill="#84BE84" rx="3" ry="3" style="stroke:#038048;stroke-width:1;"/><text fill="#000000" font-family="sans-serif" font-size="14" lengthAdjust="spacing" textLength="315" x="947.5" y="506.5576">save(request : ShowRequest) : ShowRequest</text></g><!--class Customer--><g id="elem_Customer"><rect codeLine="46" fill="#F1F1F1" height="105.1563" id="Customer" rx="2.5" ry="2.5" style="stroke:#181818;stroke-width:0.5;" width="161.249" x="209.5" y="688.7969"/><ellipse cx="237.0512" cy="708.9297" fill="#ADD1B2" rx="11" ry="11" style="stroke:#181818;stroke-width:1;"/><path d="M240.02,714.5703 Q239.4418,714.8672 238.8012,715.0078 Q238.1606,715.1641 237.4575,715.1641 Q234.9575,715.1641 233.6293,713.5234 Q232.3168,711.8672 232.3168,708.7422 Q232.3168,705.6172 233.6293,703.9609 Q234.9575,702.3047 237.4575,702.3047 Q238.1606,702.3047 238.8012,702.4609 Q239.4575,702.6172 240.02,702.9141 L240.02,705.6328 Q239.395,705.0547 238.8012,704.7891 Q238.2075,704.5078 237.5825,704.5078 Q236.2387,704.5078 235.5512,705.5859 Q234.8637,706.6484 234.8637,708.7422 Q234.8637,710.8359 235.5512,711.9141 Q236.2387,712.9766 237.5825,712.9766 Q238.2075,712.9766 238.8012,712.7109 Q239.395,712.4297 240.02,711.8516 L240.02,714.5703 Z " fill="#000000"/><text fill="#000000" font-family="sans-serif" font-size="12" font-style="italic" lengthAdjust="spacing" textLength="105.3574" x="251.8404" y="704.9355">&#171;AggregateRoot&#187;</text><text fill="#000000" font-family="sans-serif" font-size="14" lengthAdjust="spacing" textLength="68.0039" x="270.5171" y="720.7607">Customer</text><line style="stroke:#181818;stroke-width:0.5;" x1="210.5" x2="369.749" y1="729.0625" y2="729.0625"/><line style="stroke:#181818;stroke-width:0.5;" x1="210.5" x2="369.749" y1="737.0625" y2="737.0625"/><ellipse cx="220.5" cy="750.7109" fill="#84BE84" rx="3" ry="3" style="stroke:#038048;stroke-width:1;"/><text fill="#000000" font-family="sans-serif" font-size="14" lengthAdjust="spacing" textLength="74.6006" x="229.5" y="754.0576">vat() : VAT</text><ellipse cx="220.5" cy="767.0078" fill="#84BE84" rx="3" ry="3" style="stroke:#038048;stroke-width:1;"/><text fill="#000000" font-family="sans-serif" font-size="14" lengthAdjust="spacing" textLength="105.5469" x="229.5" y="770.3545">name() : Name</text><ellipse cx="220.5" cy="783.3047" fill="#84BE84" rx="3" ry="3" style="stroke:#038048;stroke-width:1;"/><text fill="#000000" font-family="sans-serif" font-size="14" lengthAdjust="spacing" textLength="135.249" x="229.5" y="786.6514">isActive() : boolean</text></g><!--class Geolocation--><g id="elem_Geolocation"><rect codeLine="52" fill="#F1F1F1" height="88.8594" id="Geolocation" rx="2.5" ry="2.5" style="stroke:#181818;stroke-width:0.5;" width="153.2988" x="460.5" y="887.2969"/><ellipse cx="492.3838" cy="907.4297" fill="#ADD1B2" rx="11" ry="11" style="stroke:#181818;stroke-width:1;"/><path d="M495.3525,913.0703 Q494.7744,913.3672 494.1338,913.5078 Q493.4932,913.6641 492.79,913.6641 Q490.29,913.6641 488.9619,912.0234 Q487.6494,910.3672 487.6494,907.2422 Q487.6494,904.1172 488.9619,902.4609 Q490.29,900.8047 492.79,900.8047 Q493.4932,900.8047 494.1338,900.9609 Q494.79,901.1172 495.3525,901.4141 L495.3525,904.1328 Q494.7275,903.5547 494.1338,903.2891 Q493.54,903.0078 492.915,903.0078 Q491.5713,903.0078 490.8838,904.0859 Q490.1963,905.1484 490.1963,907.2422 Q490.1963,909.3359 490.8838,910.4141 Q491.5713,911.4766 492.915,911.4766 Q493.54,911.4766 494.1338,911.2109 Q494.7275,910.9297 495.3525,910.3516 L495.3525,913.0703 Z " fill="#000000"/><text fill="#000000" font-family="sans-serif" font-size="12" font-style="italic" lengthAdjust="spacing" textLength="87.7793" x="508.1357" y="903.4355">&#171;ValueObject&#187;</text><text fill="#000000" font-family="sans-serif" font-size="14" lengthAdjust="spacing" textLength="83.5762" x="510.2373" y="919.2607">Geolocation</text><line style="stroke:#181818;stroke-width:0.5;" x1="461.5" x2="612.7988" y1="927.5625" y2="927.5625"/><ellipse cx="471.5" cy="941.2109" fill="transparent" rx="3" ry="3" style="stroke:#038048;stroke-width:1;"/><text fill="#000000" font-family="sans-serif" font-size="14" lengthAdjust="spacing" textLength="127.2988" x="480.5" y="944.5576">longitude : double</text><ellipse cx="471.5" cy="957.5078" fill="transparent" rx="3" ry="3" style="stroke:#038048;stroke-width:1;"/><text fill="#000000" font-family="sans-serif" font-size="14" lengthAdjust="spacing" textLength="115.042" x="480.5" y="960.8545">latitude : double</text><line style="stroke:#181818;stroke-width:0.5;" x1="461.5" x2="612.7988" y1="968.1563" y2="968.1563"/></g><!--class VAT--><g id="elem_VAT"><rect codeLine="57" fill="#F1F1F1" height="56.2656" id="VAT" rx="2.5" ry="2.5" style="stroke:#181818;stroke-width:0.5;" width="115.7793" x="309" y="903.7969"/><ellipse cx="324" cy="923.9297" fill="#ADD1B2" rx="11" ry="11" style="stroke:#181818;stroke-width:1;"/><path d="M326.9688,929.5703 Q326.3906,929.8672 325.75,930.0078 Q325.1094,930.1641 324.4063,930.1641 Q321.9063,930.1641 320.5781,928.5234 Q319.2656,926.8672 319.2656,923.7422 Q319.2656,920.6172 320.5781,918.9609 Q321.9063,917.3047 324.4063,917.3047 Q325.1094,917.3047 325.75,917.4609 Q326.4063,917.6172 326.9688,917.9141 L326.9688,920.6328 Q326.3438,920.0547 325.75,919.7891 Q325.1563,919.5078 324.5313,919.5078 Q323.1875,919.5078 322.5,920.5859 Q321.8125,921.6484 321.8125,923.7422 Q321.8125,925.8359 322.5,926.9141 Q323.1875,927.9766 324.5313,927.9766 Q325.1563,927.9766 325.75,927.7109 Q326.3438,927.4297 326.9688,926.8516 L326.9688,929.5703 Z " fill="#000000"/><text fill="#000000" font-family="sans-serif" font-size="12" font-style="italic" lengthAdjust="spacing" textLength="87.7793" x="336" y="919.9355">&#171;ValueObject&#187;</text><text fill="#000000" font-family="sans-serif" font-size="14" lengthAdjust="spacing" textLength="27.7061" x="366.0366" y="935.7607">VAT</text><line style="stroke:#181818;stroke-width:0.5;" x1="310" x2="423.7793" y1="944.0625" y2="944.0625"/><line style="stroke:#181818;stroke-width:0.5;" x1="310" x2="423.7793" y1="952.0625" y2="952.0625"/></g><!--class Place_1--><g id="elem_Place_1"><rect codeLine="58" fill="#F1F1F1" height="56.2656" id="Place_1" rx="2.5" ry="2.5" style="stroke:#181818;stroke-width:0.5;" width="115.7793" x="406" y="713.2969"/><ellipse cx="421" cy="733.4297" fill="#ADD1B2" rx="11" ry="11" style="stroke:#181818;stroke-width:1;"/><path d="M423.9688,739.0703 Q423.3906,739.3672 422.75,739.5078 Q422.1094,739.6641 421.4063,739.6641 Q418.9063,739.6641 417.5781,738.0234 Q416.2656,736.3672 416.2656,733.2422 Q416.2656,730.1172 417.5781,728.4609 Q418.9063,726.8047 421.4063,726.8047 Q422.1094,726.8047 422.75,726.9609 Q423.4063,727.1172 423.9688,727.4141 L423.9688,730.1328 Q423.3438,729.5547 422.75,729.2891 Q422.1563,729.0078 421.5313,729.0078 Q420.1875,729.0078 419.5,730.0859 Q418.8125,731.1484 418.8125,733.2422 Q418.8125,735.3359 419.5,736.4141 Q420.1875,737.4766 421.5313,737.4766 Q422.1563,737.4766 422.75,737.2109 Q423.3438,736.9297 423.9688,736.3516 L423.9688,739.0703 Z " fill="#000000"/><text fill="#000000" font-family="sans-serif" font-size="12" font-style="italic" lengthAdjust="spacing" textLength="87.7793" x="433" y="729.4355">&#171;ValueObject&#187;</text><text fill="#000000" font-family="sans-serif" font-size="14" lengthAdjust="spacing" textLength="53.1289" x="450.3252" y="745.2607">Place_1</text><line style="stroke:#181818;stroke-width:0.5;" x1="407" x2="520.7793" y1="753.5625" y2="753.5625"/><line style="stroke:#181818;stroke-width:0.5;" x1="407" x2="520.7793" y1="761.5625" y2="761.5625"/></g><!--class Date_3--><g id="elem_Date_3"><rect codeLine="59" fill="#F1F1F1" height="56.2656" id="Date_3" rx="2.5" ry="2.5" style="stroke:#181818;stroke-width:0.5;" width="115.7793" x="557" y="713.2969"/><ellipse cx="572" cy="733.4297" fill="#ADD1B2" rx="11" ry="11" style="stroke:#181818;stroke-width:1;"/><path d="M574.9688,739.0703 Q574.3906,739.3672 573.75,739.5078 Q573.1094,739.6641 572.4063,739.6641 Q569.9063,739.6641 568.5781,738.0234 Q567.2656,736.3672 567.2656,733.2422 Q567.2656,730.1172 568.5781,728.4609 Q569.9063,726.8047 572.4063,726.8047 Q573.1094,726.8047 573.75,726.9609 Q574.4063,727.1172 574.9688,727.4141 L574.9688,730.1328 Q574.3438,729.5547 573.75,729.2891 Q573.1563,729.0078 572.5313,729.0078 Q571.1875,729.0078 570.5,730.0859 Q569.8125,731.1484 569.8125,733.2422 Q569.8125,735.3359 570.5,736.4141 Q571.1875,737.4766 572.5313,737.4766 Q573.1563,737.4766 573.75,737.2109 Q574.3438,736.9297 574.9688,736.3516 L574.9688,739.0703 Z " fill="#000000"/><text fill="#000000" font-family="sans-serif" font-size="12" font-style="italic" lengthAdjust="spacing" textLength="87.7793" x="584" y="729.4355">&#171;ValueObject&#187;</text><text fill="#000000" font-family="sans-serif" font-size="14" lengthAdjust="spacing" textLength="49.3691" x="603.2051" y="745.2607">Date_3</text><line style="stroke:#181818;stroke-width:0.5;" x1="558" x2="671.7793" y1="753.5625" y2="753.5625"/><line style="stroke:#181818;stroke-width:0.5;" x1="558" x2="671.7793" y1="761.5625" y2="761.5625"/></g><!--class Duration_2--><g id="elem_Duration_2"><rect codeLine="60" fill="#F1F1F1" height="56.2656" id="Duration_2" rx="2.5" ry="2.5" style="stroke:#181818;stroke-width:0.5;" width="115.7793" x="708" y="713.2969"/><ellipse cx="723" cy="733.4297" fill="#ADD1B2" rx="11" ry="11" style="stroke:#181818;stroke-width:1;"/><path d="M725.9688,739.0703 Q725.3906,739.3672 724.75,739.5078 Q724.1094,739.6641 723.4063,739.6641 Q720.9063,739.6641 719.5781,738.0234 Q718.2656,736.3672 718.2656,733.2422 Q718.2656,730.1172 719.5781,728.4609 Q720.9063,726.8047 723.4063,726.8047 Q724.1094,726.8047 724.75,726.9609 Q725.4063,727.1172 725.9688,727.4141 L725.9688,730.1328 Q725.3438,729.5547 724.75,729.2891 Q724.1563,729.0078 723.5313,729.0078 Q722.1875,729.0078 721.5,730.0859 Q720.8125,731.1484 720.8125,733.2422 Q720.8125,735.3359 721.5,736.4141 Q722.1875,737.4766 723.5313,737.4766 Q724.1563,737.4766 724.75,737.2109 Q725.3438,736.9297 725.9688,736.3516 L725.9688,739.0703 Z " fill="#000000"/><text fill="#000000" font-family="sans-serif" font-size="12" font-style="italic" lengthAdjust="spacing" textLength="87.7793" x="735" y="729.4355">&#171;ValueObject&#187;</text><text fill="#000000" font-family="sans-serif" font-size="14" lengthAdjust="spacing" textLength="76.7129" x="740.5332" y="745.2607">Duration_2</text><line style="stroke:#181818;stroke-width:0.5;" x1="709" x2="822.7793" y1="753.5625" y2="753.5625"/><line style="stroke:#181818;stroke-width:0.5;" x1="709" x2="822.7793" y1="761.5625" y2="761.5625"/></g><!--class DronesRequested--><g id="elem_DronesRequested"><rect codeLine="61" fill="#F1F1F1" height="56.2656" id="DronesRequested" rx="2.5" ry="2.5" style="stroke:#181818;stroke-width:0.5;" width="156.8789" x="859.5" y="713.2969"/><ellipse cx="874.5" cy="733.4297" fill="#ADD1B2" rx="11" ry="11" style="stroke:#181818;stroke-width:1;"/><path d="M877.4688,739.0703 Q876.8906,739.3672 876.25,739.5078 Q875.6094,739.6641 874.9063,739.6641 Q872.4063,739.6641 871.0781,738.0234 Q869.7656,736.3672 869.7656,733.2422 Q869.7656,730.1172 871.0781,728.4609 Q872.4063,726.8047 874.9063,726.8047 Q875.6094,726.8047 876.25,726.9609 Q876.9063,727.1172 877.4688,727.4141 L877.4688,730.1328 Q876.8438,729.5547 876.25,729.2891 Q875.6563,729.0078 875.0313,729.0078 Q873.6875,729.0078 873,730.0859 Q872.3125,731.1484 872.3125,733.2422 Q872.3125,735.3359 873,736.4141 Q873.6875,737.4766 875.0313,737.4766 Q875.6563,737.4766 876.25,737.2109 Q876.8438,736.9297 877.4688,736.3516 L877.4688,739.0703 Z " fill="#000000"/><text fill="#000000" font-family="sans-serif" font-size="12" font-style="italic" lengthAdjust="spacing" textLength="87.7793" x="907.0498" y="729.4355">&#171;ValueObject&#187;</text><text fill="#000000" font-family="sans-serif" font-size="14" lengthAdjust="spacing" textLength="124.8789" x="888.5" y="745.2607">DronesRequested</text><line style="stroke:#181818;stroke-width:0.5;" x1="860.5" x2="1015.3789" y1="753.5625" y2="753.5625"/><line style="stroke:#181818;stroke-width:0.5;" x1="860.5" x2="1015.3789" y1="761.5625" y2="761.5625"/></g><!--class Description_1--><g id="elem_Description_1"><rect codeLine="62" fill="#F1F1F1" height="56.2656" id="Description_1" rx="2.5" ry="2.5" style="stroke:#181818;stroke-width:0.5;" width="127.6416" x="1052" y="713.2969"/><ellipse cx="1067" cy="733.4297" fill="#ADD1B2" rx="11" ry="11" style="stroke:#181818;stroke-width:1;"/><path d="M1069.9688,739.0703 Q1069.3906,739.3672 1068.75,739.5078 Q1068.1094,739.6641 1067.4063,739.6641 Q1064.9063,739.6641 1063.5781,738.0234 Q1062.2656,736.3672 1062.2656,733.2422 Q1062.2656,730.1172 1063.5781,728.4609 Q1064.9063,726.8047 1067.4063,726.8047 Q1068.1094,726.8047 1068.75,726.9609 Q1069.4063,727.1172 1069.9688,727.4141 L1069.9688,730.1328 Q1069.3438,729.5547 1068.75,729.2891 Q1068.1563,729.0078 1067.5313,729.0078 Q1066.1875,729.0078 1065.5,730.0859 Q1064.8125,731.1484 1064.8125,733.2422 Q1064.8125,735.3359 1065.5,736.4141 Q1066.1875,737.4766 1067.5313,737.4766 Q1068.1563,737.4766 1068.75,737.2109 Q1069.3438,736.9297 1069.9688,736.3516 L1069.9688,739.0703 Z " fill="#000000"/><text fill="#000000" font-family="sans-serif" font-size="12" font-style="italic" lengthAdjust="spacing" textLength="87.7793" x="1084.9312" y="729.4355">&#171;ValueObject&#187;</text><text fill="#000000" font-family="sans-serif" font-size="14" lengthAdjust="spacing" textLength="95.6416" x="1081" y="745.2607">Description_1</text><line style="stroke:#181818;stroke-width:0.5;" x1="1053" x2="1178.6416" y1="753.5625" y2="753.5625"/><line style="stroke:#181818;stroke-width:0.5;" x1="1053" x2="1178.6416" y1="761.5625" y2="761.5625"/></g><!--class Name--><g id="elem_Name"><rect codeLine="63" fill="#F1F1F1" height="56.2656" id="Name" rx="2.5" ry="2.5" style="stroke:#181818;stroke-width:0.5;" width="115.7793" x="7" y="903.7969"/><ellipse cx="22" cy="923.9297" fill="#ADD1B2" rx="11" ry="11" style="stroke:#181818;stroke-width:1;"/><path d="M24.9688,929.5703 Q24.3906,929.8672 23.75,930.0078 Q23.1094,930.1641 22.4063,930.1641 Q19.9063,930.1641 18.5781,928.5234 Q17.2656,926.8672 17.2656,923.7422 Q17.2656,920.6172 18.5781,918.9609 Q19.9063,917.3047 22.4063,917.3047 Q23.1094,917.3047 23.75,917.4609 Q24.4063,917.6172 24.9688,917.9141 L24.9688,920.6328 Q24.3438,920.0547 23.75,919.7891 Q23.1563,919.5078 22.5313,919.5078 Q21.1875,919.5078 20.5,920.5859 Q19.8125,921.6484 19.8125,923.7422 Q19.8125,925.8359 20.5,926.9141 Q21.1875,927.9766 22.5313,927.9766 Q23.1563,927.9766 23.75,927.7109 Q24.3438,927.4297 24.9688,926.8516 L24.9688,929.5703 Z " fill="#000000"/><text fill="#000000" font-family="sans-serif" font-size="12" font-style="italic" lengthAdjust="spacing" textLength="87.7793" x="34" y="919.9355">&#171;ValueObject&#187;</text><text fill="#000000" font-family="sans-serif" font-size="14" lengthAdjust="spacing" textLength="41.3027" x="57.2383" y="935.7607">Name</text><line style="stroke:#181818;stroke-width:0.5;" x1="8" x2="121.7793" y1="944.0625" y2="944.0625"/><line style="stroke:#181818;stroke-width:0.5;" x1="8" x2="121.7793" y1="952.0625" y2="952.0625"/></g><!--class Address--><g id="elem_Address"><rect codeLine="64" fill="#F1F1F1" height="56.2656" id="Address" rx="2.5" ry="2.5" style="stroke:#181818;stroke-width:0.5;" width="115.7793" x="158" y="903.7969"/><ellipse cx="173" cy="923.9297" fill="#ADD1B2" rx="11" ry="11" style="stroke:#181818;stroke-width:1;"/><path d="M175.9688,929.5703 Q175.3906,929.8672 174.75,930.0078 Q174.1094,930.1641 173.4063,930.1641 Q170.9063,930.1641 169.5781,928.5234 Q168.2656,926.8672 168.2656,923.7422 Q168.2656,920.6172 169.5781,918.9609 Q170.9063,917.3047 173.4063,917.3047 Q174.1094,917.3047 174.75,917.4609 Q175.4063,917.6172 175.9688,917.9141 L175.9688,920.6328 Q175.3438,920.0547 174.75,919.7891 Q174.1563,919.5078 173.5313,919.5078 Q172.1875,919.5078 171.5,920.5859 Q170.8125,921.6484 170.8125,923.7422 Q170.8125,925.8359 171.5,926.9141 Q172.1875,927.9766 173.5313,927.9766 Q174.1563,927.9766 174.75,927.7109 Q175.3438,927.4297 175.9688,926.8516 L175.9688,929.5703 Z " fill="#000000"/><text fill="#000000" font-family="sans-serif" font-size="12" font-style="italic" lengthAdjust="spacing" textLength="87.7793" x="185" y="919.9355">&#171;ValueObject&#187;</text><text fill="#000000" font-family="sans-serif" font-size="14" lengthAdjust="spacing" textLength="56.3076" x="200.7358" y="935.7607">Address</text><line style="stroke:#181818;stroke-width:0.5;" x1="159" x2="272.7793" y1="944.0625" y2="944.0625"/><line style="stroke:#181818;stroke-width:0.5;" x1="159" x2="272.7793" y1="952.0625" y2="952.0625"/></g><!--link RegisterShowRequestUI to RegisterShowRequestController--><g id="link_RegisterShowRequestUI_RegisterShowRequestController"><path codeLine="66" d="M738,125.5669 C738,143.9769 738,160.1769 738,180.2069 " fill="transparent" id="RegisterShowRequestUI-to-RegisterShowRequestController" style="stroke:#181818;stroke-width:1;stroke-dasharray:7.0,7.0;"/><polygon fill="#181818" points="738,186.2069,742,177.2069,738,181.2069,734,177.2069,738,186.2069" style="stroke:#181818;stroke-width:1;"/></g><!--link RegisterShowRequestController to CustomerRepository--><g id="link_RegisterShowRequestController_CustomerRepository"><path codeLine="67" d="M639.36,299.3069 C566.54,340.2969 474.0188,392.3641 406.7488,430.2241 " fill="transparent" id="RegisterShowRequestController-to-CustomerRepository" style="stroke:#181818;stroke-width:1;stroke-dasharray:7.0,7.0;"/><polygon fill="#181818" points="401.52,433.1669,411.325,432.2385,405.8773,430.7146,407.4013,425.2669,401.52,433.1669" style="stroke:#181818;stroke-width:1;"/></g><!--link RegisterShowRequestController to ShowRequestRepository--><g id="link_RegisterShowRequestController_ShowRequestRepository"><path codeLine="68" d="M823.77,299.3069 C891.78,343.3269 979.7329,400.2569 1038.0629,438.0069 " fill="transparent" id="RegisterShowRequestController-to-ShowRequestRepository" style="stroke:#181818;stroke-width:1;stroke-dasharray:7.0,7.0;"/><polygon fill="#181818" points="1043.1,441.2669,1037.7176,433.0189,1038.9024,438.5503,1033.371,439.7351,1043.1,441.2669" style="stroke:#181818;stroke-width:1;"/></g><!--link RegisterShowRequestController to ShowRequest--><g id="link_RegisterShowRequestController_ShowRequest"><path codeLine="69" d="M738,299.3069 C738,322.3269 738,343.7669 738,370.1069 " fill="transparent" id="RegisterShowRequestController-to-ShowRequest" style="stroke:#181818;stroke-width:1;stroke-dasharray:7.0,7.0;"/><polygon fill="#181818" points="738,376.1069,742,367.1069,738,371.1069,734,367.1069,738,376.1069" style="stroke:#181818;stroke-width:1;"/><text fill="#000000" font-family="sans-serif" font-size="13" lengthAdjust="spacing" textLength="48.3247" x="739" y="342.3638">creates</text></g><!--link ShowRequest to Customer--><g id="link_ShowRequest_Customer"><path codeLine="70" d="M583.23,547.4069 C520.7,577.6169 449.04,615.5169 388,656.2969 C373.65,665.8869 363.6556,673.4275 350.2756,684.7175 " fill="transparent" id="ShowRequest-to-Customer" style="stroke:#181818;stroke-width:1;"/><polygon fill="#181818" points="345.69,688.5869,355.148,685.8399,349.5114,685.3624,349.9889,679.7258,345.69,688.5869" style="stroke:#181818;stroke-width:1;"/><text fill="#000000" font-family="sans-serif" font-size="13" lengthAdjust="spacing" textLength="69.418" x="463" y="622.3638">references</text></g><!--reverse link ShowRequest to Place_1--><g id="link_ShowRequest_Place_1"><path codeLine="71" d="M611.8003,587.4231 C584.4303,611.9931 564.7,630.6069 539,656.2969 C520.75,674.5369 501.38,696.3069 486.9,713.1069 " fill="transparent" id="ShowRequest-backto-Place_1" style="stroke:#181818;stroke-width:1;"/><polygon fill="#181818" points="620.73,579.4069,613.5931,580.4384,611.8003,587.4231,618.9372,586.3916,620.73,579.4069" style="stroke:#181818;stroke-width:1;"/></g><!--reverse link ShowRequest to Date_3--><g id="link_ShowRequest_Date_3"><path codeLine="72" d="M685.5127,590.3858 C662.8427,638.5858 642.57,681.6769 627.74,713.2169 " fill="transparent" id="ShowRequest-backto-Date_3" style="stroke:#181818;stroke-width:1;"/><polygon fill="#181818" points="690.62,579.5269,684.4467,583.2539,685.5127,590.3858,691.686,586.6588,690.62,579.5269" style="stroke:#181818;stroke-width:1;"/></g><!--reverse link ShowRequest to Duration_2--><g id="link_ShowRequest_Duration_2"><path codeLine="73" d="M750.0673,591.4587 C755.2273,639.6587 759.72,681.6769 763.1,713.2169 " fill="transparent" id="ShowRequest-backto-Duration_2" style="stroke:#181818;stroke-width:1;"/><polygon fill="#181818" points="748.79,579.5269,745.4514,585.9186,750.0673,591.4587,753.4059,585.067,748.79,579.5269" style="stroke:#181818;stroke-width:1;"/></g><!--reverse link ShowRequest to DronesRequested--><g id="link_ShowRequest_DronesRequested"><path codeLine="74" d="M822.3295,589.0591 C859.1895,637.2591 893.17,681.6769 917.29,713.2169 " fill="transparent" id="ShowRequest-backto-DronesRequested" style="stroke:#181818;stroke-width:1;"/><polygon fill="#181818" points="815.04,579.5269,815.5074,586.7228,822.3295,589.0591,821.8622,581.8631,815.04,579.5269" style="stroke:#181818;stroke-width:1;"/></g><!--reverse link ShowRequest to Description_1--><g id="link_ShowRequest_Description_1"><path codeLine="75" d="M903.1988,575.4556 C967.5688,613.5256 1020.25,645.4269 1034,656.2969 C1055.59,673.3569 1077.21,695.7869 1092.83,713.1769 " fill="transparent" id="ShowRequest-backto-Description_1" style="stroke:#181818;stroke-width:1;"/><polygon fill="#181818" points="892.87,569.3469,895.9982,575.8442,903.1988,575.4556,900.0706,568.9583,892.87,569.3469" style="stroke:#181818;stroke-width:1;"/></g><!--reverse link ShowRequest to ShowRequestStatus--><g id="link_ShowRequest_ShowRequestStatus"><path codeLine="76" d="M903.5633,576.6903 C909.3633,579.3703 904.26,576.8969 910,579.2969 C1031.87,630.1769 1079.3,596.3969 1197,656.2969 C1203,659.3469 1208.97,662.7869 1214.85,666.4869 " fill="transparent" id="ShowRequest-backto-ShowRequestStatus" style="stroke:#181818;stroke-width:1;"/><polygon fill="#181818" points="892.67,571.6569,896.4388,577.8047,903.5633,576.6903,899.7945,570.5425,892.67,571.6569" style="stroke:#181818;stroke-width:1;"/></g><!--link Customer to VAT--><g id="link_Customer_VAT"><path codeLine="77" d="M311.04,793.8069 C325.56,829.3369 341.9999,869.6129 353.6899,898.2129 " fill="transparent" id="Customer-to-VAT" style="stroke:#181818;stroke-width:1;"/><polygon fill="#181818" points="355.96,903.7669,356.2574,893.9225,354.0682,899.1386,348.8522,896.9494,355.96,903.7669" style="stroke:#181818;stroke-width:1;"/></g><!--link Customer to Name--><g id="link_Customer_Name"><path codeLine="78" d="M228.52,793.8069 C186.1,829.3369 136.0094,871.3139 101.8694,899.9139 " fill="transparent" id="Customer-to-Name" style="stroke:#181818;stroke-width:1;"/><polygon fill="#181818" points="97.27,903.7669,106.7377,901.0536,101.1028,900.556,101.6004,894.9211,97.27,903.7669" style="stroke:#181818;stroke-width:1;"/></g><!--link Customer to Address--><g id="link_Customer_Address"><path codeLine="79" d="M269.78,793.8069 C255.83,829.3369 240.0329,869.582 228.8029,898.182 " fill="transparent" id="Customer-to-Address" style="stroke:#181818;stroke-width:1;"/><polygon fill="#181818" points="226.61,903.7669,233.6227,896.8515,228.4375,899.1128,226.1762,893.9276,226.61,903.7669" style="stroke:#181818;stroke-width:1;"/></g><!--link CustomerRepository to Customer--><g id="link_CustomerRepository_Customer"><path codeLine="80" d="M318.31,522.5669 C312.35,568.3669 303.7839,634.277 297.4739,682.787 " fill="transparent" id="CustomerRepository-to-Customer" style="stroke:#181818;stroke-width:1;"/><polygon fill="#181818" points="296.7,688.7369,301.8275,680.328,297.3449,683.7786,293.8943,679.2961,296.7,688.7369" style="stroke:#181818;stroke-width:1;"/><text fill="#000000" font-family="sans-serif" font-size="13" lengthAdjust="spacing" textLength="28.1201" x="308" y="622.3638">gets</text></g><!--link Place_1 to Geolocation--><g id="link_Place_1_Geolocation"><path codeLine="81" d="M474.46,769.3069 C486.37,800.0469 503.8122,845.1122 517.9122,881.5022 " fill="transparent" id="Place_1-to-Geolocation" style="stroke:#181818;stroke-width:1;"/><polygon fill="#181818" points="520.08,887.0969,520.5581,877.2596,518.2735,882.4346,513.0985,880.15,520.08,887.0969" style="stroke:#181818;stroke-width:1;"/></g><!--SRC=[bLLTRzem57tFh_0ZNGlQsZTK8QL9Dh5HG0bKsbDaaWlp56ncEvtGrF_UQoSXv0EglK1opl7ryRs-Dvhf3CWwkd_u78UmOqg3Z7w9lo7yoK7fsFCT9yceKgI7NK_9FuUG8Ka4rr9a6KWoxXDw9nxbjoGLXXlSE6zNWjThgarofSKUP0W7ePWMyeYRUHtGQbKTfo6F-d3hQGVQJJHxXIgY6jpWWYcQefiC7YjuOjMowtTG-NjnLsE2FtVaaD44S5Cj6T_TaPHgMB4z8ZEHqCmlNv789TLCy37nooV4fE3WYPphCM5S8m0gaUnWs12sLTIRvg7gZ9w1vF4nu9hfusJIIYMw9DOhIhx-c4miQLqZl3J_yHUBLTOHDhRZXm8jtPBQU7nl6Ldi3AblZg6Cm3w45Lwihu_aYoJV0yUgR8su9ae3IbETg-PX8uiLTBxPCwLC8BH7MXcs9KiauEjWD1hPUmSyttU3OHvUQ9R3OlCR4btcAre_FKzNgy37v_NS3yBOdRkpdz4qGi1TBiF5Y-N2u7lW5RBfF4RONtkhwMAExzxYUJaB2ivpvrumc-4psi3IWjoQX7TlCfgfNqeljsJBU5hSr6iNrAYUZbZPmIlLHOsDUc5pIhCpTSD4Rt_q-r0K7PHrRjRbufsiDiM0xcw7FOG52OMeycoYebjxBFHR8fpkYvFEgQsamPWwoy16Y0mehxVv1YB3yjkRsLTF4o4JVCTqdfgxaeeS4rWHkAw9d-8MVTAAzrQIPRTS5XHzSuK_TT0LJRE9hWZF6-YopAJqCkkcgGIb-WHE_zTWD9fyCFwl3tgplcUYVxoeVwx_rpeiU34Yb7EE3eUr9PH8s884dk1CQyW-3OUdWTd6oudPWUkHsQ5QmxB3D-PZc-sEoDC1p6bCQpK0srWDfAoyqpEJMld0pwPoghjlkBFcUmS0]--></g></svg>