<svg xmlns="http://www.w3.org/2000/svg" xmlns:xlink="http://www.w3.org/1999/xlink" contentStyleType="text/css" data-diagram-type="SEQUENCE" height="793px" preserveAspectRatio="none" style="width:2120px;height:793px;background:#FFFFFF;" version="1.1" viewBox="0 0 2120 793" width="2120px" zoomAndPan="magnify"><defs/><g><g><title>CRM Collaborator</title><rect fill="#FFFFFF" height="603.625" style="stroke:#181818;stroke-width:1;" width="10" x="64.1646" y="91.2969"/></g><g><title>:RegisterShowRequestUI</title><rect fill="#FFFFFF" height="582.4922" style="stroke:#181818;stroke-width:1;" width="10" x="521.8652" y="112.4297"/></g><g><title>:RegisterShowRequestController</title><rect fill="#FFFFFF" height="87.3984" style="stroke:#181818;stroke-width:1;" width="10" x="1171.7432" y="141.5625"/></g><g><title>:RegisterShowRequestController</title><rect fill="#FFFFFF" height="299.1641" style="stroke:#181818;stroke-width:1;" width="10" x="1171.7432" y="374.625"/></g><g><title>customerRepo : CustomerRepository</title><rect fill="#FFFFFF" height="29.1328" style="stroke:#181818;stroke-width:1;" width="10" x="1438.665" y="170.6953"/></g><g><title>customerRepo : CustomerRepository</title><rect fill="#FFFFFF" height="29.1328" style="stroke:#181818;stroke-width:1;" width="10" x="1438.665" y="403.7578"/></g><g><title>showRequestRepo : ShowRequestRepository</title><rect fill="#FFFFFF" height="29.1328" style="stroke:#181818;stroke-width:1;" width="10" x="1748.5884" y="556.5859"/></g><g><title>request : ShowRequest</title><rect fill="#FFFFFF" height="31.2969" style="stroke:#181818;stroke-width:1;" width="10" x="2010.5132" y="496.1563"/></g><rect fill="transparent" height="218.8984" style="stroke:#000000;stroke-width:1.5;" width="1690.1729" x="423.5479" y="447.8906"/><g><title>CRM Collaborator</title><rect fill="transparent" height="631.625" width="8" x="65.1646" y="81.2969"/><line style="stroke:#181818;stroke-width:0.5;stroke-dasharray:5.0,5.0;" x1="69" x2="69" y1="81.2969" y2="712.9219"/></g><g><title>:RegisterShowRequestUI</title><rect fill="transparent" height="631.625" width="8" x="522.8652" y="81.2969"/><line style="stroke:#181818;stroke-width:0.5;stroke-dasharray:5.0,5.0;" x1="526.5479" x2="526.5479" y1="81.2969" y2="712.9219"/></g><g><title>:RegisterShowRequestController</title><rect fill="transparent" height="631.625" width="8" x="1172.7432" y="81.2969"/><line style="stroke:#181818;stroke-width:0.5;stroke-dasharray:5.0,5.0;" x1="1176.0273" x2="1176.0273" y1="81.2969" y2="712.9219"/></g><g><title>customerRepo : CustomerRepository</title><rect fill="transparent" height="631.625" width="8" x="1439.665" y="81.2969"/><line style="stroke:#181818;stroke-width:0.5;stroke-dasharray:5.0,5.0;" x1="1443.459" x2="1443.459" y1="81.2969" y2="712.9219"/></g><g><title>showRequestRepo : ShowRequestRepository</title><rect fill="transparent" height="631.625" width="8" x="1749.5884" y="81.2969"/><line style="stroke:#181818;stroke-width:0.5;stroke-dasharray:5.0,5.0;" x1="1752.8711" x2="1752.8711" y1="81.2969" y2="712.9219"/></g><g><title>request : ShowRequest</title><rect fill="transparent" height="217.25" width="8" x="2011.5132" y="495.6719"/><line style="stroke:#181818;stroke-width:0.5;stroke-dasharray:5.0,5.0;" x1="2015.3057" x2="2015.3057" y1="495.6719" y2="712.9219"/></g><text fill="#000000" font-family="sans-serif" font-size="14" lengthAdjust="spacing" textLength="122.3291" x="5" y="77.9951">CRM Collaborator</text><ellipse cx="69.1646" cy="13.5" fill="#E2E2F0" rx="8" ry="8" style="stroke:#181818;stroke-width:0.5;"/><path d="M69.1646,21.5 L69.1646,48.5 M56.1646,29.5 L82.1646,29.5 M69.1646,48.5 L56.1646,63.5 M69.1646,48.5 L82.1646,63.5 " fill="transparent" style="stroke:#181818;stroke-width:0.5;"/><text fill="#000000" font-family="sans-serif" font-size="14" lengthAdjust="spacing" textLength="122.3291" x="5" y="724.917">CRM Collaborator</text><ellipse cx="69.1646" cy="736.7188" fill="#E2E2F0" rx="8" ry="8" style="stroke:#181818;stroke-width:0.5;"/><path d="M69.1646,744.7188 L69.1646,771.7188 M56.1646,752.7188 L82.1646,752.7188 M69.1646,771.7188 L56.1646,786.7188 M69.1646,771.7188 L82.1646,786.7188 " fill="transparent" style="stroke:#181818;stroke-width:0.5;"/><rect fill="#E2E2F0" height="30.2969" rx="2.5" ry="2.5" style="stroke:#181818;stroke-width:0.5;" width="186.6348" x="433.5479" y="50"/><text fill="#000000" font-family="sans-serif" font-size="14" lengthAdjust="spacing" textLength="172.6348" x="440.5479" y="69.9951">:RegisterShowRequestUI</text><rect fill="#E2E2F0" height="30.2969" rx="2.5" ry="2.5" style="stroke:#181818;stroke-width:0.5;" width="186.6348" x="433.5479" y="711.9219"/><text fill="#000000" font-family="sans-serif" font-size="14" lengthAdjust="spacing" textLength="172.6348" x="440.5479" y="731.917">:RegisterShowRequestUI</text><rect fill="#E2E2F0" height="30.2969" rx="2.5" ry="2.5" style="stroke:#181818;stroke-width:0.5;" width="241.4316" x="1056.0273" y="50"/><text fill="#000000" font-family="sans-serif" font-size="14" lengthAdjust="spacing" textLength="227.4316" x="1063.0273" y="69.9951">:RegisterShowRequestController</text><rect fill="#E2E2F0" height="30.2969" rx="2.5" ry="2.5" style="stroke:#181818;stroke-width:0.5;" width="241.4316" x="1056.0273" y="711.9219"/><text fill="#000000" font-family="sans-serif" font-size="14" lengthAdjust="spacing" textLength="227.4316" x="1063.0273" y="731.917">:RegisterShowRequestController</text><rect fill="#E2E2F0" height="30.2969" rx="2.5" ry="2.5" style="stroke:#181818;stroke-width:0.5;" width="272.4121" x="1307.459" y="50"/><text fill="#000000" font-family="sans-serif" font-size="14" lengthAdjust="spacing" textLength="258.4121" x="1314.459" y="69.9951">customerRepo : CustomerRepository</text><rect fill="#E2E2F0" height="30.2969" rx="2.5" ry="2.5" style="stroke:#181818;stroke-width:0.5;" width="272.4121" x="1307.459" y="711.9219"/><text fill="#000000" font-family="sans-serif" font-size="14" lengthAdjust="spacing" textLength="258.4121" x="1314.459" y="731.917">customerRepo : CustomerRepository</text><rect fill="#E2E2F0" height="30.2969" rx="2.5" ry="2.5" style="stroke:#181818;stroke-width:0.5;" width="327.4346" x="1589.8711" y="50"/><text fill="#000000" font-family="sans-serif" font-size="14" lengthAdjust="spacing" textLength="313.4346" x="1596.8711" y="69.9951">showRequestRepo : ShowRequestRepository</text><rect fill="#E2E2F0" height="30.2969" rx="2.5" ry="2.5" style="stroke:#181818;stroke-width:0.5;" width="327.4346" x="1589.8711" y="711.9219"/><text fill="#000000" font-family="sans-serif" font-size="14" lengthAdjust="spacing" textLength="313.4346" x="1596.8711" y="731.917">showRequestRepo : ShowRequestRepository</text><rect fill="#E2E2F0" height="30.2969" rx="2.5" ry="2.5" style="stroke:#181818;stroke-width:0.5;" width="176.415" x="1927.3057" y="711.9219"/><text fill="#000000" font-family="sans-serif" font-size="14" lengthAdjust="spacing" textLength="162.415" x="1934.3057" y="731.917">request : ShowRequest</text><g><title>CRM Collaborator</title><rect fill="#FFFFFF" height="603.625" style="stroke:#181818;stroke-width:1;" width="10" x="64.1646" y="91.2969"/></g><g><title>:RegisterShowRequestUI</title><rect fill="#FFFFFF" height="582.4922" style="stroke:#181818;stroke-width:1;" width="10" x="521.8652" y="112.4297"/></g><g><title>:RegisterShowRequestController</title><rect fill="#FFFFFF" height="87.3984" style="stroke:#181818;stroke-width:1;" width="10" x="1171.7432" y="141.5625"/></g><g><title>:RegisterShowRequestController</title><rect fill="#FFFFFF" height="299.1641" style="stroke:#181818;stroke-width:1;" width="10" x="1171.7432" y="374.625"/></g><g><title>customerRepo : CustomerRepository</title><rect fill="#FFFFFF" height="29.1328" style="stroke:#181818;stroke-width:1;" width="10" x="1438.665" y="170.6953"/></g><g><title>customerRepo : CustomerRepository</title><rect fill="#FFFFFF" height="29.1328" style="stroke:#181818;stroke-width:1;" width="10" x="1438.665" y="403.7578"/></g><g><title>showRequestRepo : ShowRequestRepository</title><rect fill="#FFFFFF" height="29.1328" style="stroke:#181818;stroke-width:1;" width="10" x="1748.5884" y="556.5859"/></g><g><title>request : ShowRequest</title><rect fill="#FFFFFF" height="31.2969" style="stroke:#181818;stroke-width:1;" width="10" x="2010.5132" y="496.1563"/></g><polygon fill="#181818" points="509.8652,108.4297,519.8652,112.4297,509.8652,116.4297,513.8652,112.4297" style="stroke:#181818;stroke-width:1;"/><line style="stroke:#181818;stroke-width:1;" x1="74.1646" x2="515.8652" y1="112.4297" y2="112.4297"/><text fill="#000000" font-family="sans-serif" font-size="13" font-weight="bold" lengthAdjust="spacing" textLength="9.0454" x="81.1646" y="107.3638">1</text><text fill="#000000" font-family="sans-serif" font-size="13" lengthAdjust="spacing" textLength="259.0479" x="94.21" y="107.3638">Selects "Register Show Request" option</text><polygon fill="#181818" points="1159.7432,137.5625,1169.7432,141.5625,1159.7432,145.5625,1163.7432,141.5625" style="stroke:#181818;stroke-width:1;"/><line style="stroke:#181818;stroke-width:1;" x1="531.8652" x2="1165.7432" y1="141.5625" y2="141.5625"/><text fill="#000000" font-family="sans-serif" font-size="13" font-weight="bold" lengthAdjust="spacing" textLength="9.0454" x="538.8652" y="136.4966">2</text><text fill="#000000" font-family="sans-serif" font-size="13" lengthAdjust="spacing" textLength="141.8511" x="551.9106" y="136.4966">getActiveCustomers()</text><polygon fill="#181818" points="1426.665,166.6953,1436.665,170.6953,1426.665,174.6953,1430.665,170.6953" style="stroke:#181818;stroke-width:1;"/><line style="stroke:#181818;stroke-width:1;" x1="1181.7432" x2="1432.665" y1="170.6953" y2="170.6953"/><text fill="#000000" font-family="sans-serif" font-size="13" font-weight="bold" lengthAdjust="spacing" textLength="9.0454" x="1188.7432" y="165.6294">3</text><text fill="#000000" font-family="sans-serif" font-size="13" lengthAdjust="spacing" textLength="75.2642" x="1201.7886" y="165.6294">findActive()</text><polygon fill="#181818" points="1192.7432,195.8281,1182.7432,199.8281,1192.7432,203.8281,1188.7432,199.8281" style="stroke:#181818;stroke-width:1;"/><line style="stroke:#181818;stroke-width:1;stroke-dasharray:2.0,2.0;" x1="1186.7432" x2="1442.665" y1="199.8281" y2="199.8281"/><text fill="#000000" font-family="sans-serif" font-size="13" font-weight="bold" lengthAdjust="spacing" textLength="9.0454" x="1198.7432" y="194.7622">4</text><text fill="#000000" font-family="sans-serif" font-size="13" lengthAdjust="spacing" textLength="125.3853" x="1211.7886" y="194.7622">activeCustomerList</text><polygon fill="#181818" points="542.8652,224.9609,532.8652,228.9609,542.8652,232.9609,538.8652,228.9609" style="stroke:#181818;stroke-width:1;"/><line style="stroke:#181818;stroke-width:1;stroke-dasharray:2.0,2.0;" x1="536.8652" x2="1175.7432" y1="228.9609" y2="228.9609"/><text fill="#000000" font-family="sans-serif" font-size="13" font-weight="bold" lengthAdjust="spacing" textLength="9.0454" x="548.8652" y="223.895">5</text><text fill="#000000" font-family="sans-serif" font-size="13" lengthAdjust="spacing" textLength="125.3853" x="561.9106" y="223.895">activeCustomerList</text><polygon fill="#181818" points="85.1646,254.0938,75.1646,258.0938,85.1646,262.0938,81.1646,258.0938" style="stroke:#181818;stroke-width:1;"/><line style="stroke:#181818;stroke-width:1;stroke-dasharray:2.0,2.0;" x1="79.1646" x2="520.8652" y1="258.0938" y2="258.0938"/><text fill="#000000" font-family="sans-serif" font-size="13" font-weight="bold" lengthAdjust="spacing" textLength="9.0454" x="91.1646" y="253.0278">6</text><text fill="#000000" font-family="sans-serif" font-size="13" lengthAdjust="spacing" textLength="319.3823" x="104.21" y="253.0278">Shows list of active customers, asks for selection</text><polygon fill="#181818" points="509.8652,283.2266,519.8652,287.2266,509.8652,291.2266,513.8652,287.2266" style="stroke:#181818;stroke-width:1;"/><line style="stroke:#181818;stroke-width:1;" x1="74.1646" x2="515.8652" y1="287.2266" y2="287.2266"/><text fill="#000000" font-family="sans-serif" font-size="13" font-weight="bold" lengthAdjust="spacing" textLength="9.0454" x="81.1646" y="282.1606">7</text><text fill="#000000" font-family="sans-serif" font-size="13" lengthAdjust="spacing" textLength="205.0864" x="94.21" y="282.1606">Selects customer (e.g., by VAT)</text><polygon fill="#181818" points="85.1646,312.3594,75.1646,316.3594,85.1646,320.3594,81.1646,316.3594" style="stroke:#181818;stroke-width:1;"/><line style="stroke:#181818;stroke-width:1;stroke-dasharray:2.0,2.0;" x1="79.1646" x2="520.8652" y1="316.3594" y2="316.3594"/><text fill="#000000" font-family="sans-serif" font-size="13" font-weight="bold" lengthAdjust="spacing" textLength="9.0454" x="91.1646" y="311.2935">8</text><text fill="#000000" font-family="sans-serif" font-size="13" lengthAdjust="spacing" textLength="410.6553" x="104.21" y="311.2935">Asks for place, dateTime, duration, droneCount, descriptionRef</text><polygon fill="#181818" points="509.8652,341.4922,519.8652,345.4922,509.8652,349.4922,513.8652,345.4922" style="stroke:#181818;stroke-width:1;"/><line style="stroke:#181818;stroke-width:1;" x1="74.1646" x2="515.8652" y1="345.4922" y2="345.4922"/><text fill="#000000" font-family="sans-serif" font-size="13" font-weight="bold" lengthAdjust="spacing" textLength="9.0454" x="81.1646" y="340.4263">9</text><text fill="#000000" font-family="sans-serif" font-size="13" lengthAdjust="spacing" textLength="142.9429" x="94.21" y="340.4263">Enters request details</text><polygon fill="#181818" points="1159.7432,370.625,1169.7432,374.625,1159.7432,378.625,1163.7432,374.625" style="stroke:#181818;stroke-width:1;"/><line style="stroke:#181818;stroke-width:1;" x1="531.8652" x2="1165.7432" y1="374.625" y2="374.625"/><text fill="#000000" font-family="sans-serif" font-size="13" font-weight="bold" lengthAdjust="spacing" textLength="18.0908" x="538.8652" y="369.5591">10</text><text fill="#000000" font-family="sans-serif" font-size="13" lengthAdjust="spacing" textLength="598.7871" x="560.9561" y="369.5591">registerShowRequest(customerVAT, place, dateTime, duration, droneCount, descriptionRef)</text><polygon fill="#181818" points="1426.665,399.7578,1436.665,403.7578,1426.665,407.7578,1430.665,403.7578" style="stroke:#181818;stroke-width:1;"/><line style="stroke:#181818;stroke-width:1;" x1="1181.7432" x2="1432.665" y1="403.7578" y2="403.7578"/><text fill="#000000" font-family="sans-serif" font-size="13" font-weight="bold" lengthAdjust="spacing" textLength="18.0908" x="1188.7432" y="398.6919">11</text><text fill="#000000" font-family="sans-serif" font-size="13" lengthAdjust="spacing" textLength="164.106" x="1210.834" y="398.6919">findByVAT(customerVAT)</text><polygon fill="#181818" points="1192.7432,428.8906,1182.7432,432.8906,1192.7432,436.8906,1188.7432,432.8906" style="stroke:#181818;stroke-width:1;"/><line style="stroke:#181818;stroke-width:1;stroke-dasharray:2.0,2.0;" x1="1186.7432" x2="1442.665" y1="432.8906" y2="432.8906"/><text fill="#000000" font-family="sans-serif" font-size="13" font-weight="bold" lengthAdjust="spacing" textLength="18.0908" x="1198.7432" y="427.8247">12</text><text fill="#000000" font-family="sans-serif" font-size="13" lengthAdjust="spacing" textLength="115.832" x="1220.834" y="427.8247">optionalCustomer</text><path d="M423.5479,447.8906 L487.9907,447.8906 L487.9907,455.0234 L477.9907,465.0234 L423.5479,465.0234 L423.5479,447.8906 " fill="#EEEEEE" style="stroke:#000000;stroke-width:1.5;"/><rect fill="transparent" height="218.8984" style="stroke:#000000;stroke-width:1.5;" width="1690.1729" x="423.5479" y="447.8906"/><text fill="#000000" font-family="sans-serif" font-size="13" font-weight="bold" lengthAdjust="spacing" textLength="19.4429" x="438.5479" y="460.9575">alt</text><text fill="#000000" font-family="sans-serif" font-size="11" font-weight="bold" lengthAdjust="spacing" textLength="177.7671" x="502.9907" y="460.1011">[Customer found and active]</text><polygon fill="#181818" points="1915.3057,482.1563,1925.3057,486.1563,1915.3057,490.1563,1919.3057,486.1563" style="stroke:#181818;stroke-width:1;"/><line style="stroke:#181818;stroke-width:1;" x1="1181.7432" x2="1921.3057" y1="486.1563" y2="486.1563"/><text fill="#000000" font-family="sans-serif" font-size="13" font-weight="bold" lengthAdjust="spacing" textLength="18.0908" x="1188.7432" y="481.0903">13</text><text fill="#000000" font-family="sans-serif" font-size="13" lengthAdjust="spacing" textLength="475.7251" x="1210.834" y="481.0903">create(customer, place, dateTime, duration, droneCount, descriptionRef)</text><rect fill="#E2E2F0" height="30.2969" rx="2.5" ry="2.5" style="stroke:#181818;stroke-width:0.5;" width="176.415" x="1927.3057" y="465.0234"/><text fill="#000000" font-family="sans-serif" font-size="14" lengthAdjust="spacing" textLength="162.415" x="1934.3057" y="485.0186">request : ShowRequest</text><polygon fill="#181818" points="1192.7432,523.4531,1182.7432,527.4531,1192.7432,531.4531,1188.7432,527.4531" style="stroke:#181818;stroke-width:1;"/><line style="stroke:#181818;stroke-width:1;stroke-dasharray:2.0,2.0;" x1="1186.7432" x2="2014.5132" y1="527.4531" y2="527.4531"/><text fill="#000000" font-family="sans-serif" font-size="13" font-weight="bold" lengthAdjust="spacing" textLength="18.0908" x="1198.7432" y="522.3872">14</text><text fill="#000000" font-family="sans-serif" font-size="13" lengthAdjust="spacing" textLength="86.9883" x="1220.834" y="522.3872">showRequest</text><polygon fill="#181818" points="1736.5884,552.5859,1746.5884,556.5859,1736.5884,560.5859,1740.5884,556.5859" style="stroke:#181818;stroke-width:1;"/><line style="stroke:#181818;stroke-width:1;" x1="1181.7432" x2="1742.5884" y1="556.5859" y2="556.5859"/><text fill="#000000" font-family="sans-serif" font-size="13" font-weight="bold" lengthAdjust="spacing" textLength="18.0908" x="1188.7432" y="551.52">15</text><text fill="#000000" font-family="sans-serif" font-size="13" lengthAdjust="spacing" textLength="127.5625" x="1210.834" y="551.52">save(showRequest)</text><polygon fill="#181818" points="1192.7432,581.7188,1182.7432,585.7188,1192.7432,589.7188,1188.7432,585.7188" style="stroke:#181818;stroke-width:1;"/><line style="stroke:#181818;stroke-width:1;stroke-dasharray:2.0,2.0;" x1="1186.7432" x2="1752.5884" y1="585.7188" y2="585.7188"/><text fill="#000000" font-family="sans-serif" font-size="13" font-weight="bold" lengthAdjust="spacing" textLength="18.0908" x="1198.7432" y="580.6528">16</text><text fill="#000000" font-family="sans-serif" font-size="13" lengthAdjust="spacing" textLength="148.5669" x="1220.834" y="580.6528">persistedShowRequest</text><polygon fill="#181818" points="542.8652,610.8516,532.8652,614.8516,542.8652,618.8516,538.8652,614.8516" style="stroke:#181818;stroke-width:1;"/><line style="stroke:#181818;stroke-width:1;stroke-dasharray:2.0,2.0;" x1="536.8652" x2="1170.7432" y1="614.8516" y2="614.8516"/><text fill="#000000" font-family="sans-serif" font-size="13" font-weight="bold" lengthAdjust="spacing" textLength="18.0908" x="548.8652" y="609.7856">17</text><text fill="#000000" font-family="sans-serif" font-size="13" lengthAdjust="spacing" textLength="138.8677" x="570.9561" y="609.7856">Success confirmation</text><line style="stroke:#000000;stroke-width:1;stroke-dasharray:2.0,2.0;" x1="423.5479" x2="2113.7207" y1="623.8516" y2="623.8516"/><text fill="#000000" font-family="sans-serif" font-size="11" font-weight="bold" lengthAdjust="spacing" textLength="203.6987" x="428.5479" y="634.062">[Customer not found or inactive]</text><polygon fill="#181818" points="542.8652,654.7891,532.8652,658.7891,542.8652,662.7891,538.8652,658.7891" style="stroke:#181818;stroke-width:1;"/><line style="stroke:#181818;stroke-width:1;stroke-dasharray:2.0,2.0;" x1="536.8652" x2="1170.7432" y1="658.7891" y2="658.7891"/><text fill="#000000" font-family="sans-serif" font-size="13" font-weight="bold" lengthAdjust="spacing" textLength="18.0908" x="548.8652" y="653.7231">18</text><text fill="#000000" font-family="sans-serif" font-size="13" lengthAdjust="spacing" textLength="275.0439" x="570.9561" y="653.7231">Error message (Customer invalid/inactive)</text><polygon fill="#181818" points="80.1646,690.9219,70.1646,694.9219,80.1646,698.9219,76.1646,694.9219" style="stroke:#181818;stroke-width:1;"/><line style="stroke:#181818;stroke-width:1;stroke-dasharray:2.0,2.0;" x1="74.1646" x2="525.8652" y1="694.9219" y2="694.9219"/><text fill="#000000" font-family="sans-serif" font-size="13" font-weight="bold" lengthAdjust="spacing" textLength="18.0908" x="86.1646" y="689.856">19</text><text fill="#000000" font-family="sans-serif" font-size="13" lengthAdjust="spacing" textLength="212.9385" x="108.2554" y="689.856">Shows success or error message</text><!--SRC=[dLJ1Rjim3BtxAuYSaY9jxpqCo8mT0cmNkzrTaUbKc2ovejmXVpzAjXovoT2W0HB8odkFv2DfCNXhXkw0hX3IMmUhile5fTLQ7AmJVBC2GV123EY5yqggNXWFgwSAZueyklhL_gtmRK3oB_iHlFySMbhZ7KV1KR_qJYz9SY1lEtGLzXQUeCmUIN5Qfv77r-5goQLpd8bUBsyoXRgwvBiHkUH5z7GkWbdgNNWSdGa_SF-DAmySr2WzmIgL7LLWbh6zLzPa2lk2USmE9Z3_Y7uN_iDKCwqtPtHqAY83OvWhR9LfHje2dVoPaVVdG68HvIVdMZHuXHg3fUe-8ONiGZK17amPBIJG30JRJdH8tQKjk_g7eEN9e-XRiEQgdOa2QtmuFcpXS8BVk-VDXsYxfDPh8N4B3MVrhBfm6dYSMPrFpXeixM0ydv6aKx4Z5RRBo3yCDuyWJKE3NYXDosQvoz5UfqmvlUtNyhYntzzF728FTsldnn4KEhNnQj-5zlFQiQM3QK24R-nW0Vn9QKs5tzsnj7J8AdDINpOWwCyvfRKBbzCvBoVRzmZ9giclKxhZoWUUu6t9o1-YJg-6S3THifWzZqReV5F_FtWci5oYUf0IYMVQcbQvBjfHe2Oy6swidqpdOLRcmlLvI9rZGCTgueYmdldAl0kjciT4tHHecfjMbQRaM1PpyPpCxwpyYUd_0000]--></g></svg>